 0
SECTION
 2
HEADER
 0
ENDSEC
 0
SECTION
 2
TABLES
 0
ENDSEC
 0
SECTION
 2
BLOCKS
0
BLOCK
70
0
2
SC0915_RPI
10
0
20
0
30
0
999
##### Poly 316 ####
0
POLYLINE
5
36
70
1
8
8
6
CONTINUOUS
66
1
10
0
20
0
30
0
39
.039
0
VERTEX
8
8
6
CONTINUOUS
 10
-.4235
 20
-.1915
 30
0
0
VERTEX
8
8
6
CONTINUOUS
 10
-.4235
 20
-.2085
 30
0
0
VERTEX
8
8
6
CONTINUOUS
 10
-.4545
 20
-.2085
 30
0
0
VERTEX
8
8
6
CONTINUOUS
 10
-.4545
 20
-.2915
 30
0
0
VERTEX
8
8
6
CONTINUOUS
 10
-.4235
 20
-.2915
 30
0
0
VERTEX
8
8
6
CONTINUOUS
 10
-.4235
 20
-.3085
 30
0
0
VERTEX
8
8
6
CONTINUOUS
 10
-.4545
 20
-.3085
 30
0
0
VERTEX
8
8
6
CONTINUOUS
 10
-.4545
 20
-.3915
 30
0
0
VERTEX
8
8
6
CONTINUOUS
 10
-.4235
 20
-.3915
 30
0
0
VERTEX
8
8
6
CONTINUOUS
 10
-.4235
 20
-.4085
 30
0
0
VERTEX
8
8
6
CONTINUOUS
 10
-.4545
 20
-.4085
 30
0
0
VERTEX
8
8
6
CONTINUOUS
 10
-.4545
 20
-.4915
 30
0
0
VERTEX
8
8
6
CONTINUOUS
 10
-.4235
 20
-.4915
 30
0
0
VERTEX
8
8
6
CONTINUOUS
 10
-.4235
 20
-.5085
 30
0
0
VERTEX
8
8
6
CONTINUOUS
 10
-.4545
 20
-.5085
 30
0
0
VERTEX
8
8
6
CONTINUOUS
 10
-.4545
 20
-.5915
 30
0
0
VERTEX
8
8
6
CONTINUOUS
 10
-.4235
 20
-.5915
 30
0
0
VERTEX
8
8
6
CONTINUOUS
 10
-.4235
 20
-.6085
 30
0
0
VERTEX
8
8
6
CONTINUOUS
 10
-.4545
 20
-.6085
 30
0
0
VERTEX
8
8
6
CONTINUOUS
 10
-.4545
 20
-.6915
 30
0
0
VERTEX
8
8
6
CONTINUOUS
 10
-.4235
 20
-.6915
 30
0
0
VERTEX
8
8
6
CONTINUOUS
 10
-.4235
 20
-.7085
 30
0
0
VERTEX
8
8
6
CONTINUOUS
 10
-.4545
 20
-.7085
 30
0
0
VERTEX
8
8
6
CONTINUOUS
 10
-.4545
 20
-.7915
 30
0
0
VERTEX
8
8
6
CONTINUOUS
 10
-.4235
 20
-.7915
 30
0
0
VERTEX
8
8
6
CONTINUOUS
 10
-.4235
 20
-.8085
 30
0
0
VERTEX
8
8
6
CONTINUOUS
 10
-.4545
 20
-.8085
 30
0
0
VERTEX
8
8
6
CONTINUOUS
 10
-.4545
 20
-.8915
 30
0
0
VERTEX
8
8
6
CONTINUOUS
 10
-.4235
 20
-.8915
 30
0
0
VERTEX
8
8
6
CONTINUOUS
 10
-.4235
 20
-.9085
 30
0
0
VERTEX
8
8
6
CONTINUOUS
 10
-.4545
 20
-.9085
 30
0
0
VERTEX
8
8
6
CONTINUOUS
 10
-.4545
 20
-.9915
 30
0
0
VERTEX
8
8
6
CONTINUOUS
 10
-.4235
 20
-.9915
 30
0
0
VERTEX
8
8
6
CONTINUOUS
 10
-.4235
 20
-1.014
 30
0
0
VERTEX
8
8
6
CONTINUOUS
 10
-.1415
 20
-1.014
 30
0
0
VERTEX
8
8
6
CONTINUOUS
 10
-.1415
 20
-1.0454
 30
0
0
VERTEX
8
8
6
CONTINUOUS
 10
-.0585
 20
-1.0454
 30
0
0
VERTEX
8
8
6
CONTINUOUS
 10
-.0585
 20
-1.014
 30
0
0
VERTEX
8
8
6
CONTINUOUS
 10
-.0415
 20
-1.014
 30
0
0
VERTEX
8
8
6
CONTINUOUS
 10
-.0415
 20
-1.0454
 30
0
0
VERTEX
8
8
6
CONTINUOUS
 10
.0415
 20
-1.0454
 30
0
0
VERTEX
8
8
6
CONTINUOUS
 10
.0415
 20
-1.014
 30
0
0
VERTEX
8
8
6
CONTINUOUS
 10
.0585
 20
-1.014
 30
0
0
VERTEX
8
8
6
CONTINUOUS
 10
.0585
 20
-1.0454
 30
0
0
VERTEX
8
8
6
CONTINUOUS
 10
.1415
 20
-1.0454
 30
0
0
VERTEX
8
8
6
CONTINUOUS
 10
.1415
 20
-1.014
 30
0
0
VERTEX
8
8
6
CONTINUOUS
 10
.4235
 20
-1.014
 30
0
0
VERTEX
8
8
6
CONTINUOUS
 10
.4235
 20
-.9915
 30
0
0
VERTEX
8
8
6
CONTINUOUS
 10
.4545
 20
-.9915
 30
0
0
VERTEX
8
8
6
CONTINUOUS
 10
.4545
 20
-.9085
 30
0
0
VERTEX
8
8
6
CONTINUOUS
 10
.4235
 20
-.9085
 30
0
0
VERTEX
8
8
6
CONTINUOUS
 10
.4235
 20
-.8915
 30
0
0
VERTEX
8
8
6
CONTINUOUS
 10
.4545
 20
-.8915
 30
0
0
VERTEX
8
8
6
CONTINUOUS
 10
.4545
 20
-.8085
 30
0
0
VERTEX
8
8
6
CONTINUOUS
 10
.4235
 20
-.8085
 30
0
0
VERTEX
8
8
6
CONTINUOUS
 10
.4235
 20
-.7915
 30
0
0
VERTEX
8
8
6
CONTINUOUS
 10
.4545
 20
-.7915
 30
0
0
VERTEX
8
8
6
CONTINUOUS
 10
.4545
 20
-.7085
 30
0
0
VERTEX
8
8
6
CONTINUOUS
 10
.4235
 20
-.7085
 30
0
0
VERTEX
8
8
6
CONTINUOUS
 10
.4235
 20
-.6915
 30
0
0
VERTEX
8
8
6
CONTINUOUS
 10
.4545
 20
-.6915
 30
0
0
VERTEX
8
8
6
CONTINUOUS
 10
.4545
 20
-.6085
 30
0
0
VERTEX
8
8
6
CONTINUOUS
 10
.4235
 20
-.6085
 30
0
0
VERTEX
8
8
6
CONTINUOUS
 10
.4235
 20
-.5915
 30
0
0
VERTEX
8
8
6
CONTINUOUS
 10
.4545
 20
-.5915
 30
0
0
VERTEX
8
8
6
CONTINUOUS
 10
.4545
 20
-.5085
 30
0
0
VERTEX
8
8
6
CONTINUOUS
 10
.4235
 20
-.5085
 30
0
0
VERTEX
8
8
6
CONTINUOUS
 10
.4235
 20
-.4915
 30
0
0
VERTEX
8
8
6
CONTINUOUS
 10
.4545
 20
-.4915
 30
0
0
VERTEX
8
8
6
CONTINUOUS
 10
.4545
 20
-.4085
 30
0
0
VERTEX
8
8
6
CONTINUOUS
 10
.4235
 20
-.4085
 30
0
0
VERTEX
8
8
6
CONTINUOUS
 10
.4235
 20
-.3915
 30
0
0
VERTEX
8
8
6
CONTINUOUS
 10
.4545
 20
-.3915
 30
0
0
VERTEX
8
8
6
CONTINUOUS
 10
.4545
 20
-.3085
 30
0
0
VERTEX
8
8
6
CONTINUOUS
 10
.4235
 20
-.3085
 30
0
0
VERTEX
8
8
6
CONTINUOUS
 10
.4235
 20
-.2915
 30
0
0
VERTEX
8
8
6
CONTINUOUS
 10
.4545
 20
-.2915
 30
0
0
VERTEX
8
8
6
CONTINUOUS
 10
.4545
 20
-.2085
 30
0
0
VERTEX
8
8
6
CONTINUOUS
 10
.4235
 20
-.2085
 30
0
0
VERTEX
8
8
6
CONTINUOUS
 10
.4235
 20
-.1915
 30
0
0
VERTEX
8
8
6
CONTINUOUS
 10
.4545
 20
-.1915
 30
0
0
VERTEX
8
8
6
CONTINUOUS
 10
.4545
 20
-.1085
 30
0
0
VERTEX
8
8
6
CONTINUOUS
 10
.4235
 20
-.1085
 30
0
0
VERTEX
8
8
6
CONTINUOUS
 10
.4235
 20
-.0915
 30
0
0
VERTEX
8
8
6
CONTINUOUS
 10
.4545
 20
-.0915
 30
0
0
VERTEX
8
8
6
CONTINUOUS
 10
.4545
 20
-.0085
 30
0
0
VERTEX
8
8
6
CONTINUOUS
 10
.4235
 20
-.0085
 30
0
0
VERTEX
8
8
6
CONTINUOUS
 10
.4235
 20
.0085
 30
0
0
VERTEX
8
8
6
CONTINUOUS
 10
.4545
 20
.0085
 30
0
0
VERTEX
8
8
6
CONTINUOUS
 10
.4545
 20
.0915
 30
0
0
VERTEX
8
8
6
CONTINUOUS
 10
.4235
 20
.0915
 30
0
0
VERTEX
8
8
6
CONTINUOUS
 10
.4235
 20
.1085
 30
0
0
VERTEX
8
8
6
CONTINUOUS
 10
.4545
 20
.1085
 30
0
0
VERTEX
8
8
6
CONTINUOUS
 10
.4545
 20
.1915
 30
0
0
VERTEX
8
8
6
CONTINUOUS
 10
.4235
 20
.1915
 30
0
0
VERTEX
8
8
6
CONTINUOUS
 10
.4235
 20
.2085
 30
0
0
VERTEX
8
8
6
CONTINUOUS
 10
.4545
 20
.2085
 30
0
0
VERTEX
8
8
6
CONTINUOUS
 10
.4545
 20
.2915
 30
0
0
VERTEX
8
8
6
CONTINUOUS
 10
.4235
 20
.2915
 30
0
0
VERTEX
8
8
6
CONTINUOUS
 10
.4235
 20
.3085
 30
0
0
VERTEX
8
8
6
CONTINUOUS
 10
.4545
 20
.3085
 30
0
0
VERTEX
8
8
6
CONTINUOUS
 10
.4545
 20
.3915
 30
0
0
VERTEX
8
8
6
CONTINUOUS
 10
.4235
 20
.3915
 30
0
0
VERTEX
8
8
6
CONTINUOUS
 10
.4235
 20
.4085
 30
0
0
VERTEX
8
8
6
CONTINUOUS
 10
.4545
 20
.4085
 30
0
0
VERTEX
8
8
6
CONTINUOUS
 10
.4545
 20
.4915
 30
0
0
VERTEX
8
8
6
CONTINUOUS
 10
.4235
 20
.4915
 30
0
0
VERTEX
8
8
6
CONTINUOUS
 10
.4235
 20
.5085
 30
0
0
VERTEX
8
8
6
CONTINUOUS
 10
.4545
 20
.5085
 30
0
0
VERTEX
8
8
6
CONTINUOUS
 10
.4545
 20
.5915
 30
0
0
VERTEX
8
8
6
CONTINUOUS
 10
.4235
 20
.5915
 30
0
0
VERTEX
8
8
6
CONTINUOUS
 10
.4235
 20
.6085
 30
0
0
VERTEX
8
8
6
CONTINUOUS
 10
.4545
 20
.6085
 30
0
0
VERTEX
8
8
6
CONTINUOUS
 10
.4545
 20
.6915
 30
0
0
VERTEX
8
8
6
CONTINUOUS
 10
.4235
 20
.6915
 30
0
0
VERTEX
8
8
6
CONTINUOUS
 10
.4235
 20
.7085
 30
0
0
VERTEX
8
8
6
CONTINUOUS
 10
.4545
 20
.7085
 30
0
0
VERTEX
8
8
6
CONTINUOUS
 10
.4545
 20
.7915
 30
0
0
VERTEX
8
8
6
CONTINUOUS
 10
.4235
 20
.7915
 30
0
0
VERTEX
8
8
6
CONTINUOUS
 10
.4235
 20
.8085
 30
0
0
VERTEX
8
8
6
CONTINUOUS
 10
.4545
 20
.8085
 30
0
0
VERTEX
8
8
6
CONTINUOUS
 10
.4545
 20
.8915
 30
0
0
VERTEX
8
8
6
CONTINUOUS
 10
.4235
 20
.8915
 30
0
0
VERTEX
8
8
6
CONTINUOUS
 10
.4235
 20
.9085
 30
0
0
VERTEX
8
8
6
CONTINUOUS
 10
.4545
 20
.9085
 30
0
0
VERTEX
8
8
6
CONTINUOUS
 10
.4545
 20
.9915
 30
0
0
VERTEX
8
8
6
CONTINUOUS
 10
.4235
 20
.9915
 30
0
0
VERTEX
8
8
6
CONTINUOUS
 10
.4235
 20
1.014
 30
0
0
VERTEX
8
8
6
CONTINUOUS
 10
.1675
 20
1.014
 30
0
0
VERTEX
8
8
6
CONTINUOUS
 10
.1675
 20
1.065
 30
0
0
VERTEX
8
8
6
CONTINUOUS
 10
-.1675
 20
1.065
 30
0
0
VERTEX
8
8
6
CONTINUOUS
 10
-.1675
 20
1.014
 30
0
0
VERTEX
8
8
6
CONTINUOUS
 10
-.4235
 20
1.014
 30
0
0
VERTEX
8
8
6
CONTINUOUS
 10
-.4235
 20
.9915
 30
0
0
VERTEX
8
8
6
CONTINUOUS
 10
-.4545
 20
.9915
 30
0
0
VERTEX
8
8
6
CONTINUOUS
 10
-.4545
 20
.9085
 30
0
0
VERTEX
8
8
6
CONTINUOUS
 10
-.4235
 20
.9085
 30
0
0
VERTEX
8
8
6
CONTINUOUS
 10
-.4235
 20
.8915
 30
0
0
VERTEX
8
8
6
CONTINUOUS
 10
-.4545
 20
.8915
 30
0
0
VERTEX
8
8
6
CONTINUOUS
 10
-.4545
 20
.8085
 30
0
0
VERTEX
8
8
6
CONTINUOUS
 10
-.4235
 20
.8085
 30
0
0
VERTEX
8
8
6
CONTINUOUS
 10
-.4235
 20
.7915
 30
0
0
VERTEX
8
8
6
CONTINUOUS
 10
-.4545
 20
.7915
 30
0
0
VERTEX
8
8
6
CONTINUOUS
 10
-.4545
 20
.7085
 30
0
0
VERTEX
8
8
6
CONTINUOUS
 10
-.4235
 20
.7085
 30
0
0
VERTEX
8
8
6
CONTINUOUS
 10
-.4235
 20
.6915
 30
0
0
VERTEX
8
8
6
CONTINUOUS
 10
-.4545
 20
.6915
 30
0
0
VERTEX
8
8
6
CONTINUOUS
 10
-.4545
 20
.6085
 30
0
0
VERTEX
8
8
6
CONTINUOUS
 10
-.4235
 20
.6085
 30
0
0
VERTEX
8
8
6
CONTINUOUS
 10
-.4235
 20
.5915
 30
0
0
VERTEX
8
8
6
CONTINUOUS
 10
-.4545
 20
.5915
 30
0
0
VERTEX
8
8
6
CONTINUOUS
 10
-.4545
 20
.5085
 30
0
0
VERTEX
8
8
6
CONTINUOUS
 10
-.4235
 20
.5085
 30
0
0
VERTEX
8
8
6
CONTINUOUS
 10
-.4235
 20
.4915
 30
0
0
VERTEX
8
8
6
CONTINUOUS
 10
-.4545
 20
.4915
 30
0
0
VERTEX
8
8
6
CONTINUOUS
 10
-.4545
 20
.4085
 30
0
0
VERTEX
8
8
6
CONTINUOUS
 10
-.4235
 20
.4085
 30
0
0
VERTEX
8
8
6
CONTINUOUS
 10
-.4235
 20
.3915
 30
0
0
VERTEX
8
8
6
CONTINUOUS
 10
-.4545
 20
.3915
 30
0
0
VERTEX
8
8
6
CONTINUOUS
 10
-.4545
 20
.3085
 30
0
0
VERTEX
8
8
6
CONTINUOUS
 10
-.4235
 20
.3085
 30
0
0
VERTEX
8
8
6
CONTINUOUS
 10
-.4235
 20
.2915
 30
0
0
VERTEX
8
8
6
CONTINUOUS
 10
-.4545
 20
.2915
 30
0
0
VERTEX
8
8
6
CONTINUOUS
 10
-.4545
 20
.2085
 30
0
0
VERTEX
8
8
6
CONTINUOUS
 10
-.4235
 20
.2085
 30
0
0
VERTEX
8
8
6
CONTINUOUS
 10
-.4235
 20
.1915
 30
0
0
VERTEX
8
8
6
CONTINUOUS
 10
-.4545
 20
.1915
 30
0
0
VERTEX
8
8
6
CONTINUOUS
 10
-.4545
 20
.1085
 30
0
0
VERTEX
8
8
6
CONTINUOUS
 10
-.4235
 20
.1085
 30
0
0
VERTEX
8
8
6
CONTINUOUS
 10
-.4235
 20
.0915
 30
0
0
VERTEX
8
8
6
CONTINUOUS
 10
-.4545
 20
.0915
 30
0
0
VERTEX
8
8
6
CONTINUOUS
 10
-.4545
 20
.0085
 30
0
0
VERTEX
8
8
6
CONTINUOUS
 10
-.4235
 20
.0085
 30
0
0
VERTEX
8
8
6
CONTINUOUS
 10
-.4235
 20
-.0085
 30
0
0
VERTEX
8
8
6
CONTINUOUS
 10
-.4545
 20
-.0085
 30
0
0
VERTEX
8
8
6
CONTINUOUS
 10
-.4545
 20
-.0915
 30
0
0
VERTEX
8
8
6
CONTINUOUS
 10
-.4235
 20
-.0915
 30
0
0
VERTEX
8
8
6
CONTINUOUS
 10
-.4235
 20
-.1085
 30
0
0
VERTEX
8
8
6
CONTINUOUS
 10
-.4545
 20
-.1085
 30
0
0
VERTEX
8
8
6
CONTINUOUS
 10
-.4545
 20
-.1915
 30
0
0
SEQEND
0
ENDBLK
0
ENDSEC
0
SECTION
2
ENTITIES
 0
INSERT
 8
0
 2
SC0915_RPI
 10
0
 20
0
 30
0
 41
1
 42
1
 43
1
0
ENDSEC
 0
EOF

