 999
VISION3D DXF
0
SECTION
2
HEADER
0
ENDSEC
0
SECTION
2
TABLES
0
ENDSEC
0
SECTION
2
BLOCKS
 0
BLOCK
 70
0
 2
TOP_PLACE_BOUND_Polygon_69
 10
0
 20
0
 30
0
0
3DFACE
8
8
 62
8
 10
-0.23150001099566
 20
-0.190500009048264
 30
0
 11
-0.23150001099566
 21
0.190500009048264
 31
0
 12
-0.147000006982125
 22
0.190500009048264
 32
0
 13
-0.147000006982125
 23
0.190500009048264
 33
0
0
3DFACE
8
8
 62
8
 10
-0.23150001099566
 20
-0.190500009048264
 30
0
 11
-0.147000006982125
 21
0.190500009048264
 31
0
 12
0.147000006982125
 22
0.214000010164455
 32
0
 13
0.147000006982125
 23
0.214000010164455
 33
0
0
3DFACE
8
8
 62
8
 10
-0.147000006982125
 20
0.190500009048264
 30
0
 11
-0.147000006982125
 21
0.214000010164455
 31
0
 12
0.147000006982125
 22
0.214000010164455
 32
0
 13
0.147000006982125
 23
0.214000010164455
 33
0
0
3DFACE
8
8
 62
8
 10
-0.23150001099566
 20
-0.190500009048264
 30
0
 11
0.147000006982125
 21
0.214000010164455
 31
0
 12
0.147000006982125
 22
0.190500009048264
 32
0
 13
0.147000006982125
 23
0.190500009048264
 33
0
0
3DFACE
8
8
 62
8
 10
-0.23150001099566
 20
-0.190500009048264
 30
0
 11
0.147000006982125
 21
0.190500009048264
 31
0
 12
0.23150001099566
 22
0.190500009048264
 32
0
 13
0.23150001099566
 23
0.190500009048264
 33
0
0
3DFACE
8
8
 62
8
 10
-0.23150001099566
 20
-0.190500009048264
 30
0
 11
0.23150001099566
 21
0.190500009048264
 31
0
 12
-0.147000006982125
 22
-0.190500009048264
 32
0
 13
-0.147000006982125
 23
-0.190500009048264
 33
0
0
3DFACE
8
8
 62
8
 10
0.23150001099566
 20
0.190500009048264
 30
0
 11
0.23150001099566
 21
-0.190500009048264
 31
0
 12
0.147000006982125
 22
-0.190500009048264
 32
0
 13
0.147000006982125
 23
-0.190500009048264
 33
0
0
3DFACE
8
8
 62
8
 10
0.23150001099566
 20
0.190500009048264
 30
0
 11
0.147000006982125
 21
-0.190500009048264
 31
0
 12
-0.147000006982125
 22
-0.214000010164455
 32
0
 13
-0.147000006982125
 23
-0.214000010164455
 33
0
0
3DFACE
8
8
 62
8
 10
0.147000006982125
 20
-0.190500009048264
 30
0
 11
0.147000006982125
 21
-0.214000010164455
 31
0
 12
-0.147000006982125
 22
-0.214000010164455
 32
0
 13
-0.147000006982125
 23
-0.214000010164455
 33
0
0
3DFACE
8
8
 62
8
 10
0.23150001099566
 20
0.190500009048264
 30
0
 11
-0.147000006982125
 21
-0.214000010164455
 31
0
 12
-0.147000006982125
 22
-0.190500009048264
 32
0
 13
-0.147000006982125
 23
-0.190500009048264
 33
0
0
3DFACE
8
8
 62
8
 10
-0.23150001099566
 20
-0.190500009048264
 30
0.116000005509704
 11
-0.23150001099566
 21
0.190500009048264
 31
0.116000005509704
 12
-0.147000006982125
 22
0.190500009048264
 32
0.116000005509704
 13
-0.147000006982125
 23
0.190500009048264
 33
0.116000005509704
0
3DFACE
8
8
 62
8
 10
-0.23150001099566
 20
-0.190500009048264
 30
0.116000005509704
 11
-0.147000006982125
 21
0.190500009048264
 31
0.116000005509704
 12
0.147000006982125
 22
0.214000010164455
 32
0.116000005509704
 13
0.147000006982125
 23
0.214000010164455
 33
0.116000005509704
0
3DFACE
8
8
 62
8
 10
-0.147000006982125
 20
0.190500009048264
 30
0.116000005509704
 11
-0.147000006982125
 21
0.214000010164455
 31
0.116000005509704
 12
0.147000006982125
 22
0.214000010164455
 32
0.116000005509704
 13
0.147000006982125
 23
0.214000010164455
 33
0.116000005509704
0
3DFACE
8
8
 62
8
 10
-0.23150001099566
 20
-0.190500009048264
 30
0.116000005509704
 11
0.147000006982125
 21
0.214000010164455
 31
0.116000005509704
 12
0.147000006982125
 22
0.190500009048264
 32
0.116000005509704
 13
0.147000006982125
 23
0.190500009048264
 33
0.116000005509704
0
3DFACE
8
8
 62
8
 10
-0.23150001099566
 20
-0.190500009048264
 30
0.116000005509704
 11
0.147000006982125
 21
0.190500009048264
 31
0.116000005509704
 12
0.23150001099566
 22
0.190500009048264
 32
0.116000005509704
 13
0.23150001099566
 23
0.190500009048264
 33
0.116000005509704
0
3DFACE
8
8
 62
8
 10
-0.23150001099566
 20
-0.190500009048264
 30
0.116000005509704
 11
0.23150001099566
 21
0.190500009048264
 31
0.116000005509704
 12
-0.147000006982125
 22
-0.190500009048264
 32
0.116000005509704
 13
-0.147000006982125
 23
-0.190500009048264
 33
0.116000005509704
0
3DFACE
8
8
 62
8
 10
0.23150001099566
 20
0.190500009048264
 30
0.116000005509704
 11
0.23150001099566
 21
-0.190500009048264
 31
0.116000005509704
 12
0.147000006982125
 22
-0.190500009048264
 32
0.116000005509704
 13
0.147000006982125
 23
-0.190500009048264
 33
0.116000005509704
0
3DFACE
8
8
 62
8
 10
0.23150001099566
 20
0.190500009048264
 30
0.116000005509704
 11
0.147000006982125
 21
-0.190500009048264
 31
0.116000005509704
 12
-0.147000006982125
 22
-0.214000010164455
 32
0.116000005509704
 13
-0.147000006982125
 23
-0.214000010164455
 33
0.116000005509704
0
3DFACE
8
8
 62
8
 10
0.147000006982125
 20
-0.190500009048264
 30
0.116000005509704
 11
0.147000006982125
 21
-0.214000010164455
 31
0.116000005509704
 12
-0.147000006982125
 22
-0.214000010164455
 32
0.116000005509704
 13
-0.147000006982125
 23
-0.214000010164455
 33
0.116000005509704
0
3DFACE
8
8
 62
8
 10
0.23150001099566
 20
0.190500009048264
 30
0.116000005509704
 11
-0.147000006982125
 21
-0.214000010164455
 31
0.116000005509704
 12
-0.147000006982125
 22
-0.190500009048264
 32
0.116000005509704
 13
-0.147000006982125
 23
-0.190500009048264
 33
0.116000005509704
0
3DFACE
8
8
 62
8
 10
-0.147000006982125
 20
-0.190500009048264
 30
0
 11
-0.23150001099566
 21
-0.190500009048264
 31
0
 12
-0.23150001099566
 22
-0.190500009048264
 32
0.116000005509704
 13
-0.147000006982125
 23
-0.190500009048264
 33
0.116000005509704
0
3DFACE
8
8
 62
8
 10
-0.23150001099566
 20
-0.190500009048264
 30
0
 11
-0.23150001099566
 21
0.190500009048264
 31
0
 12
-0.23150001099566
 22
0.190500009048264
 32
0.116000005509704
 13
-0.23150001099566
 23
-0.190500009048264
 33
0.116000005509704
0
3DFACE
8
8
 62
8
 10
-0.23150001099566
 20
0.190500009048264
 30
0
 11
-0.147000006982125
 21
0.190500009048264
 31
0
 12
-0.147000006982125
 22
0.190500009048264
 32
0.116000005509704
 13
-0.23150001099566
 23
0.190500009048264
 33
0.116000005509704
0
3DFACE
8
8
 62
8
 10
-0.147000006982125
 20
0.190500009048264
 30
0
 11
-0.147000006982125
 21
0.214000010164455
 31
0
 12
-0.147000006982125
 22
0.214000010164455
 32
0.116000005509704
 13
-0.147000006982125
 23
0.190500009048264
 33
0.116000005509704
0
3DFACE
8
8
 62
8
 10
-0.147000006982125
 20
0.214000010164455
 30
0
 11
0.147000006982125
 21
0.214000010164455
 31
0
 12
0.147000006982125
 22
0.214000010164455
 32
0.116000005509704
 13
-0.147000006982125
 23
0.214000010164455
 33
0.116000005509704
0
3DFACE
8
8
 62
8
 10
0.147000006982125
 20
0.214000010164455
 30
0
 11
0.147000006982125
 21
0.190500009048264
 31
0
 12
0.147000006982125
 22
0.190500009048264
 32
0.116000005509704
 13
0.147000006982125
 23
0.214000010164455
 33
0.116000005509704
0
3DFACE
8
8
 62
8
 10
0.147000006982125
 20
0.190500009048264
 30
0
 11
0.23150001099566
 21
0.190500009048264
 31
0
 12
0.23150001099566
 22
0.190500009048264
 32
0.116000005509704
 13
0.147000006982125
 23
0.190500009048264
 33
0.116000005509704
0
3DFACE
8
8
 62
8
 10
0.23150001099566
 20
0.190500009048264
 30
0
 11
0.23150001099566
 21
-0.190500009048264
 31
0
 12
0.23150001099566
 22
-0.190500009048264
 32
0.116000005509704
 13
0.23150001099566
 23
0.190500009048264
 33
0.116000005509704
0
3DFACE
8
8
 62
8
 10
0.23150001099566
 20
-0.190500009048264
 30
0
 11
0.147000006982125
 21
-0.190500009048264
 31
0
 12
0.147000006982125
 22
-0.190500009048264
 32
0.116000005509704
 13
0.23150001099566
 23
-0.190500009048264
 33
0.116000005509704
0
3DFACE
8
8
 62
8
 10
0.147000006982125
 20
-0.190500009048264
 30
0
 11
0.147000006982125
 21
-0.214000010164455
 31
0
 12
0.147000006982125
 22
-0.214000010164455
 32
0.116000005509704
 13
0.147000006982125
 23
-0.190500009048264
 33
0.116000005509704
0
3DFACE
8
8
 62
8
 10
0.147000006982125
 20
-0.214000010164455
 30
0
 11
-0.147000006982125
 21
-0.214000010164455
 31
0
 12
-0.147000006982125
 22
-0.214000010164455
 32
0.116000005509704
 13
0.147000006982125
 23
-0.214000010164455
 33
0.116000005509704
0
3DFACE
8
8
 62
8
 10
-0.147000006982125
 20
-0.214000010164455
 30
0
 11
-0.147000006982125
 21
-0.190500009048264
 31
0
 12
-0.147000006982125
 22
-0.190500009048264
 32
0.116000005509704
 13
-0.147000006982125
 23
-0.214000010164455
 33
0.116000005509704
 0
ENDBLK
 0
BLOCK
 70
0
 2
TOP_VALOR_Polygon_87
 10
0
 20
0
 30
0
0
3DFACE
8
23
 62
23
 10
-0.236500011233147
 20
-0.20400000968948
 30
0
 11
-0.236500011233147
 21
0.20400000968948
 31
0
 12
0.236500011233147
 22
0.20400000968948
 32
0
 13
0.236500011233147
 23
-0.20400000968948
 33
0
0
3DFACE
8
23
 62
23
 10
-0.236500011233147
 20
-0.20400000968948
 30
0.116000005509704
 11
-0.236500011233147
 21
0.20400000968948
 31
0.116000005509704
 12
0.236500011233147
 22
0.20400000968948
 32
0.116000005509704
 13
0.236500011233147
 23
-0.20400000968948
 33
0.116000005509704
0
3DFACE
8
23
 62
23
 10
0.236500011233147
 20
-0.20400000968948
 30
0
 11
-0.236500011233147
 21
-0.20400000968948
 31
0
 12
-0.236500011233147
 22
-0.20400000968948
 32
0.116000005509704
 13
0.236500011233147
 23
-0.20400000968948
 33
0.116000005509704
0
3DFACE
8
23
 62
23
 10
-0.236500011233147
 20
-0.20400000968948
 30
0
 11
-0.236500011233147
 21
0.20400000968948
 31
0
 12
-0.236500011233147
 22
0.20400000968948
 32
0.116000005509704
 13
-0.236500011233147
 23
-0.20400000968948
 33
0.116000005509704
0
3DFACE
8
23
 62
23
 10
-0.236500011233147
 20
0.20400000968948
 30
0
 11
0.236500011233147
 21
0.20400000968948
 31
0
 12
0.236500011233147
 22
0.20400000968948
 32
0.116000005509704
 13
-0.236500011233147
 23
0.20400000968948
 33
0.116000005509704
0
3DFACE
8
23
 62
23
 10
0.236500011233147
 20
0.20400000968948
 30
0
 11
0.236500011233147
 21
-0.20400000968948
 31
0
 12
0.236500011233147
 22
-0.20400000968948
 32
0.116000005509704
 13
0.236500011233147
 23
0.20400000968948
 33
0.116000005509704
 0
ENDBLK
0
ENDSEC
0
SECTION
2
ENTITIES
 0
INSERT
 8
8
 2
TOP_PLACE_BOUND_Polygon_69
 10
0
 20
0
 30
0
 41
1
 42
1
 43
1
 0
INSERT
 8
23
 2
TOP_VALOR_Polygon_87
 10
0
 20
0
 30
0
 41
1
 42
1
 43
1
0
ENDSEC
 0
EOF

