 999
VISION3D DXF
0
SECTION
2
HEADER
0
ENDSEC
0
SECTION
2
TABLES
0
ENDSEC
0
SECTION
2
BLOCKS
 0
BLOCK
 70
0
 2
TOP_PLACE_BOUND_Polygon_69
 10
0
 20
0
 30
0
0
3DFACE
8
8
 62
8
 10
-0.213500010140706
 20
-0.18050000857329
 30
0
 11
-0.213500010140706
 21
0.18050000857329
 31
0
 12
-0.137000006507151
 22
0.18050000857329
 32
0
 13
-0.137000006507151
 23
0.18050000857329
 33
0
0
3DFACE
8
8
 62
8
 10
-0.213500010140706
 20
-0.18050000857329
 30
0
 11
-0.137000006507151
 21
0.18050000857329
 31
0
 12
0.137000006507151
 22
0.20400000968948
 32
0
 13
0.137000006507151
 23
0.20400000968948
 33
0
0
3DFACE
8
8
 62
8
 10
-0.137000006507151
 20
0.18050000857329
 30
0
 11
-0.137000006507151
 21
0.20400000968948
 31
0
 12
0.137000006507151
 22
0.20400000968948
 32
0
 13
0.137000006507151
 23
0.20400000968948
 33
0
0
3DFACE
8
8
 62
8
 10
-0.213500010140706
 20
-0.18050000857329
 30
0
 11
0.137000006507151
 21
0.20400000968948
 31
0
 12
0.137000006507151
 22
0.18050000857329
 32
0
 13
0.137000006507151
 23
0.18050000857329
 33
0
0
3DFACE
8
8
 62
8
 10
-0.213500010140706
 20
-0.18050000857329
 30
0
 11
0.137000006507151
 21
0.18050000857329
 31
0
 12
0.213500010140706
 22
0.18050000857329
 32
0
 13
0.213500010140706
 23
0.18050000857329
 33
0
0
3DFACE
8
8
 62
8
 10
-0.213500010140706
 20
-0.18050000857329
 30
0
 11
0.213500010140706
 21
0.18050000857329
 31
0
 12
-0.137000006507151
 22
-0.18050000857329
 32
0
 13
-0.137000006507151
 23
-0.18050000857329
 33
0
0
3DFACE
8
8
 62
8
 10
0.213500010140706
 20
0.18050000857329
 30
0
 11
0.213500010140706
 21
-0.18050000857329
 31
0
 12
0.137000006507151
 22
-0.18050000857329
 32
0
 13
0.137000006507151
 23
-0.18050000857329
 33
0
0
3DFACE
8
8
 62
8
 10
0.213500010140706
 20
0.18050000857329
 30
0
 11
0.137000006507151
 21
-0.18050000857329
 31
0
 12
-0.137000006507151
 22
-0.20400000968948
 32
0
 13
-0.137000006507151
 23
-0.20400000968948
 33
0
0
3DFACE
8
8
 62
8
 10
0.137000006507151
 20
-0.18050000857329
 30
0
 11
0.137000006507151
 21
-0.20400000968948
 31
0
 12
-0.137000006507151
 22
-0.20400000968948
 32
0
 13
-0.137000006507151
 23
-0.20400000968948
 33
0
0
3DFACE
8
8
 62
8
 10
0.213500010140706
 20
0.18050000857329
 30
0
 11
-0.137000006507151
 21
-0.20400000968948
 31
0
 12
-0.137000006507151
 22
-0.18050000857329
 32
0
 13
-0.137000006507151
 23
-0.18050000857329
 33
0
0
3DFACE
8
8
 62
8
 10
-0.213500010140706
 20
-0.18050000857329
 30
0.116000005509704
 11
-0.213500010140706
 21
0.18050000857329
 31
0.116000005509704
 12
-0.137000006507151
 22
0.18050000857329
 32
0.116000005509704
 13
-0.137000006507151
 23
0.18050000857329
 33
0.116000005509704
0
3DFACE
8
8
 62
8
 10
-0.213500010140706
 20
-0.18050000857329
 30
0.116000005509704
 11
-0.137000006507151
 21
0.18050000857329
 31
0.116000005509704
 12
0.137000006507151
 22
0.20400000968948
 32
0.116000005509704
 13
0.137000006507151
 23
0.20400000968948
 33
0.116000005509704
0
3DFACE
8
8
 62
8
 10
-0.137000006507151
 20
0.18050000857329
 30
0.116000005509704
 11
-0.137000006507151
 21
0.20400000968948
 31
0.116000005509704
 12
0.137000006507151
 22
0.20400000968948
 32
0.116000005509704
 13
0.137000006507151
 23
0.20400000968948
 33
0.116000005509704
0
3DFACE
8
8
 62
8
 10
-0.213500010140706
 20
-0.18050000857329
 30
0.116000005509704
 11
0.137000006507151
 21
0.20400000968948
 31
0.116000005509704
 12
0.137000006507151
 22
0.18050000857329
 32
0.116000005509704
 13
0.137000006507151
 23
0.18050000857329
 33
0.116000005509704
0
3DFACE
8
8
 62
8
 10
-0.213500010140706
 20
-0.18050000857329
 30
0.116000005509704
 11
0.137000006507151
 21
0.18050000857329
 31
0.116000005509704
 12
0.213500010140706
 22
0.18050000857329
 32
0.116000005509704
 13
0.213500010140706
 23
0.18050000857329
 33
0.116000005509704
0
3DFACE
8
8
 62
8
 10
-0.213500010140706
 20
-0.18050000857329
 30
0.116000005509704
 11
0.213500010140706
 21
0.18050000857329
 31
0.116000005509704
 12
-0.137000006507151
 22
-0.18050000857329
 32
0.116000005509704
 13
-0.137000006507151
 23
-0.18050000857329
 33
0.116000005509704
0
3DFACE
8
8
 62
8
 10
0.213500010140706
 20
0.18050000857329
 30
0.116000005509704
 11
0.213500010140706
 21
-0.18050000857329
 31
0.116000005509704
 12
0.137000006507151
 22
-0.18050000857329
 32
0.116000005509704
 13
0.137000006507151
 23
-0.18050000857329
 33
0.116000005509704
0
3DFACE
8
8
 62
8
 10
0.213500010140706
 20
0.18050000857329
 30
0.116000005509704
 11
0.137000006507151
 21
-0.18050000857329
 31
0.116000005509704
 12
-0.137000006507151
 22
-0.20400000968948
 32
0.116000005509704
 13
-0.137000006507151
 23
-0.20400000968948
 33
0.116000005509704
0
3DFACE
8
8
 62
8
 10
0.137000006507151
 20
-0.18050000857329
 30
0.116000005509704
 11
0.137000006507151
 21
-0.20400000968948
 31
0.116000005509704
 12
-0.137000006507151
 22
-0.20400000968948
 32
0.116000005509704
 13
-0.137000006507151
 23
-0.20400000968948
 33
0.116000005509704
0
3DFACE
8
8
 62
8
 10
0.213500010140706
 20
0.18050000857329
 30
0.116000005509704
 11
-0.137000006507151
 21
-0.20400000968948
 31
0.116000005509704
 12
-0.137000006507151
 22
-0.18050000857329
 32
0.116000005509704
 13
-0.137000006507151
 23
-0.18050000857329
 33
0.116000005509704
0
3DFACE
8
8
 62
8
 10
-0.137000006507151
 20
-0.18050000857329
 30
0
 11
-0.213500010140706
 21
-0.18050000857329
 31
0
 12
-0.213500010140706
 22
-0.18050000857329
 32
0.116000005509704
 13
-0.137000006507151
 23
-0.18050000857329
 33
0.116000005509704
0
3DFACE
8
8
 62
8
 10
-0.213500010140706
 20
-0.18050000857329
 30
0
 11
-0.213500010140706
 21
0.18050000857329
 31
0
 12
-0.213500010140706
 22
0.18050000857329
 32
0.116000005509704
 13
-0.213500010140706
 23
-0.18050000857329
 33
0.116000005509704
0
3DFACE
8
8
 62
8
 10
-0.213500010140706
 20
0.18050000857329
 30
0
 11
-0.137000006507151
 21
0.18050000857329
 31
0
 12
-0.137000006507151
 22
0.18050000857329
 32
0.116000005509704
 13
-0.213500010140706
 23
0.18050000857329
 33
0.116000005509704
0
3DFACE
8
8
 62
8
 10
-0.137000006507151
 20
0.18050000857329
 30
0
 11
-0.137000006507151
 21
0.20400000968948
 31
0
 12
-0.137000006507151
 22
0.20400000968948
 32
0.116000005509704
 13
-0.137000006507151
 23
0.18050000857329
 33
0.116000005509704
0
3DFACE
8
8
 62
8
 10
-0.137000006507151
 20
0.20400000968948
 30
0
 11
0.137000006507151
 21
0.20400000968948
 31
0
 12
0.137000006507151
 22
0.20400000968948
 32
0.116000005509704
 13
-0.137000006507151
 23
0.20400000968948
 33
0.116000005509704
0
3DFACE
8
8
 62
8
 10
0.137000006507151
 20
0.20400000968948
 30
0
 11
0.137000006507151
 21
0.18050000857329
 31
0
 12
0.137000006507151
 22
0.18050000857329
 32
0.116000005509704
 13
0.137000006507151
 23
0.20400000968948
 33
0.116000005509704
0
3DFACE
8
8
 62
8
 10
0.137000006507151
 20
0.18050000857329
 30
0
 11
0.213500010140706
 21
0.18050000857329
 31
0
 12
0.213500010140706
 22
0.18050000857329
 32
0.116000005509704
 13
0.137000006507151
 23
0.18050000857329
 33
0.116000005509704
0
3DFACE
8
8
 62
8
 10
0.213500010140706
 20
0.18050000857329
 30
0
 11
0.213500010140706
 21
-0.18050000857329
 31
0
 12
0.213500010140706
 22
-0.18050000857329
 32
0.116000005509704
 13
0.213500010140706
 23
0.18050000857329
 33
0.116000005509704
0
3DFACE
8
8
 62
8
 10
0.213500010140706
 20
-0.18050000857329
 30
0
 11
0.137000006507151
 21
-0.18050000857329
 31
0
 12
0.137000006507151
 22
-0.18050000857329
 32
0.116000005509704
 13
0.213500010140706
 23
-0.18050000857329
 33
0.116000005509704
0
3DFACE
8
8
 62
8
 10
0.137000006507151
 20
-0.18050000857329
 30
0
 11
0.137000006507151
 21
-0.20400000968948
 31
0
 12
0.137000006507151
 22
-0.20400000968948
 32
0.116000005509704
 13
0.137000006507151
 23
-0.18050000857329
 33
0.116000005509704
0
3DFACE
8
8
 62
8
 10
0.137000006507151
 20
-0.20400000968948
 30
0
 11
-0.137000006507151
 21
-0.20400000968948
 31
0
 12
-0.137000006507151
 22
-0.20400000968948
 32
0.116000005509704
 13
0.137000006507151
 23
-0.20400000968948
 33
0.116000005509704
0
3DFACE
8
8
 62
8
 10
-0.137000006507151
 20
-0.20400000968948
 30
0
 11
-0.137000006507151
 21
-0.18050000857329
 31
0
 12
-0.137000006507151
 22
-0.18050000857329
 32
0.116000005509704
 13
-0.137000006507151
 23
-0.20400000968948
 33
0.116000005509704
 0
ENDBLK
 0
BLOCK
 70
0
 2
TOP_VALOR_Polygon_87
 10
0
 20
0
 30
0
0
3DFACE
8
23
 62
23
 10
-0.228500010853168
 20
-0.20400000968948
 30
0
 11
-0.228500010853168
 21
0.20400000968948
 31
0
 12
0.228500010853168
 22
0.20400000968948
 32
0
 13
0.228500010853168
 23
-0.20400000968948
 33
0
0
3DFACE
8
23
 62
23
 10
-0.228500010853168
 20
-0.20400000968948
 30
0.116000005509704
 11
-0.228500010853168
 21
0.20400000968948
 31
0.116000005509704
 12
0.228500010853168
 22
0.20400000968948
 32
0.116000005509704
 13
0.228500010853168
 23
-0.20400000968948
 33
0.116000005509704
0
3DFACE
8
23
 62
23
 10
0.228500010853168
 20
-0.20400000968948
 30
0
 11
-0.228500010853168
 21
-0.20400000968948
 31
0
 12
-0.228500010853168
 22
-0.20400000968948
 32
0.116000005509704
 13
0.228500010853168
 23
-0.20400000968948
 33
0.116000005509704
0
3DFACE
8
23
 62
23
 10
-0.228500010853168
 20
-0.20400000968948
 30
0
 11
-0.228500010853168
 21
0.20400000968948
 31
0
 12
-0.228500010853168
 22
0.20400000968948
 32
0.116000005509704
 13
-0.228500010853168
 23
-0.20400000968948
 33
0.116000005509704
0
3DFACE
8
23
 62
23
 10
-0.228500010853168
 20
0.20400000968948
 30
0
 11
0.228500010853168
 21
0.20400000968948
 31
0
 12
0.228500010853168
 22
0.20400000968948
 32
0.116000005509704
 13
-0.228500010853168
 23
0.20400000968948
 33
0.116000005509704
0
3DFACE
8
23
 62
23
 10
0.228500010853168
 20
0.20400000968948
 30
0
 11
0.228500010853168
 21
-0.20400000968948
 31
0
 12
0.228500010853168
 22
-0.20400000968948
 32
0.116000005509704
 13
0.228500010853168
 23
0.20400000968948
 33
0.116000005509704
 0
ENDBLK
0
ENDSEC
0
SECTION
2
ENTITIES
 0
INSERT
 8
8
 2
TOP_PLACE_BOUND_Polygon_69
 10
0
 20
0
 30
0
 41
1
 42
1
 43
1
 0
INSERT
 8
23
 2
TOP_VALOR_Polygon_87
 10
0
 20
0
 30
0
 41
1
 42
1
 43
1
0
ENDSEC
 0
EOF

