 999
VISION3D DXF
0
SECTION
2
HEADER
0
ENDSEC
0
SECTION
2
TABLES
0
ENDSEC
0
SECTION
2
BLOCKS
 0
BLOCK
 70
0
 2
TOP_PLACE_BOUND_Polygon_69
 10
0
 20
0
 30
0
0
3DFACE
8
8
 62
8
 10
-0.199500009475742
 20
-0.173500008240808
 30
0
 11
-0.199500009475742
 21
0.173500008240808
 31
0
 12
-0.131000006222166
 22
0.173500008240808
 32
0
 13
-0.131000006222166
 23
0.173500008240808
 33
0
0
3DFACE
8
8
 62
8
 10
-0.199500009475742
 20
-0.173500008240808
 30
0
 11
-0.131000006222166
 21
0.173500008240808
 31
0
 12
0.131000006222166
 22
0.198000009404495
 32
0
 13
0.131000006222166
 23
0.198000009404495
 33
0
0
3DFACE
8
8
 62
8
 10
-0.131000006222166
 20
0.173500008240808
 30
0
 11
-0.131000006222166
 21
0.198000009404495
 31
0
 12
0.131000006222166
 22
0.198000009404495
 32
0
 13
0.131000006222166
 23
0.198000009404495
 33
0
0
3DFACE
8
8
 62
8
 10
-0.199500009475742
 20
-0.173500008240808
 30
0
 11
0.131000006222166
 21
0.198000009404495
 31
0
 12
0.131000006222166
 22
0.173500008240808
 32
0
 13
0.131000006222166
 23
0.173500008240808
 33
0
0
3DFACE
8
8
 62
8
 10
-0.199500009475742
 20
-0.173500008240808
 30
0
 11
0.131000006222166
 21
0.173500008240808
 31
0
 12
0.199500009475742
 22
0.173500008240808
 32
0
 13
0.199500009475742
 23
0.173500008240808
 33
0
0
3DFACE
8
8
 62
8
 10
-0.199500009475742
 20
-0.173500008240808
 30
0
 11
0.199500009475742
 21
0.173500008240808
 31
0
 12
-0.131000006222166
 22
-0.173500008240808
 32
0
 13
-0.131000006222166
 23
-0.173500008240808
 33
0
0
3DFACE
8
8
 62
8
 10
0.199500009475742
 20
0.173500008240808
 30
0
 11
0.199500009475742
 21
-0.173500008240808
 31
0
 12
0.131000006222166
 22
-0.173500008240808
 32
0
 13
0.131000006222166
 23
-0.173500008240808
 33
0
0
3DFACE
8
8
 62
8
 10
0.199500009475742
 20
0.173500008240808
 30
0
 11
0.131000006222166
 21
-0.173500008240808
 31
0
 12
-0.131000006222166
 22
-0.198000009404495
 32
0
 13
-0.131000006222166
 23
-0.198000009404495
 33
0
0
3DFACE
8
8
 62
8
 10
0.131000006222166
 20
-0.173500008240808
 30
0
 11
0.131000006222166
 21
-0.198000009404495
 31
0
 12
-0.131000006222166
 22
-0.198000009404495
 32
0
 13
-0.131000006222166
 23
-0.198000009404495
 33
0
0
3DFACE
8
8
 62
8
 10
0.199500009475742
 20
0.173500008240808
 30
0
 11
-0.131000006222166
 21
-0.198000009404495
 31
0
 12
-0.131000006222166
 22
-0.173500008240808
 32
0
 13
-0.131000006222166
 23
-0.173500008240808
 33
0
0
3DFACE
8
8
 62
8
 10
-0.199500009475742
 20
-0.173500008240808
 30
0.116000005509704
 11
-0.199500009475742
 21
0.173500008240808
 31
0.116000005509704
 12
-0.131000006222166
 22
0.173500008240808
 32
0.116000005509704
 13
-0.131000006222166
 23
0.173500008240808
 33
0.116000005509704
0
3DFACE
8
8
 62
8
 10
-0.199500009475742
 20
-0.173500008240808
 30
0.116000005509704
 11
-0.131000006222166
 21
0.173500008240808
 31
0.116000005509704
 12
0.131000006222166
 22
0.198000009404495
 32
0.116000005509704
 13
0.131000006222166
 23
0.198000009404495
 33
0.116000005509704
0
3DFACE
8
8
 62
8
 10
-0.131000006222166
 20
0.173500008240808
 30
0.116000005509704
 11
-0.131000006222166
 21
0.198000009404495
 31
0.116000005509704
 12
0.131000006222166
 22
0.198000009404495
 32
0.116000005509704
 13
0.131000006222166
 23
0.198000009404495
 33
0.116000005509704
0
3DFACE
8
8
 62
8
 10
-0.199500009475742
 20
-0.173500008240808
 30
0.116000005509704
 11
0.131000006222166
 21
0.198000009404495
 31
0.116000005509704
 12
0.131000006222166
 22
0.173500008240808
 32
0.116000005509704
 13
0.131000006222166
 23
0.173500008240808
 33
0.116000005509704
0
3DFACE
8
8
 62
8
 10
-0.199500009475742
 20
-0.173500008240808
 30
0.116000005509704
 11
0.131000006222166
 21
0.173500008240808
 31
0.116000005509704
 12
0.199500009475742
 22
0.173500008240808
 32
0.116000005509704
 13
0.199500009475742
 23
0.173500008240808
 33
0.116000005509704
0
3DFACE
8
8
 62
8
 10
-0.199500009475742
 20
-0.173500008240808
 30
0.116000005509704
 11
0.199500009475742
 21
0.173500008240808
 31
0.116000005509704
 12
-0.131000006222166
 22
-0.173500008240808
 32
0.116000005509704
 13
-0.131000006222166
 23
-0.173500008240808
 33
0.116000005509704
0
3DFACE
8
8
 62
8
 10
0.199500009475742
 20
0.173500008240808
 30
0.116000005509704
 11
0.199500009475742
 21
-0.173500008240808
 31
0.116000005509704
 12
0.131000006222166
 22
-0.173500008240808
 32
0.116000005509704
 13
0.131000006222166
 23
-0.173500008240808
 33
0.116000005509704
0
3DFACE
8
8
 62
8
 10
0.199500009475742
 20
0.173500008240808
 30
0.116000005509704
 11
0.131000006222166
 21
-0.173500008240808
 31
0.116000005509704
 12
-0.131000006222166
 22
-0.198000009404495
 32
0.116000005509704
 13
-0.131000006222166
 23
-0.198000009404495
 33
0.116000005509704
0
3DFACE
8
8
 62
8
 10
0.131000006222166
 20
-0.173500008240808
 30
0.116000005509704
 11
0.131000006222166
 21
-0.198000009404495
 31
0.116000005509704
 12
-0.131000006222166
 22
-0.198000009404495
 32
0.116000005509704
 13
-0.131000006222166
 23
-0.198000009404495
 33
0.116000005509704
0
3DFACE
8
8
 62
8
 10
0.199500009475742
 20
0.173500008240808
 30
0.116000005509704
 11
-0.131000006222166
 21
-0.198000009404495
 31
0.116000005509704
 12
-0.131000006222166
 22
-0.173500008240808
 32
0.116000005509704
 13
-0.131000006222166
 23
-0.173500008240808
 33
0.116000005509704
0
3DFACE
8
8
 62
8
 10
-0.131000006222166
 20
-0.173500008240808
 30
0
 11
-0.199500009475742
 21
-0.173500008240808
 31
0
 12
-0.199500009475742
 22
-0.173500008240808
 32
0.116000005509704
 13
-0.131000006222166
 23
-0.173500008240808
 33
0.116000005509704
0
3DFACE
8
8
 62
8
 10
-0.199500009475742
 20
-0.173500008240808
 30
0
 11
-0.199500009475742
 21
0.173500008240808
 31
0
 12
-0.199500009475742
 22
0.173500008240808
 32
0.116000005509704
 13
-0.199500009475742
 23
-0.173500008240808
 33
0.116000005509704
0
3DFACE
8
8
 62
8
 10
-0.199500009475742
 20
0.173500008240808
 30
0
 11
-0.131000006222166
 21
0.173500008240808
 31
0
 12
-0.131000006222166
 22
0.173500008240808
 32
0.116000005509704
 13
-0.199500009475742
 23
0.173500008240808
 33
0.116000005509704
0
3DFACE
8
8
 62
8
 10
-0.131000006222166
 20
0.173500008240808
 30
0
 11
-0.131000006222166
 21
0.198000009404495
 31
0
 12
-0.131000006222166
 22
0.198000009404495
 32
0.116000005509704
 13
-0.131000006222166
 23
0.173500008240808
 33
0.116000005509704
0
3DFACE
8
8
 62
8
 10
-0.131000006222166
 20
0.198000009404495
 30
0
 11
0.131000006222166
 21
0.198000009404495
 31
0
 12
0.131000006222166
 22
0.198000009404495
 32
0.116000005509704
 13
-0.131000006222166
 23
0.198000009404495
 33
0.116000005509704
0
3DFACE
8
8
 62
8
 10
0.131000006222166
 20
0.198000009404495
 30
0
 11
0.131000006222166
 21
0.173500008240808
 31
0
 12
0.131000006222166
 22
0.173500008240808
 32
0.116000005509704
 13
0.131000006222166
 23
0.198000009404495
 33
0.116000005509704
0
3DFACE
8
8
 62
8
 10
0.131000006222166
 20
0.173500008240808
 30
0
 11
0.199500009475742
 21
0.173500008240808
 31
0
 12
0.199500009475742
 22
0.173500008240808
 32
0.116000005509704
 13
0.131000006222166
 23
0.173500008240808
 33
0.116000005509704
0
3DFACE
8
8
 62
8
 10
0.199500009475742
 20
0.173500008240808
 30
0
 11
0.199500009475742
 21
-0.173500008240808
 31
0
 12
0.199500009475742
 22
-0.173500008240808
 32
0.116000005509704
 13
0.199500009475742
 23
0.173500008240808
 33
0.116000005509704
0
3DFACE
8
8
 62
8
 10
0.199500009475742
 20
-0.173500008240808
 30
0
 11
0.131000006222166
 21
-0.173500008240808
 31
0
 12
0.131000006222166
 22
-0.173500008240808
 32
0.116000005509704
 13
0.199500009475742
 23
-0.173500008240808
 33
0.116000005509704
0
3DFACE
8
8
 62
8
 10
0.131000006222166
 20
-0.173500008240808
 30
0
 11
0.131000006222166
 21
-0.198000009404495
 31
0
 12
0.131000006222166
 22
-0.198000009404495
 32
0.116000005509704
 13
0.131000006222166
 23
-0.173500008240808
 33
0.116000005509704
0
3DFACE
8
8
 62
8
 10
0.131000006222166
 20
-0.198000009404495
 30
0
 11
-0.131000006222166
 21
-0.198000009404495
 31
0
 12
-0.131000006222166
 22
-0.198000009404495
 32
0.116000005509704
 13
0.131000006222166
 23
-0.198000009404495
 33
0.116000005509704
0
3DFACE
8
8
 62
8
 10
-0.131000006222166
 20
-0.198000009404495
 30
0
 11
-0.131000006222166
 21
-0.173500008240808
 31
0
 12
-0.131000006222166
 22
-0.173500008240808
 32
0.116000005509704
 13
-0.131000006222166
 23
-0.198000009404495
 33
0.116000005509704
 0
ENDBLK
 0
BLOCK
 70
0
 2
TOP_VALOR_Polygon_87
 10
0
 20
0
 30
0
0
3DFACE
8
23
 62
23
 10
-0.220500010473188
 20
-0.20400000968948
 30
0
 11
-0.220500010473188
 21
0.20400000968948
 31
0
 12
0.220500010473188
 22
0.20400000968948
 32
0
 13
0.220500010473188
 23
-0.20400000968948
 33
0
0
3DFACE
8
23
 62
23
 10
-0.220500010473188
 20
-0.20400000968948
 30
0.116000005509704
 11
-0.220500010473188
 21
0.20400000968948
 31
0.116000005509704
 12
0.220500010473188
 22
0.20400000968948
 32
0.116000005509704
 13
0.220500010473188
 23
-0.20400000968948
 33
0.116000005509704
0
3DFACE
8
23
 62
23
 10
0.220500010473188
 20
-0.20400000968948
 30
0
 11
-0.220500010473188
 21
-0.20400000968948
 31
0
 12
-0.220500010473188
 22
-0.20400000968948
 32
0.116000005509704
 13
0.220500010473188
 23
-0.20400000968948
 33
0.116000005509704
0
3DFACE
8
23
 62
23
 10
-0.220500010473188
 20
-0.20400000968948
 30
0
 11
-0.220500010473188
 21
0.20400000968948
 31
0
 12
-0.220500010473188
 22
0.20400000968948
 32
0.116000005509704
 13
-0.220500010473188
 23
-0.20400000968948
 33
0.116000005509704
0
3DFACE
8
23
 62
23
 10
-0.220500010473188
 20
0.20400000968948
 30
0
 11
0.220500010473188
 21
0.20400000968948
 31
0
 12
0.220500010473188
 22
0.20400000968948
 32
0.116000005509704
 13
-0.220500010473188
 23
0.20400000968948
 33
0.116000005509704
0
3DFACE
8
23
 62
23
 10
0.220500010473188
 20
0.20400000968948
 30
0
 11
0.220500010473188
 21
-0.20400000968948
 31
0
 12
0.220500010473188
 22
-0.20400000968948
 32
0.116000005509704
 13
0.220500010473188
 23
0.20400000968948
 33
0.116000005509704
 0
ENDBLK
0
ENDSEC
0
SECTION
2
ENTITIES
 0
INSERT
 8
8
 2
TOP_PLACE_BOUND_Polygon_69
 10
0
 20
0
 30
0
 41
1
 42
1
 43
1
 0
INSERT
 8
23
 2
TOP_VALOR_Polygon_87
 10
0
 20
0
 30
0
 41
1
 42
1
 43
1
0
ENDSEC
 0
EOF

