 999
VISION3D DXF
0
SECTION
2
HEADER
0
ENDSEC
0
SECTION
2
TABLES
0
ENDSEC
0
SECTION
2
BLOCKS
 0
BLOCK
 70
0
 2
TOP_PLACE_BOUND_Polygon_34
 10
0
 20
0
 30
0
0
3DFACE
8
8
 62
8
 10
-0.0355000016861595
 20
-0.0670000031823292
 30
0
 11
-0.0355000016861595
 21
-0.0544015757650884
 31
0
 12
0.0355000016861595
 22
0.0670000031823292
 32
0
 13
0.0355000016861595
 23
0.0670000031823292
 33
0
0
3DFACE
8
8
 62
8
 10
-0.0355000016861595
 20
-0.0544015757650884
 30
0
 11
-0.0655000031110831
 21
-0.0544015757650884
 31
0
 12
-0.0655000031110831
 22
0.0544015757650884
 32
0
 13
-0.0655000031110831
 23
0.0544015757650884
 33
0
0
3DFACE
8
8
 62
8
 10
-0.0355000016861595
 20
-0.0544015757650884
 30
0
 11
-0.0655000031110831
 21
0.0544015757650884
 31
0
 12
-0.0355000016861595
 22
0.0544015757650884
 32
0
 13
-0.0355000016861595
 23
0.0544015757650884
 33
0
0
3DFACE
8
8
 62
8
 10
-0.0355000016861595
 20
-0.0544015757650884
 30
0
 11
-0.0355000016861595
 21
0.0544015757650884
 31
0
 12
0.0355000016861595
 22
0.0670000031823292
 32
0
 13
0.0355000016861595
 23
0.0670000031823292
 33
0
0
3DFACE
8
8
 62
8
 10
-0.0355000016861595
 20
0.0544015757650884
 30
0
 11
-0.0355000016861595
 21
0.0670000031823292
 31
0
 12
0.0355000016861595
 22
0.0670000031823292
 32
0
 13
0.0355000016861595
 23
0.0670000031823292
 33
0
0
3DFACE
8
8
 62
8
 10
-0.0355000016861595
 20
-0.0670000031823292
 30
0
 11
0.0355000016861595
 21
0.0670000031823292
 31
0
 12
0.0355000016861595
 22
0.0170000008074567
 32
0
 13
0.0355000016861595
 23
0.0170000008074567
 33
0
0
3DFACE
8
8
 62
8
 10
-0.0355000016861595
 20
-0.0670000031823292
 30
0
 11
0.0355000016861595
 21
0.0170000008074567
 31
0
 12
0.0655000031110831
 22
0.0170000008074567
 32
0
 13
0.0655000031110831
 23
0.0170000008074567
 33
0
0
3DFACE
8
8
 62
8
 10
-0.0355000016861595
 20
-0.0670000031823292
 30
0
 11
0.0655000031110831
 21
0.0170000008074567
 31
0
 12
0.0355000016861595
 22
-0.0170000008074567
 32
0
 13
0.0355000016861595
 23
-0.0170000008074567
 33
0
0
3DFACE
8
8
 62
8
 10
0.0655000031110831
 20
0.0170000008074567
 30
0
 11
0.0655000031110831
 21
-0.0170000008074567
 31
0
 12
0.0355000016861595
 22
-0.0170000008074567
 32
0
 13
0.0355000016861595
 23
-0.0170000008074567
 33
0
0
3DFACE
8
8
 62
8
 10
-0.0355000016861595
 20
-0.0670000031823292
 30
0
 11
0.0355000016861595
 21
-0.0170000008074567
 31
0
 12
0.0355000016861595
 22
-0.0670000031823292
 32
0
 13
0.0355000016861595
 23
-0.0670000031823292
 33
0
0
3DFACE
8
8
 62
8
 10
-0.0355000016861595
 20
-0.0670000031823292
 30
0.0430000020423904
 11
-0.0355000016861595
 21
-0.0544015757650884
 31
0.0430000020423904
 12
0.0355000016861595
 22
0.0670000031823292
 32
0.0430000020423904
 13
0.0355000016861595
 23
0.0670000031823292
 33
0.0430000020423904
0
3DFACE
8
8
 62
8
 10
-0.0355000016861595
 20
-0.0544015757650884
 30
0.0430000020423904
 11
-0.0655000031110831
 21
-0.0544015757650884
 31
0.0430000020423904
 12
-0.0655000031110831
 22
0.0544015757650884
 32
0.0430000020423904
 13
-0.0655000031110831
 23
0.0544015757650884
 33
0.0430000020423904
0
3DFACE
8
8
 62
8
 10
-0.0355000016861595
 20
-0.0544015757650884
 30
0.0430000020423904
 11
-0.0655000031110831
 21
0.0544015757650884
 31
0.0430000020423904
 12
-0.0355000016861595
 22
0.0544015757650884
 32
0.0430000020423904
 13
-0.0355000016861595
 23
0.0544015757650884
 33
0.0430000020423904
0
3DFACE
8
8
 62
8
 10
-0.0355000016861595
 20
-0.0544015757650884
 30
0.0430000020423904
 11
-0.0355000016861595
 21
0.0544015757650884
 31
0.0430000020423904
 12
0.0355000016861595
 22
0.0670000031823292
 32
0.0430000020423904
 13
0.0355000016861595
 23
0.0670000031823292
 33
0.0430000020423904
0
3DFACE
8
8
 62
8
 10
-0.0355000016861595
 20
0.0544015757650884
 30
0.0430000020423904
 11
-0.0355000016861595
 21
0.0670000031823292
 31
0.0430000020423904
 12
0.0355000016861595
 22
0.0670000031823292
 32
0.0430000020423904
 13
0.0355000016861595
 23
0.0670000031823292
 33
0.0430000020423904
0
3DFACE
8
8
 62
8
 10
-0.0355000016861595
 20
-0.0670000031823292
 30
0.0430000020423904
 11
0.0355000016861595
 21
0.0670000031823292
 31
0.0430000020423904
 12
0.0355000016861595
 22
0.0170000008074567
 32
0.0430000020423904
 13
0.0355000016861595
 23
0.0170000008074567
 33
0.0430000020423904
0
3DFACE
8
8
 62
8
 10
-0.0355000016861595
 20
-0.0670000031823292
 30
0.0430000020423904
 11
0.0355000016861595
 21
0.0170000008074567
 31
0.0430000020423904
 12
0.0655000031110831
 22
0.0170000008074567
 32
0.0430000020423904
 13
0.0655000031110831
 23
0.0170000008074567
 33
0.0430000020423904
0
3DFACE
8
8
 62
8
 10
-0.0355000016861595
 20
-0.0670000031823292
 30
0.0430000020423904
 11
0.0655000031110831
 21
0.0170000008074567
 31
0.0430000020423904
 12
0.0355000016861595
 22
-0.0170000008074567
 32
0.0430000020423904
 13
0.0355000016861595
 23
-0.0170000008074567
 33
0.0430000020423904
0
3DFACE
8
8
 62
8
 10
0.0655000031110831
 20
0.0170000008074567
 30
0.0430000020423904
 11
0.0655000031110831
 21
-0.0170000008074567
 31
0.0430000020423904
 12
0.0355000016861595
 22
-0.0170000008074567
 32
0.0430000020423904
 13
0.0355000016861595
 23
-0.0170000008074567
 33
0.0430000020423904
0
3DFACE
8
8
 62
8
 10
-0.0355000016861595
 20
-0.0670000031823292
 30
0.0430000020423904
 11
0.0355000016861595
 21
-0.0170000008074567
 31
0.0430000020423904
 12
0.0355000016861595
 22
-0.0670000031823292
 32
0.0430000020423904
 13
0.0355000016861595
 23
-0.0670000031823292
 33
0.0430000020423904
0
3DFACE
8
8
 62
8
 10
0.0355000016861595
 20
-0.0670000031823292
 30
0
 11
-0.0355000016861595
 21
-0.0670000031823292
 31
0
 12
-0.0355000016861595
 22
-0.0670000031823292
 32
0.0430000020423904
 13
0.0355000016861595
 23
-0.0670000031823292
 33
0.0430000020423904
0
3DFACE
8
8
 62
8
 10
-0.0355000016861595
 20
-0.0670000031823292
 30
0
 11
-0.0355000016861595
 21
-0.0544015757650884
 31
0
 12
-0.0355000016861595
 22
-0.0544015757650884
 32
0.0430000020423904
 13
-0.0355000016861595
 23
-0.0670000031823292
 33
0.0430000020423904
0
3DFACE
8
8
 62
8
 10
-0.0355000016861595
 20
-0.0544015757650884
 30
0
 11
-0.0655000031110831
 21
-0.0544015757650884
 31
0
 12
-0.0655000031110831
 22
-0.0544015757650884
 32
0.0430000020423904
 13
-0.0355000016861595
 23
-0.0544015757650884
 33
0.0430000020423904
0
3DFACE
8
8
 62
8
 10
-0.0655000031110831
 20
-0.0544015757650884
 30
0
 11
-0.0655000031110831
 21
0.0544015757650884
 31
0
 12
-0.0655000031110831
 22
0.0544015757650884
 32
0.0430000020423904
 13
-0.0655000031110831
 23
-0.0544015757650884
 33
0.0430000020423904
0
3DFACE
8
8
 62
8
 10
-0.0655000031110831
 20
0.0544015757650884
 30
0
 11
-0.0355000016861595
 21
0.0544015757650884
 31
0
 12
-0.0355000016861595
 22
0.0544015757650884
 32
0.0430000020423904
 13
-0.0655000031110831
 23
0.0544015757650884
 33
0.0430000020423904
0
3DFACE
8
8
 62
8
 10
-0.0355000016861595
 20
0.0544015757650884
 30
0
 11
-0.0355000016861595
 21
0.0670000031823292
 31
0
 12
-0.0355000016861595
 22
0.0670000031823292
 32
0.0430000020423904
 13
-0.0355000016861595
 23
0.0544015757650884
 33
0.0430000020423904
0
3DFACE
8
8
 62
8
 10
-0.0355000016861595
 20
0.0670000031823292
 30
0
 11
0.0355000016861595
 21
0.0670000031823292
 31
0
 12
0.0355000016861595
 22
0.0670000031823292
 32
0.0430000020423904
 13
-0.0355000016861595
 23
0.0670000031823292
 33
0.0430000020423904
0
3DFACE
8
8
 62
8
 10
0.0355000016861595
 20
0.0670000031823292
 30
0
 11
0.0355000016861595
 21
0.0170000008074567
 31
0
 12
0.0355000016861595
 22
0.0170000008074567
 32
0.0430000020423904
 13
0.0355000016861595
 23
0.0670000031823292
 33
0.0430000020423904
0
3DFACE
8
8
 62
8
 10
0.0355000016861595
 20
0.0170000008074567
 30
0
 11
0.0655000031110831
 21
0.0170000008074567
 31
0
 12
0.0655000031110831
 22
0.0170000008074567
 32
0.0430000020423904
 13
0.0355000016861595
 23
0.0170000008074567
 33
0.0430000020423904
0
3DFACE
8
8
 62
8
 10
0.0655000031110831
 20
0.0170000008074567
 30
0
 11
0.0655000031110831
 21
-0.0170000008074567
 31
0
 12
0.0655000031110831
 22
-0.0170000008074567
 32
0.0430000020423904
 13
0.0655000031110831
 23
0.0170000008074567
 33
0.0430000020423904
0
3DFACE
8
8
 62
8
 10
0.0655000031110831
 20
-0.0170000008074567
 30
0
 11
0.0355000016861595
 21
-0.0170000008074567
 31
0
 12
0.0355000016861595
 22
-0.0170000008074567
 32
0.0430000020423904
 13
0.0655000031110831
 23
-0.0170000008074567
 33
0.0430000020423904
0
3DFACE
8
8
 62
8
 10
0.0355000016861595
 20
-0.0170000008074567
 30
0
 11
0.0355000016861595
 21
-0.0670000031823292
 31
0
 12
0.0355000016861595
 22
-0.0670000031823292
 32
0.0430000020423904
 13
0.0355000016861595
 23
-0.0170000008074567
 33
0.0430000020423904
 0
ENDBLK
 0
BLOCK
 70
0
 2
TOP_VALOR_Polygon_53
 10
0
 20
0
 30
0
0
3DFACE
8
23
 62
23
 10
-0.0800000037997961
 20
-0.0690000032773241
 30
0
 11
-0.0800000037997961
 21
0.0690000032773241
 31
0
 12
0.0800000037997961
 22
0.0690000032773241
 32
0
 13
0.0800000037997961
 23
-0.0690000032773241
 33
0
0
3DFACE
8
23
 62
23
 10
-0.0800000037997961
 20
-0.0690000032773241
 30
0.0430000020423904
 11
-0.0800000037997961
 21
0.0690000032773241
 31
0.0430000020423904
 12
0.0800000037997961
 22
0.0690000032773241
 32
0.0430000020423904
 13
0.0800000037997961
 23
-0.0690000032773241
 33
0.0430000020423904
0
3DFACE
8
23
 62
23
 10
0.0800000037997961
 20
-0.0690000032773241
 30
0
 11
-0.0800000037997961
 21
-0.0690000032773241
 31
0
 12
-0.0800000037997961
 22
-0.0690000032773241
 32
0.0430000020423904
 13
0.0800000037997961
 23
-0.0690000032773241
 33
0.0430000020423904
0
3DFACE
8
23
 62
23
 10
-0.0800000037997961
 20
-0.0690000032773241
 30
0
 11
-0.0800000037997961
 21
0.0690000032773241
 31
0
 12
-0.0800000037997961
 22
0.0690000032773241
 32
0.0430000020423904
 13
-0.0800000037997961
 23
-0.0690000032773241
 33
0.0430000020423904
0
3DFACE
8
23
 62
23
 10
-0.0800000037997961
 20
0.0690000032773241
 30
0
 11
0.0800000037997961
 21
0.0690000032773241
 31
0
 12
0.0800000037997961
 22
0.0690000032773241
 32
0.0430000020423904
 13
-0.0800000037997961
 23
0.0690000032773241
 33
0.0430000020423904
0
3DFACE
8
23
 62
23
 10
0.0800000037997961
 20
0.0690000032773241
 30
0
 11
0.0800000037997961
 21
-0.0690000032773241
 31
0
 12
0.0800000037997961
 22
-0.0690000032773241
 32
0.0430000020423904
 13
0.0800000037997961
 23
0.0690000032773241
 33
0.0430000020423904
 0
ENDBLK
0
ENDSEC
0
SECTION
2
ENTITIES
 0
INSERT
 8
8
 2
TOP_PLACE_BOUND_Polygon_34
 10
0
 20
0
 30
0
 41
1
 42
1
 43
1
 0
INSERT
 8
23
 2
TOP_VALOR_Polygon_53
 10
0
 20
0
 30
0
 41
1
 42
1
 43
1
0
ENDSEC
 0
EOF

