 999
VISION3D DXF
0
SECTION
2
HEADER
0
ENDSEC
0
SECTION
2
TABLES
0
ENDSEC
0
SECTION
2
BLOCKS
 0
BLOCK
 70
0
 2
TOP_PLACE_BOUND_Polygon_34
 10
0
 20
0
 30
0
0
3DFACE
8
8
 62
8
 10
-0.0425000020186417
 20
-0.0740000035148114
 30
0
 11
-0.0425000020186417
 21
-0.0564015758600833
 31
0
 12
0.0425000020186417
 22
0.0740000035148114
 32
0
 13
0.0425000020186417
 23
0.0740000035148114
 33
0
0
3DFACE
8
8
 62
8
 10
-0.0425000020186417
 20
-0.0564015758600833
 30
0
 11
-0.0735000034910627
 21
-0.0564015758600833
 31
0
 12
-0.0735000034910627
 22
0.0564015758600833
 32
0
 13
-0.0735000034910627
 23
0.0564015758600833
 33
0
0
3DFACE
8
8
 62
8
 10
-0.0425000020186417
 20
-0.0564015758600833
 30
0
 11
-0.0735000034910627
 21
0.0564015758600833
 31
0
 12
-0.0425000020186417
 22
0.0564015758600833
 32
0
 13
-0.0425000020186417
 23
0.0564015758600833
 33
0
0
3DFACE
8
8
 62
8
 10
-0.0425000020186417
 20
-0.0564015758600833
 30
0
 11
-0.0425000020186417
 21
0.0564015758600833
 31
0
 12
0.0425000020186417
 22
0.0740000035148114
 32
0
 13
0.0425000020186417
 23
0.0740000035148114
 33
0
0
3DFACE
8
8
 62
8
 10
-0.0425000020186417
 20
0.0564015758600833
 30
0
 11
-0.0425000020186417
 21
0.0740000035148114
 31
0
 12
0.0425000020186417
 22
0.0740000035148114
 32
0
 13
0.0425000020186417
 23
0.0740000035148114
 33
0
0
3DFACE
8
8
 62
8
 10
-0.0425000020186417
 20
-0.0740000035148114
 30
0
 11
0.0425000020186417
 21
0.0740000035148114
 31
0
 12
0.0425000020186417
 22
0.0190000009024516
 32
0
 13
0.0425000020186417
 23
0.0190000009024516
 33
0
0
3DFACE
8
8
 62
8
 10
-0.0425000020186417
 20
-0.0740000035148114
 30
0
 11
0.0425000020186417
 21
0.0190000009024516
 31
0
 12
0.0735000034910627
 22
0.0190000009024516
 32
0
 13
0.0735000034910627
 23
0.0190000009024516
 33
0
0
3DFACE
8
8
 62
8
 10
-0.0425000020186417
 20
-0.0740000035148114
 30
0
 11
0.0735000034910627
 21
0.0190000009024516
 31
0
 12
0.0425000020186417
 22
-0.0190000009024516
 32
0
 13
0.0425000020186417
 23
-0.0190000009024516
 33
0
0
3DFACE
8
8
 62
8
 10
0.0735000034910627
 20
0.0190000009024516
 30
0
 11
0.0735000034910627
 21
-0.0190000009024516
 31
0
 12
0.0425000020186417
 22
-0.0190000009024516
 32
0
 13
0.0425000020186417
 23
-0.0190000009024516
 33
0
0
3DFACE
8
8
 62
8
 10
-0.0425000020186417
 20
-0.0740000035148114
 30
0
 11
0.0425000020186417
 21
-0.0190000009024516
 31
0
 12
0.0425000020186417
 22
-0.0740000035148114
 32
0
 13
0.0425000020186417
 23
-0.0740000035148114
 33
0
0
3DFACE
8
8
 62
8
 10
-0.0425000020186417
 20
-0.0740000035148114
 30
0.0430000020423904
 11
-0.0425000020186417
 21
-0.0564015758600833
 31
0.0430000020423904
 12
0.0425000020186417
 22
0.0740000035148114
 32
0.0430000020423904
 13
0.0425000020186417
 23
0.0740000035148114
 33
0.0430000020423904
0
3DFACE
8
8
 62
8
 10
-0.0425000020186417
 20
-0.0564015758600833
 30
0.0430000020423904
 11
-0.0735000034910627
 21
-0.0564015758600833
 31
0.0430000020423904
 12
-0.0735000034910627
 22
0.0564015758600833
 32
0.0430000020423904
 13
-0.0735000034910627
 23
0.0564015758600833
 33
0.0430000020423904
0
3DFACE
8
8
 62
8
 10
-0.0425000020186417
 20
-0.0564015758600833
 30
0.0430000020423904
 11
-0.0735000034910627
 21
0.0564015758600833
 31
0.0430000020423904
 12
-0.0425000020186417
 22
0.0564015758600833
 32
0.0430000020423904
 13
-0.0425000020186417
 23
0.0564015758600833
 33
0.0430000020423904
0
3DFACE
8
8
 62
8
 10
-0.0425000020186417
 20
-0.0564015758600833
 30
0.0430000020423904
 11
-0.0425000020186417
 21
0.0564015758600833
 31
0.0430000020423904
 12
0.0425000020186417
 22
0.0740000035148114
 32
0.0430000020423904
 13
0.0425000020186417
 23
0.0740000035148114
 33
0.0430000020423904
0
3DFACE
8
8
 62
8
 10
-0.0425000020186417
 20
0.0564015758600833
 30
0.0430000020423904
 11
-0.0425000020186417
 21
0.0740000035148114
 31
0.0430000020423904
 12
0.0425000020186417
 22
0.0740000035148114
 32
0.0430000020423904
 13
0.0425000020186417
 23
0.0740000035148114
 33
0.0430000020423904
0
3DFACE
8
8
 62
8
 10
-0.0425000020186417
 20
-0.0740000035148114
 30
0.0430000020423904
 11
0.0425000020186417
 21
0.0740000035148114
 31
0.0430000020423904
 12
0.0425000020186417
 22
0.0190000009024516
 32
0.0430000020423904
 13
0.0425000020186417
 23
0.0190000009024516
 33
0.0430000020423904
0
3DFACE
8
8
 62
8
 10
-0.0425000020186417
 20
-0.0740000035148114
 30
0.0430000020423904
 11
0.0425000020186417
 21
0.0190000009024516
 31
0.0430000020423904
 12
0.0735000034910627
 22
0.0190000009024516
 32
0.0430000020423904
 13
0.0735000034910627
 23
0.0190000009024516
 33
0.0430000020423904
0
3DFACE
8
8
 62
8
 10
-0.0425000020186417
 20
-0.0740000035148114
 30
0.0430000020423904
 11
0.0735000034910627
 21
0.0190000009024516
 31
0.0430000020423904
 12
0.0425000020186417
 22
-0.0190000009024516
 32
0.0430000020423904
 13
0.0425000020186417
 23
-0.0190000009024516
 33
0.0430000020423904
0
3DFACE
8
8
 62
8
 10
0.0735000034910627
 20
0.0190000009024516
 30
0.0430000020423904
 11
0.0735000034910627
 21
-0.0190000009024516
 31
0.0430000020423904
 12
0.0425000020186417
 22
-0.0190000009024516
 32
0.0430000020423904
 13
0.0425000020186417
 23
-0.0190000009024516
 33
0.0430000020423904
0
3DFACE
8
8
 62
8
 10
-0.0425000020186417
 20
-0.0740000035148114
 30
0.0430000020423904
 11
0.0425000020186417
 21
-0.0190000009024516
 31
0.0430000020423904
 12
0.0425000020186417
 22
-0.0740000035148114
 32
0.0430000020423904
 13
0.0425000020186417
 23
-0.0740000035148114
 33
0.0430000020423904
0
3DFACE
8
8
 62
8
 10
0.0425000020186417
 20
-0.0740000035148114
 30
0
 11
-0.0425000020186417
 21
-0.0740000035148114
 31
0
 12
-0.0425000020186417
 22
-0.0740000035148114
 32
0.0430000020423904
 13
0.0425000020186417
 23
-0.0740000035148114
 33
0.0430000020423904
0
3DFACE
8
8
 62
8
 10
-0.0425000020186417
 20
-0.0740000035148114
 30
0
 11
-0.0425000020186417
 21
-0.0564015758600833
 31
0
 12
-0.0425000020186417
 22
-0.0564015758600833
 32
0.0430000020423904
 13
-0.0425000020186417
 23
-0.0740000035148114
 33
0.0430000020423904
0
3DFACE
8
8
 62
8
 10
-0.0425000020186417
 20
-0.0564015758600833
 30
0
 11
-0.0735000034910627
 21
-0.0564015758600833
 31
0
 12
-0.0735000034910627
 22
-0.0564015758600833
 32
0.0430000020423904
 13
-0.0425000020186417
 23
-0.0564015758600833
 33
0.0430000020423904
0
3DFACE
8
8
 62
8
 10
-0.0735000034910627
 20
-0.0564015758600833
 30
0
 11
-0.0735000034910627
 21
0.0564015758600833
 31
0
 12
-0.0735000034910627
 22
0.0564015758600833
 32
0.0430000020423904
 13
-0.0735000034910627
 23
-0.0564015758600833
 33
0.0430000020423904
0
3DFACE
8
8
 62
8
 10
-0.0735000034910627
 20
0.0564015758600833
 30
0
 11
-0.0425000020186417
 21
0.0564015758600833
 31
0
 12
-0.0425000020186417
 22
0.0564015758600833
 32
0.0430000020423904
 13
-0.0735000034910627
 23
0.0564015758600833
 33
0.0430000020423904
0
3DFACE
8
8
 62
8
 10
-0.0425000020186417
 20
0.0564015758600833
 30
0
 11
-0.0425000020186417
 21
0.0740000035148114
 31
0
 12
-0.0425000020186417
 22
0.0740000035148114
 32
0.0430000020423904
 13
-0.0425000020186417
 23
0.0564015758600833
 33
0.0430000020423904
0
3DFACE
8
8
 62
8
 10
-0.0425000020186417
 20
0.0740000035148114
 30
0
 11
0.0425000020186417
 21
0.0740000035148114
 31
0
 12
0.0425000020186417
 22
0.0740000035148114
 32
0.0430000020423904
 13
-0.0425000020186417
 23
0.0740000035148114
 33
0.0430000020423904
0
3DFACE
8
8
 62
8
 10
0.0425000020186417
 20
0.0740000035148114
 30
0
 11
0.0425000020186417
 21
0.0190000009024516
 31
0
 12
0.0425000020186417
 22
0.0190000009024516
 32
0.0430000020423904
 13
0.0425000020186417
 23
0.0740000035148114
 33
0.0430000020423904
0
3DFACE
8
8
 62
8
 10
0.0425000020186417
 20
0.0190000009024516
 30
0
 11
0.0735000034910627
 21
0.0190000009024516
 31
0
 12
0.0735000034910627
 22
0.0190000009024516
 32
0.0430000020423904
 13
0.0425000020186417
 23
0.0190000009024516
 33
0.0430000020423904
0
3DFACE
8
8
 62
8
 10
0.0735000034910627
 20
0.0190000009024516
 30
0
 11
0.0735000034910627
 21
-0.0190000009024516
 31
0
 12
0.0735000034910627
 22
-0.0190000009024516
 32
0.0430000020423904
 13
0.0735000034910627
 23
0.0190000009024516
 33
0.0430000020423904
0
3DFACE
8
8
 62
8
 10
0.0735000034910627
 20
-0.0190000009024516
 30
0
 11
0.0425000020186417
 21
-0.0190000009024516
 31
0
 12
0.0425000020186417
 22
-0.0190000009024516
 32
0.0430000020423904
 13
0.0735000034910627
 23
-0.0190000009024516
 33
0.0430000020423904
0
3DFACE
8
8
 62
8
 10
0.0425000020186417
 20
-0.0190000009024516
 30
0
 11
0.0425000020186417
 21
-0.0740000035148114
 31
0
 12
0.0425000020186417
 22
-0.0740000035148114
 32
0.0430000020423904
 13
0.0425000020186417
 23
-0.0190000009024516
 33
0.0430000020423904
 0
ENDBLK
 0
BLOCK
 70
0
 2
TOP_VALOR_Polygon_53
 10
0
 20
0
 30
0
0
3DFACE
8
23
 62
23
 10
-0.0880000041797757
 20
-0.0690000032773241
 30
0
 11
-0.0880000041797757
 21
0.0690000032773241
 31
0
 12
0.0880000041797757
 22
0.0690000032773241
 32
0
 13
0.0880000041797757
 23
-0.0690000032773241
 33
0
0
3DFACE
8
23
 62
23
 10
-0.0880000041797757
 20
-0.0690000032773241
 30
0.0430000020423904
 11
-0.0880000041797757
 21
0.0690000032773241
 31
0.0430000020423904
 12
0.0880000041797757
 22
0.0690000032773241
 32
0.0430000020423904
 13
0.0880000041797757
 23
-0.0690000032773241
 33
0.0430000020423904
0
3DFACE
8
23
 62
23
 10
0.0880000041797757
 20
-0.0690000032773241
 30
0
 11
-0.0880000041797757
 21
-0.0690000032773241
 31
0
 12
-0.0880000041797757
 22
-0.0690000032773241
 32
0.0430000020423904
 13
0.0880000041797757
 23
-0.0690000032773241
 33
0.0430000020423904
0
3DFACE
8
23
 62
23
 10
-0.0880000041797757
 20
-0.0690000032773241
 30
0
 11
-0.0880000041797757
 21
0.0690000032773241
 31
0
 12
-0.0880000041797757
 22
0.0690000032773241
 32
0.0430000020423904
 13
-0.0880000041797757
 23
-0.0690000032773241
 33
0.0430000020423904
0
3DFACE
8
23
 62
23
 10
-0.0880000041797757
 20
0.0690000032773241
 30
0
 11
0.0880000041797757
 21
0.0690000032773241
 31
0
 12
0.0880000041797757
 22
0.0690000032773241
 32
0.0430000020423904
 13
-0.0880000041797757
 23
0.0690000032773241
 33
0.0430000020423904
0
3DFACE
8
23
 62
23
 10
0.0880000041797757
 20
0.0690000032773241
 30
0
 11
0.0880000041797757
 21
-0.0690000032773241
 31
0
 12
0.0880000041797757
 22
-0.0690000032773241
 32
0.0430000020423904
 13
0.0880000041797757
 23
0.0690000032773241
 33
0.0430000020423904
 0
ENDBLK
0
ENDSEC
0
SECTION
2
ENTITIES
 0
INSERT
 8
8
 2
TOP_PLACE_BOUND_Polygon_34
 10
0
 20
0
 30
0
 41
1
 42
1
 43
1
 0
INSERT
 8
23
 2
TOP_VALOR_Polygon_53
 10
0
 20
0
 30
0
 41
1
 42
1
 43
1
0
ENDSEC
 0
EOF

