 999
VISION3D DXF
0
SECTION
2
HEADER
0
ENDSEC
0
SECTION
2
TABLES
0
ENDSEC
0
SECTION
2
BLOCKS
 0
BLOCK
 70
0
 2
TOP_PLACE_BOUND_Polygon_34
 10
0
 20
0
 30
0
0
3DFACE
8
8
 62
8
 10
-0.0525000024936162
 20
-0.0840000039897859
 30
0
 11
-0.0525000024936162
 21
-0.0564015758600833
 31
0
 12
0.0525000024936162
 22
0.0840000039897859
 32
0
 13
0.0525000024936162
 23
0.0840000039897859
 33
0
0
3DFACE
8
8
 62
8
 10
-0.0525000024936162
 20
-0.0564015758600833
 30
0
 11
-0.0835000039660372
 21
-0.0564015758600833
 31
0
 12
-0.0835000039660372
 22
0.0564015758600833
 32
0
 13
-0.0835000039660372
 23
0.0564015758600833
 33
0
0
3DFACE
8
8
 62
8
 10
-0.0525000024936162
 20
-0.0564015758600833
 30
0
 11
-0.0835000039660372
 21
0.0564015758600833
 31
0
 12
-0.0525000024936162
 22
0.0564015758600833
 32
0
 13
-0.0525000024936162
 23
0.0564015758600833
 33
0
0
3DFACE
8
8
 62
8
 10
-0.0525000024936162
 20
-0.0564015758600833
 30
0
 11
-0.0525000024936162
 21
0.0564015758600833
 31
0
 12
0.0525000024936162
 22
0.0840000039897859
 32
0
 13
0.0525000024936162
 23
0.0840000039897859
 33
0
0
3DFACE
8
8
 62
8
 10
-0.0525000024936162
 20
0.0564015758600833
 30
0
 11
-0.0525000024936162
 21
0.0840000039897859
 31
0
 12
0.0525000024936162
 22
0.0840000039897859
 32
0
 13
0.0525000024936162
 23
0.0840000039897859
 33
0
0
3DFACE
8
8
 62
8
 10
-0.0525000024936162
 20
-0.0840000039897859
 30
0
 11
0.0525000024936162
 21
0.0840000039897859
 31
0
 12
0.0525000024936162
 22
0.0190000009024516
 32
0
 13
0.0525000024936162
 23
0.0190000009024516
 33
0
0
3DFACE
8
8
 62
8
 10
-0.0525000024936162
 20
-0.0840000039897859
 30
0
 11
0.0525000024936162
 21
0.0190000009024516
 31
0
 12
0.0835000039660372
 22
0.0190000009024516
 32
0
 13
0.0835000039660372
 23
0.0190000009024516
 33
0
0
3DFACE
8
8
 62
8
 10
-0.0525000024936162
 20
-0.0840000039897859
 30
0
 11
0.0835000039660372
 21
0.0190000009024516
 31
0
 12
0.0525000024936162
 22
-0.0190000009024516
 32
0
 13
0.0525000024936162
 23
-0.0190000009024516
 33
0
0
3DFACE
8
8
 62
8
 10
0.0835000039660372
 20
0.0190000009024516
 30
0
 11
0.0835000039660372
 21
-0.0190000009024516
 31
0
 12
0.0525000024936162
 22
-0.0190000009024516
 32
0
 13
0.0525000024936162
 23
-0.0190000009024516
 33
0
0
3DFACE
8
8
 62
8
 10
-0.0525000024936162
 20
-0.0840000039897859
 30
0
 11
0.0525000024936162
 21
-0.0190000009024516
 31
0
 12
0.0525000024936162
 22
-0.0840000039897859
 32
0
 13
0.0525000024936162
 23
-0.0840000039897859
 33
0
0
3DFACE
8
8
 62
8
 10
-0.0525000024936162
 20
-0.0840000039897859
 30
0.0430000020423904
 11
-0.0525000024936162
 21
-0.0564015758600833
 31
0.0430000020423904
 12
0.0525000024936162
 22
0.0840000039897859
 32
0.0430000020423904
 13
0.0525000024936162
 23
0.0840000039897859
 33
0.0430000020423904
0
3DFACE
8
8
 62
8
 10
-0.0525000024936162
 20
-0.0564015758600833
 30
0.0430000020423904
 11
-0.0835000039660372
 21
-0.0564015758600833
 31
0.0430000020423904
 12
-0.0835000039660372
 22
0.0564015758600833
 32
0.0430000020423904
 13
-0.0835000039660372
 23
0.0564015758600833
 33
0.0430000020423904
0
3DFACE
8
8
 62
8
 10
-0.0525000024936162
 20
-0.0564015758600833
 30
0.0430000020423904
 11
-0.0835000039660372
 21
0.0564015758600833
 31
0.0430000020423904
 12
-0.0525000024936162
 22
0.0564015758600833
 32
0.0430000020423904
 13
-0.0525000024936162
 23
0.0564015758600833
 33
0.0430000020423904
0
3DFACE
8
8
 62
8
 10
-0.0525000024936162
 20
-0.0564015758600833
 30
0.0430000020423904
 11
-0.0525000024936162
 21
0.0564015758600833
 31
0.0430000020423904
 12
0.0525000024936162
 22
0.0840000039897859
 32
0.0430000020423904
 13
0.0525000024936162
 23
0.0840000039897859
 33
0.0430000020423904
0
3DFACE
8
8
 62
8
 10
-0.0525000024936162
 20
0.0564015758600833
 30
0.0430000020423904
 11
-0.0525000024936162
 21
0.0840000039897859
 31
0.0430000020423904
 12
0.0525000024936162
 22
0.0840000039897859
 32
0.0430000020423904
 13
0.0525000024936162
 23
0.0840000039897859
 33
0.0430000020423904
0
3DFACE
8
8
 62
8
 10
-0.0525000024936162
 20
-0.0840000039897859
 30
0.0430000020423904
 11
0.0525000024936162
 21
0.0840000039897859
 31
0.0430000020423904
 12
0.0525000024936162
 22
0.0190000009024516
 32
0.0430000020423904
 13
0.0525000024936162
 23
0.0190000009024516
 33
0.0430000020423904
0
3DFACE
8
8
 62
8
 10
-0.0525000024936162
 20
-0.0840000039897859
 30
0.0430000020423904
 11
0.0525000024936162
 21
0.0190000009024516
 31
0.0430000020423904
 12
0.0835000039660372
 22
0.0190000009024516
 32
0.0430000020423904
 13
0.0835000039660372
 23
0.0190000009024516
 33
0.0430000020423904
0
3DFACE
8
8
 62
8
 10
-0.0525000024936162
 20
-0.0840000039897859
 30
0.0430000020423904
 11
0.0835000039660372
 21
0.0190000009024516
 31
0.0430000020423904
 12
0.0525000024936162
 22
-0.0190000009024516
 32
0.0430000020423904
 13
0.0525000024936162
 23
-0.0190000009024516
 33
0.0430000020423904
0
3DFACE
8
8
 62
8
 10
0.0835000039660372
 20
0.0190000009024516
 30
0.0430000020423904
 11
0.0835000039660372
 21
-0.0190000009024516
 31
0.0430000020423904
 12
0.0525000024936162
 22
-0.0190000009024516
 32
0.0430000020423904
 13
0.0525000024936162
 23
-0.0190000009024516
 33
0.0430000020423904
0
3DFACE
8
8
 62
8
 10
-0.0525000024936162
 20
-0.0840000039897859
 30
0.0430000020423904
 11
0.0525000024936162
 21
-0.0190000009024516
 31
0.0430000020423904
 12
0.0525000024936162
 22
-0.0840000039897859
 32
0.0430000020423904
 13
0.0525000024936162
 23
-0.0840000039897859
 33
0.0430000020423904
0
3DFACE
8
8
 62
8
 10
0.0525000024936162
 20
-0.0840000039897859
 30
0
 11
-0.0525000024936162
 21
-0.0840000039897859
 31
0
 12
-0.0525000024936162
 22
-0.0840000039897859
 32
0.0430000020423904
 13
0.0525000024936162
 23
-0.0840000039897859
 33
0.0430000020423904
0
3DFACE
8
8
 62
8
 10
-0.0525000024936162
 20
-0.0840000039897859
 30
0
 11
-0.0525000024936162
 21
-0.0564015758600833
 31
0
 12
-0.0525000024936162
 22
-0.0564015758600833
 32
0.0430000020423904
 13
-0.0525000024936162
 23
-0.0840000039897859
 33
0.0430000020423904
0
3DFACE
8
8
 62
8
 10
-0.0525000024936162
 20
-0.0564015758600833
 30
0
 11
-0.0835000039660372
 21
-0.0564015758600833
 31
0
 12
-0.0835000039660372
 22
-0.0564015758600833
 32
0.0430000020423904
 13
-0.0525000024936162
 23
-0.0564015758600833
 33
0.0430000020423904
0
3DFACE
8
8
 62
8
 10
-0.0835000039660372
 20
-0.0564015758600833
 30
0
 11
-0.0835000039660372
 21
0.0564015758600833
 31
0
 12
-0.0835000039660372
 22
0.0564015758600833
 32
0.0430000020423904
 13
-0.0835000039660372
 23
-0.0564015758600833
 33
0.0430000020423904
0
3DFACE
8
8
 62
8
 10
-0.0835000039660372
 20
0.0564015758600833
 30
0
 11
-0.0525000024936162
 21
0.0564015758600833
 31
0
 12
-0.0525000024936162
 22
0.0564015758600833
 32
0.0430000020423904
 13
-0.0835000039660372
 23
0.0564015758600833
 33
0.0430000020423904
0
3DFACE
8
8
 62
8
 10
-0.0525000024936162
 20
0.0564015758600833
 30
0
 11
-0.0525000024936162
 21
0.0840000039897859
 31
0
 12
-0.0525000024936162
 22
0.0840000039897859
 32
0.0430000020423904
 13
-0.0525000024936162
 23
0.0564015758600833
 33
0.0430000020423904
0
3DFACE
8
8
 62
8
 10
-0.0525000024936162
 20
0.0840000039897859
 30
0
 11
0.0525000024936162
 21
0.0840000039897859
 31
0
 12
0.0525000024936162
 22
0.0840000039897859
 32
0.0430000020423904
 13
-0.0525000024936162
 23
0.0840000039897859
 33
0.0430000020423904
0
3DFACE
8
8
 62
8
 10
0.0525000024936162
 20
0.0840000039897859
 30
0
 11
0.0525000024936162
 21
0.0190000009024516
 31
0
 12
0.0525000024936162
 22
0.0190000009024516
 32
0.0430000020423904
 13
0.0525000024936162
 23
0.0840000039897859
 33
0.0430000020423904
0
3DFACE
8
8
 62
8
 10
0.0525000024936162
 20
0.0190000009024516
 30
0
 11
0.0835000039660372
 21
0.0190000009024516
 31
0
 12
0.0835000039660372
 22
0.0190000009024516
 32
0.0430000020423904
 13
0.0525000024936162
 23
0.0190000009024516
 33
0.0430000020423904
0
3DFACE
8
8
 62
8
 10
0.0835000039660372
 20
0.0190000009024516
 30
0
 11
0.0835000039660372
 21
-0.0190000009024516
 31
0
 12
0.0835000039660372
 22
-0.0190000009024516
 32
0.0430000020423904
 13
0.0835000039660372
 23
0.0190000009024516
 33
0.0430000020423904
0
3DFACE
8
8
 62
8
 10
0.0835000039660372
 20
-0.0190000009024516
 30
0
 11
0.0525000024936162
 21
-0.0190000009024516
 31
0
 12
0.0525000024936162
 22
-0.0190000009024516
 32
0.0430000020423904
 13
0.0835000039660372
 23
-0.0190000009024516
 33
0.0430000020423904
0
3DFACE
8
8
 62
8
 10
0.0525000024936162
 20
-0.0190000009024516
 30
0
 11
0.0525000024936162
 21
-0.0840000039897859
 31
0
 12
0.0525000024936162
 22
-0.0840000039897859
 32
0.0430000020423904
 13
0.0525000024936162
 23
-0.0190000009024516
 33
0.0430000020423904
 0
ENDBLK
 0
BLOCK
 70
0
 2
TOP_VALOR_Polygon_53
 10
0
 20
0
 30
0
0
3DFACE
8
23
 62
23
 10
-0.0960000045597553
 20
-0.0690000032773241
 30
0
 11
-0.0960000045597553
 21
0.0690000032773241
 31
0
 12
0.0960000045597553
 22
0.0690000032773241
 32
0
 13
0.0960000045597553
 23
-0.0690000032773241
 33
0
0
3DFACE
8
23
 62
23
 10
-0.0960000045597553
 20
-0.0690000032773241
 30
0.0430000020423904
 11
-0.0960000045597553
 21
0.0690000032773241
 31
0.0430000020423904
 12
0.0960000045597553
 22
0.0690000032773241
 32
0.0430000020423904
 13
0.0960000045597553
 23
-0.0690000032773241
 33
0.0430000020423904
0
3DFACE
8
23
 62
23
 10
0.0960000045597553
 20
-0.0690000032773241
 30
0
 11
-0.0960000045597553
 21
-0.0690000032773241
 31
0
 12
-0.0960000045597553
 22
-0.0690000032773241
 32
0.0430000020423904
 13
0.0960000045597553
 23
-0.0690000032773241
 33
0.0430000020423904
0
3DFACE
8
23
 62
23
 10
-0.0960000045597553
 20
-0.0690000032773241
 30
0
 11
-0.0960000045597553
 21
0.0690000032773241
 31
0
 12
-0.0960000045597553
 22
0.0690000032773241
 32
0.0430000020423904
 13
-0.0960000045597553
 23
-0.0690000032773241
 33
0.0430000020423904
0
3DFACE
8
23
 62
23
 10
-0.0960000045597553
 20
0.0690000032773241
 30
0
 11
0.0960000045597553
 21
0.0690000032773241
 31
0
 12
0.0960000045597553
 22
0.0690000032773241
 32
0.0430000020423904
 13
-0.0960000045597553
 23
0.0690000032773241
 33
0.0430000020423904
0
3DFACE
8
23
 62
23
 10
0.0960000045597553
 20
0.0690000032773241
 30
0
 11
0.0960000045597553
 21
-0.0690000032773241
 31
0
 12
0.0960000045597553
 22
-0.0690000032773241
 32
0.0430000020423904
 13
0.0960000045597553
 23
0.0690000032773241
 33
0.0430000020423904
 0
ENDBLK
0
ENDSEC
0
SECTION
2
ENTITIES
 0
INSERT
 8
8
 2
TOP_PLACE_BOUND_Polygon_34
 10
0
 20
0
 30
0
 41
1
 42
1
 43
1
 0
INSERT
 8
23
 2
TOP_VALOR_Polygon_53
 10
0
 20
0
 30
0
 41
1
 42
1
 43
1
0
ENDSEC
 0
EOF

