 999
VISION3D DXF
0
SECTION
2
HEADER
0
ENDSEC
0
SECTION
2
TABLES
0
ENDSEC
0
SECTION
2
BLOCKS
 0
BLOCK
 70
0
 2
TOP_PLACE_BOUND_Polygon_23
 10
0
 20
0
 30
0
0
3DFACE
8
8
 62
8
 10
-0.117787404886593
 20
-0.0328267723416587
 30
0
 11
-0.117787404886593
 21
0.0328267723416587
 31
0
 12
-0.0761023519423043
 22
0.0328267723416587
 32
0
 13
-0.0761023519423043
 23
0.0328267723416587
 33
0
0
3DFACE
8
8
 62
8
 10
-0.117787404886593
 20
-0.0328267723416587
 30
0
 11
-0.0761023519423043
 21
0.0328267723416587
 31
0
 12
0.0761023519423043
 22
0.0465748007961686
 32
0
 13
0.0761023519423043
 23
0.0465748007961686
 33
0
0
3DFACE
8
8
 62
8
 10
-0.0761023519423043
 20
0.0328267723416587
 30
0
 11
-0.0761023519423043
 21
0.0465748007961686
 31
0
 12
0.0761023519423043
 22
0.0465748007961686
 32
0
 13
0.0761023519423043
 23
0.0465748007961686
 33
0
0
3DFACE
8
8
 62
8
 10
-0.117787404886593
 20
-0.0328267723416587
 30
0
 11
0.0761023519423043
 21
0.0465748007961686
 31
0
 12
0.0761023519423043
 22
0.0328267723416587
 32
0
 13
0.0761023519423043
 23
0.0328267723416587
 33
0
0
3DFACE
8
8
 62
8
 10
-0.117787404886593
 20
-0.0328267723416587
 30
0
 11
0.0761023519423043
 21
0.0328267723416587
 31
0
 12
0.117787404886593
 22
0.0328267723416587
 32
0
 13
0.117787404886593
 23
0.0328267723416587
 33
0
0
3DFACE
8
8
 62
8
 10
-0.117787404886593
 20
-0.0328267723416587
 30
0
 11
0.117787404886593
 21
0.0328267723416587
 31
0
 12
-0.0761023519423043
 22
-0.0328267723416587
 32
0
 13
-0.0761023519423043
 23
-0.0328267723416587
 33
0
0
3DFACE
8
8
 62
8
 10
0.117787404886593
 20
0.0328267723416587
 30
0
 11
0.117787404886593
 21
-0.0328267723416587
 31
0
 12
0.0761023519423043
 22
-0.0328267723416587
 32
0
 13
0.0761023519423043
 23
-0.0328267723416587
 33
0
0
3DFACE
8
8
 62
8
 10
0.117787404886593
 20
0.0328267723416587
 30
0
 11
0.0761023519423043
 21
-0.0328267723416587
 31
0
 12
-0.0761023519423043
 22
-0.0465748007961686
 32
0
 13
-0.0761023519423043
 23
-0.0465748007961686
 33
0
0
3DFACE
8
8
 62
8
 10
0.0761023519423043
 20
-0.0328267723416587
 30
0
 11
0.0761023519423043
 21
-0.0465748007961686
 31
0
 12
-0.0761023519423043
 22
-0.0465748007961686
 32
0
 13
-0.0761023519423043
 23
-0.0465748007961686
 33
0
0
3DFACE
8
8
 62
8
 10
0.117787404886593
 20
0.0328267723416587
 30
0
 11
-0.0761023519423043
 21
-0.0465748007961686
 31
0
 12
-0.0761023519423043
 22
-0.0328267723416587
 32
0
 13
-0.0761023519423043
 23
-0.0328267723416587
 33
0
0
3DFACE
8
8
 62
8
 10
-0.117787404886593
 20
-0.0328267723416587
 30
0.0320000015199184
 11
-0.117787404886593
 21
0.0328267723416587
 31
0.0320000015199184
 12
-0.0761023519423043
 22
0.0328267723416587
 32
0.0320000015199184
 13
-0.0761023519423043
 23
0.0328267723416587
 33
0.0320000015199184
0
3DFACE
8
8
 62
8
 10
-0.117787404886593
 20
-0.0328267723416587
 30
0.0320000015199184
 11
-0.0761023519423043
 21
0.0328267723416587
 31
0.0320000015199184
 12
0.0761023519423043
 22
0.0465748007961686
 32
0.0320000015199184
 13
0.0761023519423043
 23
0.0465748007961686
 33
0.0320000015199184
0
3DFACE
8
8
 62
8
 10
-0.0761023519423043
 20
0.0328267723416587
 30
0.0320000015199184
 11
-0.0761023519423043
 21
0.0465748007961686
 31
0.0320000015199184
 12
0.0761023519423043
 22
0.0465748007961686
 32
0.0320000015199184
 13
0.0761023519423043
 23
0.0465748007961686
 33
0.0320000015199184
0
3DFACE
8
8
 62
8
 10
-0.117787404886593
 20
-0.0328267723416587
 30
0.0320000015199184
 11
0.0761023519423043
 21
0.0465748007961686
 31
0.0320000015199184
 12
0.0761023519423043
 22
0.0328267723416587
 32
0.0320000015199184
 13
0.0761023519423043
 23
0.0328267723416587
 33
0.0320000015199184
0
3DFACE
8
8
 62
8
 10
-0.117787404886593
 20
-0.0328267723416587
 30
0.0320000015199184
 11
0.0761023519423043
 21
0.0328267723416587
 31
0.0320000015199184
 12
0.117787404886593
 22
0.0328267723416587
 32
0.0320000015199184
 13
0.117787404886593
 23
0.0328267723416587
 33
0.0320000015199184
0
3DFACE
8
8
 62
8
 10
-0.117787404886593
 20
-0.0328267723416587
 30
0.0320000015199184
 11
0.117787404886593
 21
0.0328267723416587
 31
0.0320000015199184
 12
-0.0761023519423043
 22
-0.0328267723416587
 32
0.0320000015199184
 13
-0.0761023519423043
 23
-0.0328267723416587
 33
0.0320000015199184
0
3DFACE
8
8
 62
8
 10
0.117787404886593
 20
0.0328267723416587
 30
0.0320000015199184
 11
0.117787404886593
 21
-0.0328267723416587
 31
0.0320000015199184
 12
0.0761023519423043
 22
-0.0328267723416587
 32
0.0320000015199184
 13
0.0761023519423043
 23
-0.0328267723416587
 33
0.0320000015199184
0
3DFACE
8
8
 62
8
 10
0.117787404886593
 20
0.0328267723416587
 30
0.0320000015199184
 11
0.0761023519423043
 21
-0.0328267723416587
 31
0.0320000015199184
 12
-0.0761023519423043
 22
-0.0465748007961686
 32
0.0320000015199184
 13
-0.0761023519423043
 23
-0.0465748007961686
 33
0.0320000015199184
0
3DFACE
8
8
 62
8
 10
0.0761023519423043
 20
-0.0328267723416587
 30
0.0320000015199184
 11
0.0761023519423043
 21
-0.0465748007961686
 31
0.0320000015199184
 12
-0.0761023519423043
 22
-0.0465748007961686
 32
0.0320000015199184
 13
-0.0761023519423043
 23
-0.0465748007961686
 33
0.0320000015199184
0
3DFACE
8
8
 62
8
 10
0.117787404886593
 20
0.0328267723416587
 30
0.0320000015199184
 11
-0.0761023519423043
 21
-0.0465748007961686
 31
0.0320000015199184
 12
-0.0761023519423043
 22
-0.0328267723416587
 32
0.0320000015199184
 13
-0.0761023519423043
 23
-0.0328267723416587
 33
0.0320000015199184
0
3DFACE
8
8
 62
8
 10
-0.0761023519423043
 20
-0.0328267723416587
 30
0
 11
-0.117787404886593
 21
-0.0328267723416587
 31
0
 12
-0.117787404886593
 22
-0.0328267723416587
 32
0.0320000015199184
 13
-0.0761023519423043
 23
-0.0328267723416587
 33
0.0320000015199184
0
3DFACE
8
8
 62
8
 10
-0.117787404886593
 20
-0.0328267723416587
 30
0
 11
-0.117787404886593
 21
0.0328267723416587
 31
0
 12
-0.117787404886593
 22
0.0328267723416587
 32
0.0320000015199184
 13
-0.117787404886593
 23
-0.0328267723416587
 33
0.0320000015199184
0
3DFACE
8
8
 62
8
 10
-0.117787404886593
 20
0.0328267723416587
 30
0
 11
-0.0761023519423043
 21
0.0328267723416587
 31
0
 12
-0.0761023519423043
 22
0.0328267723416587
 32
0.0320000015199184
 13
-0.117787404886593
 23
0.0328267723416587
 33
0.0320000015199184
0
3DFACE
8
8
 62
8
 10
-0.0761023519423043
 20
0.0328267723416587
 30
0
 11
-0.0761023519423043
 21
0.0465748007961686
 31
0
 12
-0.0761023519423043
 22
0.0465748007961686
 32
0.0320000015199184
 13
-0.0761023519423043
 23
0.0328267723416587
 33
0.0320000015199184
0
3DFACE
8
8
 62
8
 10
-0.0761023519423043
 20
0.0465748007961686
 30
0
 11
0.0761023519423043
 21
0.0465748007961686
 31
0
 12
0.0761023519423043
 22
0.0465748007961686
 32
0.0320000015199184
 13
-0.0761023519423043
 23
0.0465748007961686
 33
0.0320000015199184
0
3DFACE
8
8
 62
8
 10
0.0761023519423043
 20
0.0465748007961686
 30
0
 11
0.0761023519423043
 21
0.0328267723416587
 31
0
 12
0.0761023519423043
 22
0.0328267723416587
 32
0.0320000015199184
 13
0.0761023519423043
 23
0.0465748007961686
 33
0.0320000015199184
0
3DFACE
8
8
 62
8
 10
0.0761023519423043
 20
0.0328267723416587
 30
0
 11
0.117787404886593
 21
0.0328267723416587
 31
0
 12
0.117787404886593
 22
0.0328267723416587
 32
0.0320000015199184
 13
0.0761023519423043
 23
0.0328267723416587
 33
0.0320000015199184
0
3DFACE
8
8
 62
8
 10
0.117787404886593
 20
0.0328267723416587
 30
0
 11
0.117787404886593
 21
-0.0328267723416587
 31
0
 12
0.117787404886593
 22
-0.0328267723416587
 32
0.0320000015199184
 13
0.117787404886593
 23
0.0328267723416587
 33
0.0320000015199184
0
3DFACE
8
8
 62
8
 10
0.117787404886593
 20
-0.0328267723416587
 30
0
 11
0.0761023519423043
 21
-0.0328267723416587
 31
0
 12
0.0761023519423043
 22
-0.0328267723416587
 32
0.0320000015199184
 13
0.117787404886593
 23
-0.0328267723416587
 33
0.0320000015199184
0
3DFACE
8
8
 62
8
 10
0.0761023519423043
 20
-0.0328267723416587
 30
0
 11
0.0761023519423043
 21
-0.0465748007961686
 31
0
 12
0.0761023519423043
 22
-0.0465748007961686
 32
0.0320000015199184
 13
0.0761023519423043
 23
-0.0328267723416587
 33
0.0320000015199184
0
3DFACE
8
8
 62
8
 10
0.0761023519423043
 20
-0.0465748007961686
 30
0
 11
-0.0761023519423043
 21
-0.0465748007961686
 31
0
 12
-0.0761023519423043
 22
-0.0465748007961686
 32
0.0320000015199184
 13
0.0761023519423043
 23
-0.0465748007961686
 33
0.0320000015199184
0
3DFACE
8
8
 62
8
 10
-0.0761023519423043
 20
-0.0465748007961686
 30
0
 11
-0.0761023519423043
 21
-0.0328267723416587
 31
0
 12
-0.0761023519423043
 22
-0.0328267723416587
 32
0.0320000015199184
 13
-0.0761023519423043
 23
-0.0465748007961686
 33
0.0320000015199184
 0
ENDBLK
 0
BLOCK
 70
0
 2
TOP_VALOR_Polygon_48
 10
0
 20
0
 30
0
0
3DFACE
8
23
 62
23
 10
-0.122787412753476
 20
-0.0365748003211941
 30
0
 11
-0.122787412753476
 21
0.0365748003211941
 31
0
 12
0.122787412753476
 22
0.0365748003211941
 32
0
 13
0.122787412753476
 23
-0.0365748003211941
 33
0
0
3DFACE
8
23
 62
23
 10
-0.122787412753476
 20
-0.0365748003211941
 30
0.0320000015199184
 11
-0.122787412753476
 21
0.0365748003211941
 31
0.0320000015199184
 12
0.122787412753476
 22
0.0365748003211941
 32
0.0320000015199184
 13
0.122787412753476
 23
-0.0365748003211941
 33
0.0320000015199184
0
3DFACE
8
23
 62
23
 10
0.122787412753476
 20
-0.0365748003211941
 30
0
 11
-0.122787412753476
 21
-0.0365748003211941
 31
0
 12
-0.122787412753476
 22
-0.0365748003211941
 32
0.0320000015199184
 13
0.122787412753476
 23
-0.0365748003211941
 33
0.0320000015199184
0
3DFACE
8
23
 62
23
 10
-0.122787412753476
 20
-0.0365748003211941
 30
0
 11
-0.122787412753476
 21
0.0365748003211941
 31
0
 12
-0.122787412753476
 22
0.0365748003211941
 32
0.0320000015199184
 13
-0.122787412753476
 23
-0.0365748003211941
 33
0.0320000015199184
0
3DFACE
8
23
 62
23
 10
-0.122787412753476
 20
0.0365748003211941
 30
0
 11
0.122787412753476
 21
0.0365748003211941
 31
0
 12
0.122787412753476
 22
0.0365748003211941
 32
0.0320000015199184
 13
-0.122787412753476
 23
0.0365748003211941
 33
0.0320000015199184
0
3DFACE
8
23
 62
23
 10
0.122787412753476
 20
0.0365748003211941
 30
0
 11
0.122787412753476
 21
-0.0365748003211941
 31
0
 12
0.122787412753476
 22
-0.0365748003211941
 32
0.0320000015199184
 13
0.122787412753476
 23
0.0365748003211941
 33
0.0320000015199184
 0
ENDBLK
0
ENDSEC
0
SECTION
2
ENTITIES
 0
INSERT
 8
8
 2
TOP_PLACE_BOUND_Polygon_23
 10
0
 20
0
 30
0
 41
1
 42
1
 43
1
 0
INSERT
 8
23
 2
TOP_VALOR_Polygon_48
 10
0
 20
0
 30
0
 41
1
 42
1
 43
1
0
ENDSEC
 0
EOF

