 999
VISION3D DXF
0
SECTION
2
HEADER
0
ENDSEC
0
SECTION
2
TABLES
0
ENDSEC
0
SECTION
2
BLOCKS
 0
BLOCK
 70
0
 2
TOP_PLACE_BOUND_Polygon_23
 10
0
 20
0
 30
0
0
3DFACE
8
8
 62
8
 10
-0.085787403366675
 20
-0.0148267705330302
 30
0
 11
-0.085787403366675
 21
0.0148267705330302
 31
0
 12
-0.0601023511823451
 22
0.0148267705330302
 32
0
 13
-0.0601023511823451
 23
0.0148267705330302
 33
0
0
3DFACE
8
8
 62
8
 10
-0.085787403366675
 20
-0.0148267705330302
 30
0
 11
-0.0601023511823451
 21
0.0148267705330302
 31
0
 12
0.0601023511823451
 22
0.0305748019435581
 32
0
 13
0.0601023511823451
 23
0.0305748019435581
 33
0
0
3DFACE
8
8
 62
8
 10
-0.0601023511823451
 20
0.0148267705330302
 30
0
 11
-0.0601023511823451
 21
0.0305748019435581
 31
0
 12
0.0601023511823451
 22
0.0305748019435581
 32
0
 13
0.0601023511823451
 23
0.0305748019435581
 33
0
0
3DFACE
8
8
 62
8
 10
-0.085787403366675
 20
-0.0148267705330302
 30
0
 11
0.0601023511823451
 21
0.0305748019435581
 31
0
 12
0.0601023511823451
 22
0.0148267705330302
 32
0
 13
0.0601023511823451
 23
0.0148267705330302
 33
0
0
3DFACE
8
8
 62
8
 10
-0.085787403366675
 20
-0.0148267705330302
 30
0
 11
0.0601023511823451
 21
0.0148267705330302
 31
0
 12
0.085787403366675
 22
0.0148267705330302
 32
0
 13
0.085787403366675
 23
0.0148267705330302
 33
0
0
3DFACE
8
8
 62
8
 10
-0.085787403366675
 20
-0.0148267705330302
 30
0
 11
0.085787403366675
 21
0.0148267705330302
 31
0
 12
-0.0601023511823451
 22
-0.0148267705330302
 32
0
 13
-0.0601023511823451
 23
-0.0148267705330302
 33
0
0
3DFACE
8
8
 62
8
 10
0.085787403366675
 20
0.0148267705330302
 30
0
 11
0.085787403366675
 21
-0.0148267705330302
 31
0
 12
0.0601023511823451
 22
-0.0148267705330302
 32
0
 13
0.0601023511823451
 23
-0.0148267705330302
 33
0
0
3DFACE
8
8
 62
8
 10
0.085787403366675
 20
0.0148267705330302
 30
0
 11
0.0601023511823451
 21
-0.0148267705330302
 31
0
 12
-0.0601023511823451
 22
-0.0305748019435581
 32
0
 13
-0.0601023511823451
 23
-0.0305748019435581
 33
0
0
3DFACE
8
8
 62
8
 10
0.0601023511823451
 20
-0.0148267705330302
 30
0
 11
0.0601023511823451
 21
-0.0305748019435581
 31
0
 12
-0.0601023511823451
 22
-0.0305748019435581
 32
0
 13
-0.0601023511823451
 23
-0.0305748019435581
 33
0
0
3DFACE
8
8
 62
8
 10
0.085787403366675
 20
0.0148267705330302
 30
0
 11
-0.0601023511823451
 21
-0.0305748019435581
 31
0
 12
-0.0601023511823451
 22
-0.0148267705330302
 32
0
 13
-0.0601023511823451
 23
-0.0148267705330302
 33
0
0
3DFACE
8
8
 62
8
 10
-0.085787403366675
 20
-0.0148267705330302
 30
0.0320000015199184
 11
-0.085787403366675
 21
0.0148267705330302
 31
0.0320000015199184
 12
-0.0601023511823451
 22
0.0148267705330302
 32
0.0320000015199184
 13
-0.0601023511823451
 23
0.0148267705330302
 33
0.0320000015199184
0
3DFACE
8
8
 62
8
 10
-0.085787403366675
 20
-0.0148267705330302
 30
0.0320000015199184
 11
-0.0601023511823451
 21
0.0148267705330302
 31
0.0320000015199184
 12
0.0601023511823451
 22
0.0305748019435581
 32
0.0320000015199184
 13
0.0601023511823451
 23
0.0305748019435581
 33
0.0320000015199184
0
3DFACE
8
8
 62
8
 10
-0.0601023511823451
 20
0.0148267705330302
 30
0.0320000015199184
 11
-0.0601023511823451
 21
0.0305748019435581
 31
0.0320000015199184
 12
0.0601023511823451
 22
0.0305748019435581
 32
0.0320000015199184
 13
0.0601023511823451
 23
0.0305748019435581
 33
0.0320000015199184
0
3DFACE
8
8
 62
8
 10
-0.085787403366675
 20
-0.0148267705330302
 30
0.0320000015199184
 11
0.0601023511823451
 21
0.0305748019435581
 31
0.0320000015199184
 12
0.0601023511823451
 22
0.0148267705330302
 32
0.0320000015199184
 13
0.0601023511823451
 23
0.0148267705330302
 33
0.0320000015199184
0
3DFACE
8
8
 62
8
 10
-0.085787403366675
 20
-0.0148267705330302
 30
0.0320000015199184
 11
0.0601023511823451
 21
0.0148267705330302
 31
0.0320000015199184
 12
0.085787403366675
 22
0.0148267705330302
 32
0.0320000015199184
 13
0.085787403366675
 23
0.0148267705330302
 33
0.0320000015199184
0
3DFACE
8
8
 62
8
 10
-0.085787403366675
 20
-0.0148267705330302
 30
0.0320000015199184
 11
0.085787403366675
 21
0.0148267705330302
 31
0.0320000015199184
 12
-0.0601023511823451
 22
-0.0148267705330302
 32
0.0320000015199184
 13
-0.0601023511823451
 23
-0.0148267705330302
 33
0.0320000015199184
0
3DFACE
8
8
 62
8
 10
0.085787403366675
 20
0.0148267705330302
 30
0.0320000015199184
 11
0.085787403366675
 21
-0.0148267705330302
 31
0.0320000015199184
 12
0.0601023511823451
 22
-0.0148267705330302
 32
0.0320000015199184
 13
0.0601023511823451
 23
-0.0148267705330302
 33
0.0320000015199184
0
3DFACE
8
8
 62
8
 10
0.085787403366675
 20
0.0148267705330302
 30
0.0320000015199184
 11
0.0601023511823451
 21
-0.0148267705330302
 31
0.0320000015199184
 12
-0.0601023511823451
 22
-0.0305748019435581
 32
0.0320000015199184
 13
-0.0601023511823451
 23
-0.0305748019435581
 33
0.0320000015199184
0
3DFACE
8
8
 62
8
 10
0.0601023511823451
 20
-0.0148267705330302
 30
0.0320000015199184
 11
0.0601023511823451
 21
-0.0305748019435581
 31
0.0320000015199184
 12
-0.0601023511823451
 22
-0.0305748019435581
 32
0.0320000015199184
 13
-0.0601023511823451
 23
-0.0305748019435581
 33
0.0320000015199184
0
3DFACE
8
8
 62
8
 10
0.085787403366675
 20
0.0148267705330302
 30
0.0320000015199184
 11
-0.0601023511823451
 21
-0.0305748019435581
 31
0.0320000015199184
 12
-0.0601023511823451
 22
-0.0148267705330302
 32
0.0320000015199184
 13
-0.0601023511823451
 23
-0.0148267705330302
 33
0.0320000015199184
0
3DFACE
8
8
 62
8
 10
-0.0601023511823451
 20
-0.0148267705330302
 30
0
 11
-0.085787403366675
 21
-0.0148267705330302
 31
0
 12
-0.085787403366675
 22
-0.0148267705330302
 32
0.0320000015199184
 13
-0.0601023511823451
 23
-0.0148267705330302
 33
0.0320000015199184
0
3DFACE
8
8
 62
8
 10
-0.085787403366675
 20
-0.0148267705330302
 30
0
 11
-0.085787403366675
 21
0.0148267705330302
 31
0
 12
-0.085787403366675
 22
0.0148267705330302
 32
0.0320000015199184
 13
-0.085787403366675
 23
-0.0148267705330302
 33
0.0320000015199184
0
3DFACE
8
8
 62
8
 10
-0.085787403366675
 20
0.0148267705330302
 30
0
 11
-0.0601023511823451
 21
0.0148267705330302
 31
0
 12
-0.0601023511823451
 22
0.0148267705330302
 32
0.0320000015199184
 13
-0.085787403366675
 23
0.0148267705330302
 33
0.0320000015199184
0
3DFACE
8
8
 62
8
 10
-0.0601023511823451
 20
0.0148267705330302
 30
0
 11
-0.0601023511823451
 21
0.0305748019435581
 31
0
 12
-0.0601023511823451
 22
0.0305748019435581
 32
0.0320000015199184
 13
-0.0601023511823451
 23
0.0148267705330302
 33
0.0320000015199184
0
3DFACE
8
8
 62
8
 10
-0.0601023511823451
 20
0.0305748019435581
 30
0
 11
0.0601023511823451
 21
0.0305748019435581
 31
0
 12
0.0601023511823451
 22
0.0305748019435581
 32
0.0320000015199184
 13
-0.0601023511823451
 23
0.0305748019435581
 33
0.0320000015199184
0
3DFACE
8
8
 62
8
 10
0.0601023511823451
 20
0.0305748019435581
 30
0
 11
0.0601023511823451
 21
0.0148267705330302
 31
0
 12
0.0601023511823451
 22
0.0148267705330302
 32
0.0320000015199184
 13
0.0601023511823451
 23
0.0305748019435581
 33
0.0320000015199184
0
3DFACE
8
8
 62
8
 10
0.0601023511823451
 20
0.0148267705330302
 30
0
 11
0.085787403366675
 21
0.0148267705330302
 31
0
 12
0.085787403366675
 22
0.0148267705330302
 32
0.0320000015199184
 13
0.0601023511823451
 23
0.0148267705330302
 33
0.0320000015199184
0
3DFACE
8
8
 62
8
 10
0.085787403366675
 20
0.0148267705330302
 30
0
 11
0.085787403366675
 21
-0.0148267705330302
 31
0
 12
0.085787403366675
 22
-0.0148267705330302
 32
0.0320000015199184
 13
0.085787403366675
 23
0.0148267705330302
 33
0.0320000015199184
0
3DFACE
8
8
 62
8
 10
0.085787403366675
 20
-0.0148267705330302
 30
0
 11
0.0601023511823451
 21
-0.0148267705330302
 31
0
 12
0.0601023511823451
 22
-0.0148267705330302
 32
0.0320000015199184
 13
0.085787403366675
 23
-0.0148267705330302
 33
0.0320000015199184
0
3DFACE
8
8
 62
8
 10
0.0601023511823451
 20
-0.0148267705330302
 30
0
 11
0.0601023511823451
 21
-0.0305748019435581
 31
0
 12
0.0601023511823451
 22
-0.0305748019435581
 32
0.0320000015199184
 13
0.0601023511823451
 23
-0.0148267705330302
 33
0.0320000015199184
0
3DFACE
8
8
 62
8
 10
0.0601023511823451
 20
-0.0305748019435581
 30
0
 11
-0.0601023511823451
 21
-0.0305748019435581
 31
0
 12
-0.0601023511823451
 22
-0.0305748019435581
 32
0.0320000015199184
 13
0.0601023511823451
 23
-0.0305748019435581
 33
0.0320000015199184
0
3DFACE
8
8
 62
8
 10
-0.0601023511823451
 20
-0.0305748019435581
 30
0
 11
-0.0601023511823451
 21
-0.0148267705330302
 31
0
 12
-0.0601023511823451
 22
-0.0148267705330302
 32
0.0320000015199184
 13
-0.0601023511823451
 23
-0.0305748019435581
 33
0.0320000015199184
 0
ENDBLK
 0
BLOCK
 70
0
 2
TOP_VALOR_Polygon_48
 10
0
 20
0
 30
0
0
3DFACE
8
23
 62
23
 10
-0.106787411993517
 20
-0.0365748003211941
 30
0
 11
-0.106787411993517
 21
0.0365748003211941
 31
0
 12
0.106787411993517
 22
0.0365748003211941
 32
0
 13
0.106787411993517
 23
-0.0365748003211941
 33
0
0
3DFACE
8
23
 62
23
 10
-0.106787411993517
 20
-0.0365748003211941
 30
0.0320000015199184
 11
-0.106787411993517
 21
0.0365748003211941
 31
0.0320000015199184
 12
0.106787411993517
 22
0.0365748003211941
 32
0.0320000015199184
 13
0.106787411993517
 23
-0.0365748003211941
 33
0.0320000015199184
0
3DFACE
8
23
 62
23
 10
0.106787411993517
 20
-0.0365748003211941
 30
0
 11
-0.106787411993517
 21
-0.0365748003211941
 31
0
 12
-0.106787411993517
 22
-0.0365748003211941
 32
0.0320000015199184
 13
0.106787411993517
 23
-0.0365748003211941
 33
0.0320000015199184
0
3DFACE
8
23
 62
23
 10
-0.106787411993517
 20
-0.0365748003211941
 30
0
 11
-0.106787411993517
 21
0.0365748003211941
 31
0
 12
-0.106787411993517
 22
0.0365748003211941
 32
0.0320000015199184
 13
-0.106787411993517
 23
-0.0365748003211941
 33
0.0320000015199184
0
3DFACE
8
23
 62
23
 10
-0.106787411993517
 20
0.0365748003211941
 30
0
 11
0.106787411993517
 21
0.0365748003211941
 31
0
 12
0.106787411993517
 22
0.0365748003211941
 32
0.0320000015199184
 13
-0.106787411993517
 23
0.0365748003211941
 33
0.0320000015199184
0
3DFACE
8
23
 62
23
 10
0.106787411993517
 20
0.0365748003211941
 30
0
 11
0.106787411993517
 21
-0.0365748003211941
 31
0
 12
0.106787411993517
 22
-0.0365748003211941
 32
0.0320000015199184
 13
0.106787411993517
 23
0.0365748003211941
 33
0.0320000015199184
 0
ENDBLK
0
ENDSEC
0
SECTION
2
ENTITIES
 0
INSERT
 8
8
 2
TOP_PLACE_BOUND_Polygon_23
 10
0
 20
0
 30
0
 41
1
 42
1
 43
1
 0
INSERT
 8
23
 2
TOP_VALOR_Polygon_48
 10
0
 20
0
 30
0
 41
1
 42
1
 43
1
0
ENDSEC
 0
EOF

