 999
VISION3D DXF
0
SECTION
2
HEADER
0
ENDSEC
0
SECTION
2
TABLES
0
ENDSEC
0
SECTION
2
BLOCKS
 0
BLOCK
 70
0
 2
TOP_PLACE_BOUND_Polygon_37
 10
0
 20
0
 30
0
0
3DFACE
8
8
 62
8
 10
-0.154000007314608
 20
-0.177000008407049
 30
0
 11
-0.154000007314608
 21
0.181000008597039
 31
0
 12
0.154000007314608
 22
0.181000008597039
 32
0
 13
0.154000007314608
 23
0.181000008597039
 33
0
0
3DFACE
8
8
 62
8
 10
-0.154000007314608
 20
-0.177000008407049
 30
0
 11
0.154000007314608
 21
0.181000008597039
 31
0
 12
-0.126500006008428
 22
-0.177000008407049
 32
0
 13
-0.126500006008428
 23
-0.177000008407049
 33
0
0
3DFACE
8
8
 62
8
 10
0.154000007314608
 20
0.181000008597039
 30
0
 11
0.154000007314608
 21
-0.177000008407049
 31
0
 12
0.126500006008428
 22
-0.177000008407049
 32
0
 13
0.126500006008428
 23
-0.177000008407049
 33
0
0
3DFACE
8
8
 62
8
 10
0.154000007314608
 20
0.181000008597039
 30
0
 11
0.126500006008428
 21
-0.177000008407049
 31
0
 12
0.0535000025411136
 22
-0.312000014819205
 32
0
 13
0.0535000025411136
 23
-0.312000014819205
 33
0
0
3DFACE
8
8
 62
8
 10
0.126500006008428
 20
-0.177000008407049
 30
0
 11
0.126500006008428
 21
-0.312000014819205
 31
0
 12
0.0535000025411136
 22
-0.312000014819205
 32
0
 13
0.0535000025411136
 23
-0.312000014819205
 33
0
0
3DFACE
8
8
 62
8
 10
0.154000007314608
 20
0.181000008597039
 30
0
 11
0.0535000025411136
 21
-0.312000014819205
 31
0
 12
0.0535000025411136
 22
-0.205000009736978
 32
0
 13
0.0535000025411136
 23
-0.205000009736978
 33
0
0
3DFACE
8
8
 62
8
 10
0.154000007314608
 20
0.181000008597039
 30
0
 11
0.0535000025411136
 21
-0.205000009736978
 31
0
 12
-0.0535000025411136
 22
-0.205000009736978
 32
0
 13
-0.0535000025411136
 23
-0.205000009736978
 33
0
0
3DFACE
8
8
 62
8
 10
0.154000007314608
 20
0.181000008597039
 30
0
 11
-0.0535000025411136
 21
-0.205000009736978
 31
0
 12
-0.126500006008428
 22
-0.312000014819205
 32
0
 13
-0.126500006008428
 23
-0.312000014819205
 33
0
0
3DFACE
8
8
 62
8
 10
-0.0535000025411136
 20
-0.205000009736978
 30
0
 11
-0.0535000025411136
 21
-0.312000014819205
 31
0
 12
-0.126500006008428
 22
-0.312000014819205
 32
0
 13
-0.126500006008428
 23
-0.312000014819205
 33
0
0
3DFACE
8
8
 62
8
 10
0.154000007314608
 20
0.181000008597039
 30
0
 11
-0.126500006008428
 21
-0.312000014819205
 31
0
 12
-0.126500006008428
 22
-0.177000008407049
 32
0
 13
-0.126500006008428
 23
-0.177000008407049
 33
0
0
3DFACE
8
8
 62
8
 10
-0.154000007314608
 20
-0.177000008407049
 30
0.0940000044647604
 11
-0.154000007314608
 21
0.181000008597039
 31
0.0940000044647604
 12
0.154000007314608
 22
0.181000008597039
 32
0.0940000044647604
 13
0.154000007314608
 23
0.181000008597039
 33
0.0940000044647604
0
3DFACE
8
8
 62
8
 10
-0.154000007314608
 20
-0.177000008407049
 30
0.0940000044647604
 11
0.154000007314608
 21
0.181000008597039
 31
0.0940000044647604
 12
-0.126500006008428
 22
-0.177000008407049
 32
0.0940000044647604
 13
-0.126500006008428
 23
-0.177000008407049
 33
0.0940000044647604
0
3DFACE
8
8
 62
8
 10
0.154000007314608
 20
0.181000008597039
 30
0.0940000044647604
 11
0.154000007314608
 21
-0.177000008407049
 31
0.0940000044647604
 12
0.126500006008428
 22
-0.177000008407049
 32
0.0940000044647604
 13
0.126500006008428
 23
-0.177000008407049
 33
0.0940000044647604
0
3DFACE
8
8
 62
8
 10
0.154000007314608
 20
0.181000008597039
 30
0.0940000044647604
 11
0.126500006008428
 21
-0.177000008407049
 31
0.0940000044647604
 12
0.0535000025411136
 22
-0.312000014819205
 32
0.0940000044647604
 13
0.0535000025411136
 23
-0.312000014819205
 33
0.0940000044647604
0
3DFACE
8
8
 62
8
 10
0.126500006008428
 20
-0.177000008407049
 30
0.0940000044647604
 11
0.126500006008428
 21
-0.312000014819205
 31
0.0940000044647604
 12
0.0535000025411136
 22
-0.312000014819205
 32
0.0940000044647604
 13
0.0535000025411136
 23
-0.312000014819205
 33
0.0940000044647604
0
3DFACE
8
8
 62
8
 10
0.154000007314608
 20
0.181000008597039
 30
0.0940000044647604
 11
0.0535000025411136
 21
-0.312000014819205
 31
0.0940000044647604
 12
0.0535000025411136
 22
-0.205000009736978
 32
0.0940000044647604
 13
0.0535000025411136
 23
-0.205000009736978
 33
0.0940000044647604
0
3DFACE
8
8
 62
8
 10
0.154000007314608
 20
0.181000008597039
 30
0.0940000044647604
 11
0.0535000025411136
 21
-0.205000009736978
 31
0.0940000044647604
 12
-0.0535000025411136
 22
-0.205000009736978
 32
0.0940000044647604
 13
-0.0535000025411136
 23
-0.205000009736978
 33
0.0940000044647604
0
3DFACE
8
8
 62
8
 10
0.154000007314608
 20
0.181000008597039
 30
0.0940000044647604
 11
-0.0535000025411136
 21
-0.205000009736978
 31
0.0940000044647604
 12
-0.126500006008428
 22
-0.312000014819205
 32
0.0940000044647604
 13
-0.126500006008428
 23
-0.312000014819205
 33
0.0940000044647604
0
3DFACE
8
8
 62
8
 10
-0.0535000025411136
 20
-0.205000009736978
 30
0.0940000044647604
 11
-0.0535000025411136
 21
-0.312000014819205
 31
0.0940000044647604
 12
-0.126500006008428
 22
-0.312000014819205
 32
0.0940000044647604
 13
-0.126500006008428
 23
-0.312000014819205
 33
0.0940000044647604
0
3DFACE
8
8
 62
8
 10
0.154000007314608
 20
0.181000008597039
 30
0.0940000044647604
 11
-0.126500006008428
 21
-0.312000014819205
 31
0.0940000044647604
 12
-0.126500006008428
 22
-0.177000008407049
 32
0.0940000044647604
 13
-0.126500006008428
 23
-0.177000008407049
 33
0.0940000044647604
0
3DFACE
8
8
 62
8
 10
-0.126500006008428
 20
-0.177000008407049
 30
0
 11
-0.154000007314608
 21
-0.177000008407049
 31
0
 12
-0.154000007314608
 22
-0.177000008407049
 32
0.0940000044647604
 13
-0.126500006008428
 23
-0.177000008407049
 33
0.0940000044647604
0
3DFACE
8
8
 62
8
 10
-0.154000007314608
 20
-0.177000008407049
 30
0
 11
-0.154000007314608
 21
0.181000008597039
 31
0
 12
-0.154000007314608
 22
0.181000008597039
 32
0.0940000044647604
 13
-0.154000007314608
 23
-0.177000008407049
 33
0.0940000044647604
0
3DFACE
8
8
 62
8
 10
-0.154000007314608
 20
0.181000008597039
 30
0
 11
0.154000007314608
 21
0.181000008597039
 31
0
 12
0.154000007314608
 22
0.181000008597039
 32
0.0940000044647604
 13
-0.154000007314608
 23
0.181000008597039
 33
0.0940000044647604
0
3DFACE
8
8
 62
8
 10
0.154000007314608
 20
0.181000008597039
 30
0
 11
0.154000007314608
 21
-0.177000008407049
 31
0
 12
0.154000007314608
 22
-0.177000008407049
 32
0.0940000044647604
 13
0.154000007314608
 23
0.181000008597039
 33
0.0940000044647604
0
3DFACE
8
8
 62
8
 10
0.154000007314608
 20
-0.177000008407049
 30
0
 11
0.126500006008428
 21
-0.177000008407049
 31
0
 12
0.126500006008428
 22
-0.177000008407049
 32
0.0940000044647604
 13
0.154000007314608
 23
-0.177000008407049
 33
0.0940000044647604
0
3DFACE
8
8
 62
8
 10
0.126500006008428
 20
-0.177000008407049
 30
0
 11
0.126500006008428
 21
-0.312000014819205
 31
0
 12
0.126500006008428
 22
-0.312000014819205
 32
0.0940000044647604
 13
0.126500006008428
 23
-0.177000008407049
 33
0.0940000044647604
0
3DFACE
8
8
 62
8
 10
0.126500006008428
 20
-0.312000014819205
 30
0
 11
0.0535000025411136
 21
-0.312000014819205
 31
0
 12
0.0535000025411136
 22
-0.312000014819205
 32
0.0940000044647604
 13
0.126500006008428
 23
-0.312000014819205
 33
0.0940000044647604
0
3DFACE
8
8
 62
8
 10
0.0535000025411136
 20
-0.312000014819205
 30
0
 11
0.0535000025411136
 21
-0.205000009736978
 31
0
 12
0.0535000025411136
 22
-0.205000009736978
 32
0.0940000044647604
 13
0.0535000025411136
 23
-0.312000014819205
 33
0.0940000044647604
0
3DFACE
8
8
 62
8
 10
0.0535000025411136
 20
-0.205000009736978
 30
0
 11
-0.0535000025411136
 21
-0.205000009736978
 31
0
 12
-0.0535000025411136
 22
-0.205000009736978
 32
0.0940000044647604
 13
0.0535000025411136
 23
-0.205000009736978
 33
0.0940000044647604
0
3DFACE
8
8
 62
8
 10
-0.0535000025411136
 20
-0.205000009736978
 30
0
 11
-0.0535000025411136
 21
-0.312000014819205
 31
0
 12
-0.0535000025411136
 22
-0.312000014819205
 32
0.0940000044647604
 13
-0.0535000025411136
 23
-0.205000009736978
 33
0.0940000044647604
0
3DFACE
8
8
 62
8
 10
-0.0535000025411136
 20
-0.312000014819205
 30
0
 11
-0.126500006008428
 21
-0.312000014819205
 31
0
 12
-0.126500006008428
 22
-0.312000014819205
 32
0.0940000044647604
 13
-0.0535000025411136
 23
-0.312000014819205
 33
0.0940000044647604
0
3DFACE
8
8
 62
8
 10
-0.126500006008428
 20
-0.312000014819205
 30
0
 11
-0.126500006008428
 21
-0.177000008407049
 31
0
 12
-0.126500006008428
 22
-0.177000008407049
 32
0.0940000044647604
 13
-0.126500006008428
 23
-0.312000014819205
 33
0.0940000044647604
 0
ENDBLK
 0
BLOCK
 70
0
 2
TOP_VALOR_Polygon_56
 10
0
 20
0
 30
0
0
3DFACE
8
23
 62
23
 10
-0.1570000074571
 20
-0.317000015056692
 30
0
 11
-0.1570000074571
 21
0.184000008739531
 31
0
 12
0.1570000074571
 22
0.184000008739531
 32
0
 13
0.1570000074571
 23
-0.317000015056692
 33
0
0
3DFACE
8
23
 62
23
 10
-0.1570000074571
 20
-0.317000015056692
 30
0.0940000044647604
 11
-0.1570000074571
 21
0.184000008739531
 31
0.0940000044647604
 12
0.1570000074571
 22
0.184000008739531
 32
0.0940000044647604
 13
0.1570000074571
 23
-0.317000015056692
 33
0.0940000044647604
0
3DFACE
8
23
 62
23
 10
0.1570000074571
 20
-0.317000015056692
 30
0
 11
-0.1570000074571
 21
-0.317000015056692
 31
0
 12
-0.1570000074571
 22
-0.317000015056692
 32
0.0940000044647604
 13
0.1570000074571
 23
-0.317000015056692
 33
0.0940000044647604
0
3DFACE
8
23
 62
23
 10
-0.1570000074571
 20
-0.317000015056692
 30
0
 11
-0.1570000074571
 21
0.184000008739531
 31
0
 12
-0.1570000074571
 22
0.184000008739531
 32
0.0940000044647604
 13
-0.1570000074571
 23
-0.317000015056692
 33
0.0940000044647604
0
3DFACE
8
23
 62
23
 10
-0.1570000074571
 20
0.184000008739531
 30
0
 11
0.1570000074571
 21
0.184000008739531
 31
0
 12
0.1570000074571
 22
0.184000008739531
 32
0.0940000044647604
 13
-0.1570000074571
 23
0.184000008739531
 33
0.0940000044647604
0
3DFACE
8
23
 62
23
 10
0.1570000074571
 20
0.184000008739531
 30
0
 11
0.1570000074571
 21
-0.317000015056692
 31
0
 12
0.1570000074571
 22
-0.317000015056692
 32
0.0940000044647604
 13
0.1570000074571
 23
0.184000008739531
 33
0.0940000044647604
 0
ENDBLK
0
ENDSEC
0
SECTION
2
ENTITIES
 0
INSERT
 8
8
 2
TOP_PLACE_BOUND_Polygon_37
 10
0
 20
0
 30
0
 41
1
 42
1
 43
1
 0
INSERT
 8
23
 2
TOP_VALOR_Polygon_56
 10
0
 20
0
 30
0
 41
1
 42
1
 43
1
0
ENDSEC
 0
EOF

