 999
VISION3D DXF
0
SECTION
2
HEADER
0
ENDSEC
0
SECTION
2
TABLES
0
ENDSEC
0
SECTION
2
BLOCKS
 0
BLOCK
 70
0
 2
TOP_PLACE_BOUND_Polygon_37
 10
0
 20
0
 30
0
0
3DFACE
8
8
 62
8
 10
-0.134000006364658
 20
-0.15300000726711
 30
0
 11
-0.134000006364658
 21
0.14900000707712
 31
0
 12
0.134000006364658
 22
0.14900000707712
 32
0
 13
0.134000006364658
 23
0.14900000707712
 33
0
0
3DFACE
8
8
 62
8
 10
-0.134000006364658
 20
-0.15300000726711
 30
0
 11
0.134000006364658
 21
0.14900000707712
 31
0
 12
-0.110500005248468
 22
-0.15300000726711
 32
0
 13
-0.110500005248468
 23
-0.15300000726711
 33
0
0
3DFACE
8
8
 62
8
 10
0.134000006364658
 20
0.14900000707712
 30
0
 11
0.134000006364658
 21
-0.15300000726711
 31
0
 12
0.110500005248468
 22
-0.15300000726711
 32
0
 13
0.110500005248468
 23
-0.15300000726711
 33
0
0
3DFACE
8
8
 62
8
 10
0.134000006364658
 20
0.14900000707712
 30
0
 11
0.110500005248468
 21
-0.15300000726711
 31
0
 12
0.0695000033010729
 22
-0.280000013299286
 32
0
 13
0.0695000033010729
 23
-0.280000013299286
 33
0
0
3DFACE
8
8
 62
8
 10
0.110500005248468
 20
-0.15300000726711
 30
0
 11
0.110500005248468
 21
-0.280000013299286
 31
0
 12
0.0695000033010729
 22
-0.280000013299286
 32
0
 13
0.0695000033010729
 23
-0.280000013299286
 33
0
0
3DFACE
8
8
 62
8
 10
0.134000006364658
 20
0.14900000707712
 30
0
 11
0.0695000033010729
 21
-0.280000013299286
 31
0
 12
0.0695000033010729
 22
-0.197000009356998
 32
0
 13
0.0695000033010729
 23
-0.197000009356998
 33
0
0
3DFACE
8
8
 62
8
 10
0.134000006364658
 20
0.14900000707712
 30
0
 11
0.0695000033010729
 21
-0.197000009356998
 31
0
 12
-0.0695000033010729
 22
-0.197000009356998
 32
0
 13
-0.0695000033010729
 23
-0.197000009356998
 33
0
0
3DFACE
8
8
 62
8
 10
0.134000006364658
 20
0.14900000707712
 30
0
 11
-0.0695000033010729
 21
-0.197000009356998
 31
0
 12
-0.110500005248468
 22
-0.15300000726711
 32
0
 13
-0.110500005248468
 23
-0.15300000726711
 33
0
0
3DFACE
8
8
 62
8
 10
-0.0695000033010729
 20
-0.197000009356998
 30
0
 11
-0.0695000033010729
 21
-0.280000013299286
 31
0
 12
-0.110500005248468
 22
-0.280000013299286
 32
0
 13
-0.110500005248468
 23
-0.280000013299286
 33
0
0
3DFACE
8
8
 62
8
 10
-0.0695000033010729
 20
-0.197000009356998
 30
0
 11
-0.110500005248468
 21
-0.280000013299286
 31
0
 12
-0.110500005248468
 22
-0.15300000726711
 32
0
 13
-0.110500005248468
 23
-0.15300000726711
 33
0
0
3DFACE
8
8
 62
8
 10
-0.134000006364658
 20
-0.15300000726711
 30
0.0940000044647604
 11
-0.134000006364658
 21
0.14900000707712
 31
0.0940000044647604
 12
0.134000006364658
 22
0.14900000707712
 32
0.0940000044647604
 13
0.134000006364658
 23
0.14900000707712
 33
0.0940000044647604
0
3DFACE
8
8
 62
8
 10
-0.134000006364658
 20
-0.15300000726711
 30
0.0940000044647604
 11
0.134000006364658
 21
0.14900000707712
 31
0.0940000044647604
 12
-0.110500005248468
 22
-0.15300000726711
 32
0.0940000044647604
 13
-0.110500005248468
 23
-0.15300000726711
 33
0.0940000044647604
0
3DFACE
8
8
 62
8
 10
0.134000006364658
 20
0.14900000707712
 30
0.0940000044647604
 11
0.134000006364658
 21
-0.15300000726711
 31
0.0940000044647604
 12
0.110500005248468
 22
-0.15300000726711
 32
0.0940000044647604
 13
0.110500005248468
 23
-0.15300000726711
 33
0.0940000044647604
0
3DFACE
8
8
 62
8
 10
0.134000006364658
 20
0.14900000707712
 30
0.0940000044647604
 11
0.110500005248468
 21
-0.15300000726711
 31
0.0940000044647604
 12
0.0695000033010729
 22
-0.280000013299286
 32
0.0940000044647604
 13
0.0695000033010729
 23
-0.280000013299286
 33
0.0940000044647604
0
3DFACE
8
8
 62
8
 10
0.110500005248468
 20
-0.15300000726711
 30
0.0940000044647604
 11
0.110500005248468
 21
-0.280000013299286
 31
0.0940000044647604
 12
0.0695000033010729
 22
-0.280000013299286
 32
0.0940000044647604
 13
0.0695000033010729
 23
-0.280000013299286
 33
0.0940000044647604
0
3DFACE
8
8
 62
8
 10
0.134000006364658
 20
0.14900000707712
 30
0.0940000044647604
 11
0.0695000033010729
 21
-0.280000013299286
 31
0.0940000044647604
 12
0.0695000033010729
 22
-0.197000009356998
 32
0.0940000044647604
 13
0.0695000033010729
 23
-0.197000009356998
 33
0.0940000044647604
0
3DFACE
8
8
 62
8
 10
0.134000006364658
 20
0.14900000707712
 30
0.0940000044647604
 11
0.0695000033010729
 21
-0.197000009356998
 31
0.0940000044647604
 12
-0.0695000033010729
 22
-0.197000009356998
 32
0.0940000044647604
 13
-0.0695000033010729
 23
-0.197000009356998
 33
0.0940000044647604
0
3DFACE
8
8
 62
8
 10
0.134000006364658
 20
0.14900000707712
 30
0.0940000044647604
 11
-0.0695000033010729
 21
-0.197000009356998
 31
0.0940000044647604
 12
-0.110500005248468
 22
-0.15300000726711
 32
0.0940000044647604
 13
-0.110500005248468
 23
-0.15300000726711
 33
0.0940000044647604
0
3DFACE
8
8
 62
8
 10
-0.0695000033010729
 20
-0.197000009356998
 30
0.0940000044647604
 11
-0.0695000033010729
 21
-0.280000013299286
 31
0.0940000044647604
 12
-0.110500005248468
 22
-0.280000013299286
 32
0.0940000044647604
 13
-0.110500005248468
 23
-0.280000013299286
 33
0.0940000044647604
0
3DFACE
8
8
 62
8
 10
-0.0695000033010729
 20
-0.197000009356998
 30
0.0940000044647604
 11
-0.110500005248468
 21
-0.280000013299286
 31
0.0940000044647604
 12
-0.110500005248468
 22
-0.15300000726711
 32
0.0940000044647604
 13
-0.110500005248468
 23
-0.15300000726711
 33
0.0940000044647604
0
3DFACE
8
8
 62
8
 10
-0.110500005248468
 20
-0.15300000726711
 30
0
 11
-0.134000006364658
 21
-0.15300000726711
 31
0
 12
-0.134000006364658
 22
-0.15300000726711
 32
0.0940000044647604
 13
-0.110500005248468
 23
-0.15300000726711
 33
0.0940000044647604
0
3DFACE
8
8
 62
8
 10
-0.134000006364658
 20
-0.15300000726711
 30
0
 11
-0.134000006364658
 21
0.14900000707712
 31
0
 12
-0.134000006364658
 22
0.14900000707712
 32
0.0940000044647604
 13
-0.134000006364658
 23
-0.15300000726711
 33
0.0940000044647604
0
3DFACE
8
8
 62
8
 10
-0.134000006364658
 20
0.14900000707712
 30
0
 11
0.134000006364658
 21
0.14900000707712
 31
0
 12
0.134000006364658
 22
0.14900000707712
 32
0.0940000044647604
 13
-0.134000006364658
 23
0.14900000707712
 33
0.0940000044647604
0
3DFACE
8
8
 62
8
 10
0.134000006364658
 20
0.14900000707712
 30
0
 11
0.134000006364658
 21
-0.15300000726711
 31
0
 12
0.134000006364658
 22
-0.15300000726711
 32
0.0940000044647604
 13
0.134000006364658
 23
0.14900000707712
 33
0.0940000044647604
0
3DFACE
8
8
 62
8
 10
0.134000006364658
 20
-0.15300000726711
 30
0
 11
0.110500005248468
 21
-0.15300000726711
 31
0
 12
0.110500005248468
 22
-0.15300000726711
 32
0.0940000044647604
 13
0.134000006364658
 23
-0.15300000726711
 33
0.0940000044647604
0
3DFACE
8
8
 62
8
 10
0.110500005248468
 20
-0.15300000726711
 30
0
 11
0.110500005248468
 21
-0.280000013299286
 31
0
 12
0.110500005248468
 22
-0.280000013299286
 32
0.0940000044647604
 13
0.110500005248468
 23
-0.15300000726711
 33
0.0940000044647604
0
3DFACE
8
8
 62
8
 10
0.110500005248468
 20
-0.280000013299286
 30
0
 11
0.0695000033010729
 21
-0.280000013299286
 31
0
 12
0.0695000033010729
 22
-0.280000013299286
 32
0.0940000044647604
 13
0.110500005248468
 23
-0.280000013299286
 33
0.0940000044647604
0
3DFACE
8
8
 62
8
 10
0.0695000033010729
 20
-0.280000013299286
 30
0
 11
0.0695000033010729
 21
-0.197000009356998
 31
0
 12
0.0695000033010729
 22
-0.197000009356998
 32
0.0940000044647604
 13
0.0695000033010729
 23
-0.280000013299286
 33
0.0940000044647604
0
3DFACE
8
8
 62
8
 10
0.0695000033010729
 20
-0.197000009356998
 30
0
 11
-0.0695000033010729
 21
-0.197000009356998
 31
0
 12
-0.0695000033010729
 22
-0.197000009356998
 32
0.0940000044647604
 13
0.0695000033010729
 23
-0.197000009356998
 33
0.0940000044647604
0
3DFACE
8
8
 62
8
 10
-0.0695000033010729
 20
-0.197000009356998
 30
0
 11
-0.0695000033010729
 21
-0.280000013299286
 31
0
 12
-0.0695000033010729
 22
-0.280000013299286
 32
0.0940000044647604
 13
-0.0695000033010729
 23
-0.197000009356998
 33
0.0940000044647604
0
3DFACE
8
8
 62
8
 10
-0.0695000033010729
 20
-0.280000013299286
 30
0
 11
-0.110500005248468
 21
-0.280000013299286
 31
0
 12
-0.110500005248468
 22
-0.280000013299286
 32
0.0940000044647604
 13
-0.0695000033010729
 23
-0.280000013299286
 33
0.0940000044647604
0
3DFACE
8
8
 62
8
 10
-0.110500005248468
 20
-0.280000013299286
 30
0
 11
-0.110500005248468
 21
-0.15300000726711
 31
0
 12
-0.110500005248468
 22
-0.15300000726711
 32
0.0940000044647604
 13
-0.110500005248468
 23
-0.280000013299286
 33
0.0940000044647604
 0
ENDBLK
 0
BLOCK
 70
0
 2
TOP_VALOR_Polygon_56
 10
0
 20
0
 30
0
0
3DFACE
8
23
 62
23
 10
-0.155000007362105
 20
-0.301000014296733
 30
0
 11
-0.155000007362105
 21
0.172000008169562
 31
0
 12
0.155000007362105
 22
0.172000008169562
 32
0
 13
0.155000007362105
 23
-0.301000014296733
 33
0
0
3DFACE
8
23
 62
23
 10
-0.155000007362105
 20
-0.301000014296733
 30
0.0940000044647604
 11
-0.155000007362105
 21
0.172000008169562
 31
0.0940000044647604
 12
0.155000007362105
 22
0.172000008169562
 32
0.0940000044647604
 13
0.155000007362105
 23
-0.301000014296733
 33
0.0940000044647604
0
3DFACE
8
23
 62
23
 10
0.155000007362105
 20
-0.301000014296733
 30
0
 11
-0.155000007362105
 21
-0.301000014296733
 31
0
 12
-0.155000007362105
 22
-0.301000014296733
 32
0.0940000044647604
 13
0.155000007362105
 23
-0.301000014296733
 33
0.0940000044647604
0
3DFACE
8
23
 62
23
 10
-0.155000007362105
 20
-0.301000014296733
 30
0
 11
-0.155000007362105
 21
0.172000008169562
 31
0
 12
-0.155000007362105
 22
0.172000008169562
 32
0.0940000044647604
 13
-0.155000007362105
 23
-0.301000014296733
 33
0.0940000044647604
0
3DFACE
8
23
 62
23
 10
-0.155000007362105
 20
0.172000008169562
 30
0
 11
0.155000007362105
 21
0.172000008169562
 31
0
 12
0.155000007362105
 22
0.172000008169562
 32
0.0940000044647604
 13
-0.155000007362105
 23
0.172000008169562
 33
0.0940000044647604
0
3DFACE
8
23
 62
23
 10
0.155000007362105
 20
0.172000008169562
 30
0
 11
0.155000007362105
 21
-0.301000014296733
 31
0
 12
0.155000007362105
 22
-0.301000014296733
 32
0.0940000044647604
 13
0.155000007362105
 23
0.172000008169562
 33
0.0940000044647604
 0
ENDBLK
0
ENDSEC
0
SECTION
2
ENTITIES
 0
INSERT
 8
8
 2
TOP_PLACE_BOUND_Polygon_37
 10
0
 20
0
 30
0
 41
1
 42
1
 43
1
 0
INSERT
 8
23
 2
TOP_VALOR_Polygon_56
 10
0
 20
0
 30
0
 41
1
 42
1
 43
1
0
ENDSEC
 0
EOF

