 999
VISION3D DXF
0
SECTION
2
HEADER
0
ENDSEC
0
SECTION
2
TABLES
0
ENDSEC
0
SECTION
2
BLOCKS
 0
BLOCK
 70
0
 2
TOP_PLACE_BOUND_Polygon_37
 10
0
 20
0
 30
0
0
3DFACE
8
8
 62
8
 10
-0.142000006744638
 20
-0.163000007742085
 30
0
 11
-0.142000006744638
 21
0.163000007742085
 31
0
 12
0.142000006744638
 22
0.163000007742085
 32
0
 13
0.142000006744638
 23
0.163000007742085
 33
0
0
3DFACE
8
8
 62
8
 10
-0.142000006744638
 20
-0.163000007742085
 30
0
 11
0.142000006744638
 21
0.163000007742085
 31
0
 12
-0.116500005533453
 22
-0.163000007742085
 32
0
 13
-0.116500005533453
 23
-0.163000007742085
 33
0
0
3DFACE
8
8
 62
8
 10
0.142000006744638
 20
0.163000007742085
 30
0
 11
0.142000006744638
 21
-0.163000007742085
 31
0
 12
0.116500005533453
 22
-0.163000007742085
 32
0
 13
0.116500005533453
 23
-0.163000007742085
 33
0
0
3DFACE
8
8
 62
8
 10
0.142000006744638
 20
0.163000007742085
 30
0
 11
0.116500005533453
 21
-0.163000007742085
 31
0
 12
0.0635000030160882
 22
-0.294000013964251
 32
0
 13
0.0635000030160882
 23
-0.294000013964251
 33
0
0
3DFACE
8
8
 62
8
 10
0.116500005533453
 20
-0.163000007742085
 30
0
 11
0.116500005533453
 21
-0.294000013964251
 31
0
 12
0.0635000030160882
 22
-0.294000013964251
 32
0
 13
0.0635000030160882
 23
-0.294000013964251
 33
0
0
3DFACE
8
8
 62
8
 10
0.142000006744638
 20
0.163000007742085
 30
0
 11
0.0635000030160882
 21
-0.294000013964251
 31
0
 12
0.0635000030160882
 22
-0.199000009451993
 32
0
 13
0.0635000030160882
 23
-0.199000009451993
 33
0
0
3DFACE
8
8
 62
8
 10
0.142000006744638
 20
0.163000007742085
 30
0
 11
0.0635000030160882
 21
-0.199000009451993
 31
0
 12
-0.0635000030160882
 22
-0.199000009451993
 32
0
 13
-0.0635000030160882
 23
-0.199000009451993
 33
0
0
3DFACE
8
8
 62
8
 10
0.142000006744638
 20
0.163000007742085
 30
0
 11
-0.0635000030160882
 21
-0.199000009451993
 31
0
 12
-0.116500005533453
 22
-0.163000007742085
 32
0
 13
-0.116500005533453
 23
-0.163000007742085
 33
0
0
3DFACE
8
8
 62
8
 10
-0.0635000030160882
 20
-0.199000009451993
 30
0
 11
-0.0635000030160882
 21
-0.294000013964251
 31
0
 12
-0.116500005533453
 22
-0.294000013964251
 32
0
 13
-0.116500005533453
 23
-0.294000013964251
 33
0
0
3DFACE
8
8
 62
8
 10
-0.0635000030160882
 20
-0.199000009451993
 30
0
 11
-0.116500005533453
 21
-0.294000013964251
 31
0
 12
-0.116500005533453
 22
-0.163000007742085
 32
0
 13
-0.116500005533453
 23
-0.163000007742085
 33
0
0
3DFACE
8
8
 62
8
 10
-0.142000006744638
 20
-0.163000007742085
 30
0.0940000044647604
 11
-0.142000006744638
 21
0.163000007742085
 31
0.0940000044647604
 12
0.142000006744638
 22
0.163000007742085
 32
0.0940000044647604
 13
0.142000006744638
 23
0.163000007742085
 33
0.0940000044647604
0
3DFACE
8
8
 62
8
 10
-0.142000006744638
 20
-0.163000007742085
 30
0.0940000044647604
 11
0.142000006744638
 21
0.163000007742085
 31
0.0940000044647604
 12
-0.116500005533453
 22
-0.163000007742085
 32
0.0940000044647604
 13
-0.116500005533453
 23
-0.163000007742085
 33
0.0940000044647604
0
3DFACE
8
8
 62
8
 10
0.142000006744638
 20
0.163000007742085
 30
0.0940000044647604
 11
0.142000006744638
 21
-0.163000007742085
 31
0.0940000044647604
 12
0.116500005533453
 22
-0.163000007742085
 32
0.0940000044647604
 13
0.116500005533453
 23
-0.163000007742085
 33
0.0940000044647604
0
3DFACE
8
8
 62
8
 10
0.142000006744638
 20
0.163000007742085
 30
0.0940000044647604
 11
0.116500005533453
 21
-0.163000007742085
 31
0.0940000044647604
 12
0.0635000030160882
 22
-0.294000013964251
 32
0.0940000044647604
 13
0.0635000030160882
 23
-0.294000013964251
 33
0.0940000044647604
0
3DFACE
8
8
 62
8
 10
0.116500005533453
 20
-0.163000007742085
 30
0.0940000044647604
 11
0.116500005533453
 21
-0.294000013964251
 31
0.0940000044647604
 12
0.0635000030160882
 22
-0.294000013964251
 32
0.0940000044647604
 13
0.0635000030160882
 23
-0.294000013964251
 33
0.0940000044647604
0
3DFACE
8
8
 62
8
 10
0.142000006744638
 20
0.163000007742085
 30
0.0940000044647604
 11
0.0635000030160882
 21
-0.294000013964251
 31
0.0940000044647604
 12
0.0635000030160882
 22
-0.199000009451993
 32
0.0940000044647604
 13
0.0635000030160882
 23
-0.199000009451993
 33
0.0940000044647604
0
3DFACE
8
8
 62
8
 10
0.142000006744638
 20
0.163000007742085
 30
0.0940000044647604
 11
0.0635000030160882
 21
-0.199000009451993
 31
0.0940000044647604
 12
-0.0635000030160882
 22
-0.199000009451993
 32
0.0940000044647604
 13
-0.0635000030160882
 23
-0.199000009451993
 33
0.0940000044647604
0
3DFACE
8
8
 62
8
 10
0.142000006744638
 20
0.163000007742085
 30
0.0940000044647604
 11
-0.0635000030160882
 21
-0.199000009451993
 31
0.0940000044647604
 12
-0.116500005533453
 22
-0.163000007742085
 32
0.0940000044647604
 13
-0.116500005533453
 23
-0.163000007742085
 33
0.0940000044647604
0
3DFACE
8
8
 62
8
 10
-0.0635000030160882
 20
-0.199000009451993
 30
0.0940000044647604
 11
-0.0635000030160882
 21
-0.294000013964251
 31
0.0940000044647604
 12
-0.116500005533453
 22
-0.294000013964251
 32
0.0940000044647604
 13
-0.116500005533453
 23
-0.294000013964251
 33
0.0940000044647604
0
3DFACE
8
8
 62
8
 10
-0.0635000030160882
 20
-0.199000009451993
 30
0.0940000044647604
 11
-0.116500005533453
 21
-0.294000013964251
 31
0.0940000044647604
 12
-0.116500005533453
 22
-0.163000007742085
 32
0.0940000044647604
 13
-0.116500005533453
 23
-0.163000007742085
 33
0.0940000044647604
0
3DFACE
8
8
 62
8
 10
-0.116500005533453
 20
-0.163000007742085
 30
0
 11
-0.142000006744638
 21
-0.163000007742085
 31
0
 12
-0.142000006744638
 22
-0.163000007742085
 32
0.0940000044647604
 13
-0.116500005533453
 23
-0.163000007742085
 33
0.0940000044647604
0
3DFACE
8
8
 62
8
 10
-0.142000006744638
 20
-0.163000007742085
 30
0
 11
-0.142000006744638
 21
0.163000007742085
 31
0
 12
-0.142000006744638
 22
0.163000007742085
 32
0.0940000044647604
 13
-0.142000006744638
 23
-0.163000007742085
 33
0.0940000044647604
0
3DFACE
8
8
 62
8
 10
-0.142000006744638
 20
0.163000007742085
 30
0
 11
0.142000006744638
 21
0.163000007742085
 31
0
 12
0.142000006744638
 22
0.163000007742085
 32
0.0940000044647604
 13
-0.142000006744638
 23
0.163000007742085
 33
0.0940000044647604
0
3DFACE
8
8
 62
8
 10
0.142000006744638
 20
0.163000007742085
 30
0
 11
0.142000006744638
 21
-0.163000007742085
 31
0
 12
0.142000006744638
 22
-0.163000007742085
 32
0.0940000044647604
 13
0.142000006744638
 23
0.163000007742085
 33
0.0940000044647604
0
3DFACE
8
8
 62
8
 10
0.142000006744638
 20
-0.163000007742085
 30
0
 11
0.116500005533453
 21
-0.163000007742085
 31
0
 12
0.116500005533453
 22
-0.163000007742085
 32
0.0940000044647604
 13
0.142000006744638
 23
-0.163000007742085
 33
0.0940000044647604
0
3DFACE
8
8
 62
8
 10
0.116500005533453
 20
-0.163000007742085
 30
0
 11
0.116500005533453
 21
-0.294000013964251
 31
0
 12
0.116500005533453
 22
-0.294000013964251
 32
0.0940000044647604
 13
0.116500005533453
 23
-0.163000007742085
 33
0.0940000044647604
0
3DFACE
8
8
 62
8
 10
0.116500005533453
 20
-0.294000013964251
 30
0
 11
0.0635000030160882
 21
-0.294000013964251
 31
0
 12
0.0635000030160882
 22
-0.294000013964251
 32
0.0940000044647604
 13
0.116500005533453
 23
-0.294000013964251
 33
0.0940000044647604
0
3DFACE
8
8
 62
8
 10
0.0635000030160882
 20
-0.294000013964251
 30
0
 11
0.0635000030160882
 21
-0.199000009451993
 31
0
 12
0.0635000030160882
 22
-0.199000009451993
 32
0.0940000044647604
 13
0.0635000030160882
 23
-0.294000013964251
 33
0.0940000044647604
0
3DFACE
8
8
 62
8
 10
0.0635000030160882
 20
-0.199000009451993
 30
0
 11
-0.0635000030160882
 21
-0.199000009451993
 31
0
 12
-0.0635000030160882
 22
-0.199000009451993
 32
0.0940000044647604
 13
0.0635000030160882
 23
-0.199000009451993
 33
0.0940000044647604
0
3DFACE
8
8
 62
8
 10
-0.0635000030160882
 20
-0.199000009451993
 30
0
 11
-0.0635000030160882
 21
-0.294000013964251
 31
0
 12
-0.0635000030160882
 22
-0.294000013964251
 32
0.0940000044647604
 13
-0.0635000030160882
 23
-0.199000009451993
 33
0.0940000044647604
0
3DFACE
8
8
 62
8
 10
-0.0635000030160882
 20
-0.294000013964251
 30
0
 11
-0.116500005533453
 21
-0.294000013964251
 31
0
 12
-0.116500005533453
 22
-0.294000013964251
 32
0.0940000044647604
 13
-0.0635000030160882
 23
-0.294000013964251
 33
0.0940000044647604
0
3DFACE
8
8
 62
8
 10
-0.116500005533453
 20
-0.294000013964251
 30
0
 11
-0.116500005533453
 21
-0.163000007742085
 31
0
 12
-0.116500005533453
 22
-0.163000007742085
 32
0.0940000044647604
 13
-0.116500005533453
 23
-0.294000013964251
 33
0.0940000044647604
 0
ENDBLK
 0
BLOCK
 70
0
 2
TOP_VALOR_Polygon_56
 10
0
 20
0
 30
0
0
3DFACE
8
23
 62
23
 10
-0.156000007409602
 20
-0.309000014676712
 30
0
 11
-0.156000007409602
 21
0.178000008454546
 31
0
 12
0.156000007409602
 22
0.178000008454546
 32
0
 13
0.156000007409602
 23
-0.309000014676712
 33
0
0
3DFACE
8
23
 62
23
 10
-0.156000007409602
 20
-0.309000014676712
 30
0.0940000044647604
 11
-0.156000007409602
 21
0.178000008454546
 31
0.0940000044647604
 12
0.156000007409602
 22
0.178000008454546
 32
0.0940000044647604
 13
0.156000007409602
 23
-0.309000014676712
 33
0.0940000044647604
0
3DFACE
8
23
 62
23
 10
0.156000007409602
 20
-0.309000014676712
 30
0
 11
-0.156000007409602
 21
-0.309000014676712
 31
0
 12
-0.156000007409602
 22
-0.309000014676712
 32
0.0940000044647604
 13
0.156000007409602
 23
-0.309000014676712
 33
0.0940000044647604
0
3DFACE
8
23
 62
23
 10
-0.156000007409602
 20
-0.309000014676712
 30
0
 11
-0.156000007409602
 21
0.178000008454546
 31
0
 12
-0.156000007409602
 22
0.178000008454546
 32
0.0940000044647604
 13
-0.156000007409602
 23
-0.309000014676712
 33
0.0940000044647604
0
3DFACE
8
23
 62
23
 10
-0.156000007409602
 20
0.178000008454546
 30
0
 11
0.156000007409602
 21
0.178000008454546
 31
0
 12
0.156000007409602
 22
0.178000008454546
 32
0.0940000044647604
 13
-0.156000007409602
 23
0.178000008454546
 33
0.0940000044647604
0
3DFACE
8
23
 62
23
 10
0.156000007409602
 20
0.178000008454546
 30
0
 11
0.156000007409602
 21
-0.309000014676712
 31
0
 12
0.156000007409602
 22
-0.309000014676712
 32
0.0940000044647604
 13
0.156000007409602
 23
0.178000008454546
 33
0.0940000044647604
 0
ENDBLK
0
ENDSEC
0
SECTION
2
ENTITIES
 0
INSERT
 8
8
 2
TOP_PLACE_BOUND_Polygon_37
 10
0
 20
0
 30
0
 41
1
 42
1
 43
1
 0
INSERT
 8
23
 2
TOP_VALOR_Polygon_56
 10
0
 20
0
 30
0
 41
1
 42
1
 43
1
0
ENDSEC
 0
EOF

