 0
SECTION
 2
HEADER
 0
ENDSEC
 0
SECTION
 2
TABLES
 0
ENDSEC
 0
SECTION
 2
BLOCKS
0
BLOCK
70
0
2
SOIC8-N_MC_MCH
10
0
20
0
30
0
999
##### Poly 69 ####
0
POLYLINE
5
36
70
1
8
8
6
CONTINUOUS
66
1
10
0
20
0
30
0
39
.069
0
VERTEX
8
8
6
CONTINUOUS
 10
-.142
 20
-.096
 30
0
0
VERTEX
8
8
6
CONTINUOUS
 10
-.142
 20
.096
 30
0
0
VERTEX
8
8
6
CONTINUOUS
 10
-.087
 20
.096
 30
0
0
VERTEX
8
8
6
CONTINUOUS
 10
-.087
 20
.1065
 30
0
0
VERTEX
8
8
6
CONTINUOUS
 10
.087
 20
.1065
 30
0
0
VERTEX
8
8
6
CONTINUOUS
 10
.087
 20
.096
 30
0
0
VERTEX
8
8
6
CONTINUOUS
 10
.142
 20
.096
 30
0
0
VERTEX
8
8
6
CONTINUOUS
 10
.142
 20
-.096
 30
0
0
VERTEX
8
8
6
CONTINUOUS
 10
.087
 20
-.096
 30
0
0
VERTEX
8
8
6
CONTINUOUS
 10
.087
 20
-.1065
 30
0
0
VERTEX
8
8
6
CONTINUOUS
 10
-.087
 20
-.1065
 30
0
0
VERTEX
8
8
6
CONTINUOUS
 10
-.087
 20
-.096
 30
0
0
SEQEND
999
##### Poly 87 ####
0
POLYLINE
5
36
70
1
8
23
6
CONTINUOUS
66
1
10
0
20
0
30
0
39
.069
0
VERTEX
8
23
6
CONTINUOUS
 10
-.157
 20
-.1065
 30
0
0
VERTEX
8
23
6
CONTINUOUS
 10
-.157
 20
.1065
 30
0
0
VERTEX
8
23
6
CONTINUOUS
 10
.157
 20
.1065
 30
0
0
VERTEX
8
23
6
CONTINUOUS
 10
.157
 20
-.1065
 30
0
0
SEQEND
0
3DFACE
5
49
8
0
6
CONTINUOUS
 10
-.157
 20
-.1065
 30
.069
 11
-.157
 21
.1065
 31
.069
 12
.157
 22
.1065
 32
.069
 13
.157
 23
-.1065
 33
.069
0
3DFACE
5
49
8
0
6
CONTINUOUS
 10
-.157
 20
-.1065
 30
0
 11
-.157
 21
.1065
 31
0
 12
.157
 22
.1065
 32
0
 13
.157
 23
-.1065
 33
0
0
ENDBLK
0
BLOCK
70
0
2
SOIC8-N_MC_MCH-L
10
0
20
0
30
0
999
##### Poly 69 ####
0
POLYLINE
5
36
70
1
8
8
6
CONTINUOUS
66
1
10
0
20
0
30
0
39
.069
0
VERTEX
8
8
6
CONTINUOUS
 10
-.128
 20
-.089
 30
0
0
VERTEX
8
8
6
CONTINUOUS
 10
-.128
 20
.089
 30
0
0
VERTEX
8
8
6
CONTINUOUS
 10
-.081
 20
.089
 30
0
0
VERTEX
8
8
6
CONTINUOUS
 10
-.081
 20
.1005
 30
0
0
VERTEX
8
8
6
CONTINUOUS
 10
.081
 20
.1005
 30
0
0
VERTEX
8
8
6
CONTINUOUS
 10
.081
 20
.089
 30
0
0
VERTEX
8
8
6
CONTINUOUS
 10
.128
 20
.089
 30
0
0
VERTEX
8
8
6
CONTINUOUS
 10
.128
 20
-.089
 30
0
0
VERTEX
8
8
6
CONTINUOUS
 10
.081
 20
-.089
 30
0
0
VERTEX
8
8
6
CONTINUOUS
 10
.081
 20
-.1005
 30
0
0
VERTEX
8
8
6
CONTINUOUS
 10
-.081
 20
-.1005
 30
0
0
VERTEX
8
8
6
CONTINUOUS
 10
-.081
 20
-.089
 30
0
0
SEQEND
999
##### Poly 87 ####
0
POLYLINE
5
36
70
1
8
23
6
CONTINUOUS
66
1
10
0
20
0
30
0
39
.069
0
VERTEX
8
23
6
CONTINUOUS
 10
-.149
 20
-.1065
 30
0
0
VERTEX
8
23
6
CONTINUOUS
 10
-.149
 20
.1065
 30
0
0
VERTEX
8
23
6
CONTINUOUS
 10
.149
 20
.1065
 30
0
0
VERTEX
8
23
6
CONTINUOUS
 10
.149
 20
-.1065
 30
0
0
SEQEND
0
3DFACE
5
49
8
0
6
CONTINUOUS
 10
-.149
 20
-.1065
 30
.069
 11
-.149
 21
.1065
 31
.069
 12
.149
 22
.1065
 32
.069
 13
.149
 23
-.1065
 33
.069
0
3DFACE
5
49
8
0
6
CONTINUOUS
 10
-.149
 20
-.1065
 30
0
 11
-.149
 21
.1065
 31
0
 12
.149
 22
.1065
 32
0
 13
.149
 23
-.1065
 33
0
0
ENDBLK
0
BLOCK
70
0
2
SOIC8-N_MC_MCH-M
10
0
20
0
30
0
999
##### Poly 69 ####
0
POLYLINE
5
36
70
1
8
8
6
CONTINUOUS
66
1
10
0
20
0
30
0
39
.069
0
VERTEX
8
8
6
CONTINUOUS
 10
-.16
 20
-.106
 30
0
0
VERTEX
8
8
6
CONTINUOUS
 10
-.16
 20
.106
 30
0
0
VERTEX
8
8
6
CONTINUOUS
 10
-.097
 20
.106
 30
0
0
VERTEX
8
8
6
CONTINUOUS
 10
-.097
 20
.1165
 30
0
0
VERTEX
8
8
6
CONTINUOUS
 10
.097
 20
.1165
 30
0
0
VERTEX
8
8
6
CONTINUOUS
 10
.097
 20
.106
 30
0
0
VERTEX
8
8
6
CONTINUOUS
 10
.16
 20
.106
 30
0
0
VERTEX
8
8
6
CONTINUOUS
 10
.16
 20
-.106
 30
0
0
VERTEX
8
8
6
CONTINUOUS
 10
.097
 20
-.106
 30
0
0
VERTEX
8
8
6
CONTINUOUS
 10
.097
 20
-.1165
 30
0
0
VERTEX
8
8
6
CONTINUOUS
 10
-.097
 20
-.1165
 30
0
0
VERTEX
8
8
6
CONTINUOUS
 10
-.097
 20
-.106
 30
0
0
SEQEND
999
##### Poly 87 ####
0
POLYLINE
5
36
70
1
8
23
6
CONTINUOUS
66
1
10
0
20
0
30
0
39
.069
0
VERTEX
8
23
6
CONTINUOUS
 10
-.165
 20
-.1065
 30
0
0
VERTEX
8
23
6
CONTINUOUS
 10
-.165
 20
.1065
 30
0
0
VERTEX
8
23
6
CONTINUOUS
 10
.165
 20
.1065
 30
0
0
VERTEX
8
23
6
CONTINUOUS
 10
.165
 20
-.1065
 30
0
0
SEQEND
0
3DFACE
5
49
8
0
6
CONTINUOUS
 10
-.165
 20
-.1065
 30
.069
 11
-.165
 21
.1065
 31
.069
 12
.165
 22
.1065
 32
.069
 13
.165
 23
-.1065
 33
.069
0
3DFACE
5
49
8
0
6
CONTINUOUS
 10
-.165
 20
-.1065
 30
0
 11
-.165
 21
.1065
 31
0
 12
.165
 22
.1065
 32
0
 13
.165
 23
-.1065
 33
0
0
ENDBLK
0
ENDSEC
0
SECTION
2
ENTITIES
 0
INSERT
 8
0
 2
SOIC8-N_MC_MCH
 10
0
 20
0
 30
0
 41
1
 42
1
 43
1
 0
INSERT
 8
0
 2
SOIC8-N_MC_MCH-L
 10
2
 20
0
 30
0
 41
1
 42
1
 43
1
 0
INSERT
 8
0
 2
SOIC8-N_MC_MCH-M
 10
0
 20
2
 30
0
 41
1
 42
1
 43
1
0
ENDSEC
 0
EOF

