*
%FSLAX26Y26*%
%MOIN*%
%ADD10C,0.011811*%
%ADD11C,0.041339*%
%ADD12C,0.045276*%
%ADD13C,0.072835*%
%ADD14C,0.100394*%
%ADD15C,0.192913*%
%ADD16C,0.220472*%
%ADD17C,0.080709*%
%IPPOS*%
%LNs6c96694a.drl*%
%LPD*%
G75*
G54D10*
X521850Y1500000D03*
X671850D03*
X521850Y1550000D03*
X671850D03*
X521850Y1600000D03*
X671850D03*
X521850Y1800000D03*
X671850D03*
X521850Y1850000D03*
X671850D03*
X521850Y1900000D03*
X671850D03*
X631850Y3005000D03*
X811850Y3175000D03*
X946850Y2650000D03*
Y2550000D03*
Y2480000D03*
X1146850Y2450000D03*
X946850Y2370000D03*
X1146850Y2365000D03*
Y2240000D03*
X946850Y2235000D03*
Y2150000D03*
X1146850D03*
Y2050000D03*
X946850D03*
X971850Y1900000D03*
X1121850D03*
X971850Y1850000D03*
X1121850D03*
Y1800000D03*
X971850D03*
X1121850Y1600000D03*
X971850D03*
X1121850Y1550000D03*
X971850D03*
Y1500000D03*
X1121850D03*
X1296850Y1575000D03*
X1396850D03*
X1346850D03*
X1296850Y1825000D03*
X1396850D03*
X1346850D03*
Y2050000D03*
X1596850D03*
X1346850Y2150000D03*
Y2250000D03*
X1596850Y2350000D03*
Y2450000D03*
X1346850Y2550000D03*
X1596850D03*
X1346850Y2650000D03*
X1596850D03*
X1896850Y2475000D03*
X1846850D03*
X1896850Y2225000D03*
X1846850D03*
Y1750000D03*
X1696850D03*
X1846850Y1650000D03*
X1696850D03*
Y1550000D03*
X1846850D03*
X1696850Y1450000D03*
X1846850D03*
Y1350000D03*
X1696850D03*
Y1250000D03*
X1846850D03*
Y1175000D03*
X1896850D03*
X1696850Y1150000D03*
X1846850Y925000D03*
X1896850D03*
X1946850D03*
X2351850Y1115000D03*
X2121850Y1150000D03*
X2171850D03*
X1946850Y1175000D03*
X2176850Y1240000D03*
X2126850D03*
X1996850Y1350000D03*
Y1450000D03*
Y1550000D03*
X2376850Y1620000D03*
X1996850Y1650000D03*
X2356850Y1710000D03*
X1976850Y1740000D03*
X2356850Y1765000D03*
X2121850Y2160000D03*
X2186850D03*
X1946850Y2225000D03*
X2121850Y2245000D03*
X2166850D03*
X1946850Y2475000D03*
X2296850Y3700000D03*
X2596850D03*
X2616850Y2280000D03*
X2621850Y2040000D03*
X2486850Y2010000D03*
X2481850Y1865000D03*
Y1825000D03*
X2546850Y1785000D03*
X2646850Y1750000D03*
X2536850Y1735000D03*
X2491850Y1705000D03*
X2646850Y1700000D03*
X2526850Y1685000D03*
X2646850Y1650000D03*
X2481850Y1590000D03*
X2561850Y1575000D03*
X2481850Y1550000D03*
X2661850Y1480000D03*
X2616850Y1120000D03*
X2756850Y1015000D03*
X2816850D03*
X2901850D03*
X2776850Y1120000D03*
X2696850Y1180000D03*
Y1220000D03*
X2866850Y1355000D03*
X2716850Y1360000D03*
X2806850Y1480000D03*
X2851850D03*
X2766850D03*
X2916850Y1485000D03*
X2901850Y1530000D03*
X2801850Y1570000D03*
X2876850Y1580000D03*
X2881850Y1635000D03*
X2746850Y1650000D03*
X2696850D03*
X2746850Y1700000D03*
X2696850D03*
X2876850Y1715000D03*
Y1750000D03*
X2746850D03*
X2696850D03*
X2876850Y1790000D03*
Y1830000D03*
Y1885000D03*
X2776850Y1910000D03*
X2886850Y1950000D03*
X2681850Y1980000D03*
X2856850Y2040000D03*
X2696850Y2185000D03*
X2691850Y2225000D03*
X2776850Y2280000D03*
X2886850Y2385000D03*
X2791850D03*
X2741850D03*
X2946850D03*
X2996850D03*
X3096850D03*
X3046850D03*
X3146850D03*
X3021850Y2320000D03*
X3141850D03*
X3081850Y2275000D03*
X3141850D03*
X3021850Y2270000D03*
Y2190000D03*
Y2115000D03*
X3016850Y2065000D03*
X3031850Y1990000D03*
X2936850Y1950000D03*
X3121850D03*
X3151850D03*
Y1840000D03*
X3026850Y1825000D03*
Y1755000D03*
X2936850Y1720000D03*
X3081850Y1710000D03*
X3026850Y1695000D03*
X3151850Y1465000D03*
X3121850D03*
X3031850Y1410000D03*
X3026850Y1340000D03*
X2936850Y1335000D03*
X3021850Y1275000D03*
Y1205000D03*
X3096850Y1130000D03*
X3021850D03*
X3166850Y1125000D03*
X3021850Y1085000D03*
X3166850Y1080000D03*
X3041850Y1015000D03*
X2991850D03*
X3146850D03*
X3096850D03*
X2941850D03*
X3296850D03*
X3246850D03*
X3196850D03*
X3336850Y1035000D03*
X3276850Y1075000D03*
X3221850Y1080000D03*
Y1125000D03*
X3276850D03*
Y1175000D03*
Y1225000D03*
X3336850Y1265000D03*
X3276850Y1280000D03*
X3416850Y1320000D03*
X3276850Y1335000D03*
X3256850Y1415000D03*
X3181850Y1465000D03*
X3416850Y1470000D03*
X3411850Y1505000D03*
Y1550000D03*
X3281850D03*
X3196850Y1600000D03*
X3411850D03*
X3296850D03*
X3181850Y1750000D03*
X3396850Y1805000D03*
Y1850000D03*
Y1890000D03*
X3416850Y1925000D03*
X3181850Y1950000D03*
X3261850Y1990000D03*
X3266850Y2065000D03*
X3416850Y2075000D03*
X3266850Y2120000D03*
X3336850Y2140000D03*
X3266850Y2170000D03*
X3271850Y2225000D03*
Y2275000D03*
X3206850D03*
Y2320000D03*
X3271850D03*
X3336850Y2360000D03*
X3296850Y2385000D03*
X3246850D03*
X3196850D03*
X3311850Y2880000D03*
X3396850Y3700000D03*
X3361850Y3805000D03*
X3646850Y3700000D03*
X3521850Y2650000D03*
Y2550000D03*
Y2450000D03*
X3621850Y2325000D03*
Y2275000D03*
Y2225000D03*
Y2175000D03*
X3476850Y2100000D03*
X3566850D03*
X3521850D03*
X3626850D03*
X3521850Y1850000D03*
X3621850D03*
X3471850D03*
X3571850D03*
X3521850Y1550000D03*
X3571850D03*
X3621850D03*
X3471850D03*
X3561850Y1300000D03*
X3516850D03*
X3626850D03*
X3471850D03*
X3621850Y1225000D03*
Y1175000D03*
Y1125000D03*
Y1075000D03*
X3521850Y875000D03*
Y775000D03*
X3721850D03*
X3921850D03*
X4121850D03*
X3721850Y875000D03*
X3921850D03*
X4121850D03*
X3721850Y975000D03*
X3921850D03*
X4121850D03*
X4071850Y1200000D03*
X3921850D03*
X4071850Y1250000D03*
X3921850D03*
X4071850Y1300000D03*
X3716850D03*
X3921850D03*
X3671850D03*
X4071850Y1500000D03*
X3921850D03*
X3671850Y1550000D03*
X3921850D03*
X4071850D03*
X3721850D03*
X3921850Y1600000D03*
X4071850D03*
X3921850Y1800000D03*
X4071850D03*
Y1850000D03*
X3671850D03*
X3721850D03*
X3921850D03*
Y1900000D03*
X4071850D03*
X3716850Y2100000D03*
X3921850D03*
X3671850D03*
X4071850D03*
Y2150000D03*
X3921850D03*
Y2200000D03*
X4071850D03*
X4121850Y2450000D03*
X3921850D03*
X3721850D03*
X4121850Y2550000D03*
X3721850D03*
X3921850D03*
X3721850Y2650000D03*
X3921850D03*
X4121850D03*
X4321850D03*
Y2550000D03*
Y2450000D03*
X4371850Y2200000D03*
Y2150000D03*
Y2100000D03*
Y1900000D03*
Y1850000D03*
Y1800000D03*
Y1600000D03*
Y1550000D03*
Y1500000D03*
Y1300000D03*
Y1250000D03*
Y1200000D03*
X4321850Y975000D03*
Y875000D03*
Y775000D03*
X4521850D03*
Y875000D03*
Y975000D03*
Y1200000D03*
Y1250000D03*
Y1300000D03*
Y1500000D03*
Y1550000D03*
Y1625000D03*
Y1800000D03*
Y1850000D03*
Y1900000D03*
Y2100000D03*
Y2150000D03*
Y2200000D03*
X4446850Y2650000D03*
X4671850Y2825000D03*
X4721850D03*
X4771850D03*
X4681850Y2575000D03*
X4776850D03*
X4721850D03*
X5126850Y1725000D03*
X5161850Y1690000D03*
X4726850Y1660000D03*
X4721850Y975000D03*
X4921850D03*
Y875000D03*
X4721850D03*
X4921850Y775000D03*
X4721850D03*
X5596850Y470000D03*
X5476850Y475000D03*
X5316850Y515000D03*
X5346850Y560000D03*
X5666850D03*
X5326850Y1200000D03*
Y1720000D03*
X5526850Y1875000D03*
X5476850Y1925000D03*
X5361850Y1955000D03*
X5401850Y1985000D03*
X5326850Y2095000D03*
X5946850Y2880000D03*
X5746850Y2285000D03*
X5726850Y2205000D03*
X5876850Y2185000D03*
X5846850Y2145000D03*
X5841850Y1230000D03*
X5731850Y1200000D03*
X5741850Y1120000D03*
X5696850Y1025000D03*
X5726850Y980000D03*
X5696850D03*
Y945000D03*
X5751850Y610000D03*
X5776850Y565000D03*
G54D11*
X591850Y3177000D03*
Y3256000D03*
Y3335000D03*
X2096850Y3800000D03*
Y3721260D03*
Y3642520D03*
Y3563780D03*
X2846850Y3642520D03*
X2925590D03*
Y3721260D03*
X2846850D03*
Y3800000D03*
X2925590D03*
X3821850D03*
Y3721260D03*
Y3642520D03*
Y3563780D03*
X5746850Y1481300D03*
X5825590D03*
X5746850Y1560040D03*
X5825590D03*
X5746850Y1638780D03*
X5825590D03*
Y1717520D03*
X5746850D03*
X5825590Y1796260D03*
X5746850D03*
X5825590Y1875000D03*
X5746850D03*
G54D12*
X5396850Y100000D03*
Y178740D03*
Y3750000D03*
Y3828740D03*
X5475590D03*
X5554330D03*
X5633070D03*
X5475590Y3750000D03*
X5554330D03*
X5633070D03*
X5554330Y178740D03*
X5475590D03*
X5633070D03*
X5554330Y100000D03*
X5475590D03*
X5633070D03*
G54D13*
X421850Y3500000D03*
X5971850Y475000D03*
G54D14*
X596850Y650000D03*
Y2750000D03*
X796850Y3700000D03*
X1496850D03*
X3171850Y3725000D03*
X1846850Y250000D03*
X3896850D03*
X4246850D03*
X4596850D03*
X4546850Y2500000D03*
Y3150000D03*
X4121850Y3700000D03*
X4746850D03*
X5096850D03*
X4946850Y250000D03*
X5946850Y1050000D03*
G54D15*
X421850Y225000D03*
Y3775000D03*
X5971850D03*
Y225000D03*
G54D16*
X596850Y1100000D03*
Y2300000D03*
X4996850Y3150000D03*
Y2300000D03*
G54D10*
X521850Y5500000D03*
X671850D03*
X521850Y5550000D03*
X671850D03*
X521850Y5600000D03*
X671850D03*
X521850Y5800000D03*
X671850D03*
X521850Y5850000D03*
X671850D03*
X521850Y5900000D03*
X671850D03*
X631850Y7005000D03*
X811850Y7175000D03*
X946850Y6650000D03*
Y6550000D03*
Y6480000D03*
X1146850Y6450000D03*
X946850Y6370000D03*
X1146850Y6365000D03*
Y6240000D03*
X946850Y6235000D03*
Y6150000D03*
X1146850D03*
Y6050000D03*
X946850D03*
X971850Y5900000D03*
X1121850D03*
X971850Y5850000D03*
X1121850D03*
Y5800000D03*
X971850D03*
X1121850Y5600000D03*
X971850D03*
X1121850Y5550000D03*
X971850D03*
Y5500000D03*
X1121850D03*
X1296850Y5575000D03*
X1396850D03*
X1346850D03*
X1296850Y5825000D03*
X1396850D03*
X1346850D03*
Y6050000D03*
X1596850D03*
X1346850Y6150000D03*
Y6250000D03*
X1596850Y6350000D03*
Y6450000D03*
X1346850Y6550000D03*
X1596850D03*
X1346850Y6650000D03*
X1596850D03*
X1896850Y6475000D03*
X1846850D03*
X1896850Y6225000D03*
X1846850D03*
Y5750000D03*
X1696850D03*
X1846850Y5650000D03*
X1696850D03*
Y5550000D03*
X1846850D03*
X1696850Y5450000D03*
X1846850D03*
Y5350000D03*
X1696850D03*
Y5250000D03*
X1846850D03*
Y5175000D03*
X1896850D03*
X1696850Y5150000D03*
X1846850Y4925000D03*
X1896850D03*
X1946850D03*
X2351850Y5115000D03*
X2121850Y5150000D03*
X2171850D03*
X1946850Y5175000D03*
X2176850Y5240000D03*
X2126850D03*
X1996850Y5350000D03*
Y5450000D03*
Y5550000D03*
X2376850Y5620000D03*
X1996850Y5650000D03*
X2356850Y5710000D03*
X1976850Y5740000D03*
X2356850Y5765000D03*
X2121850Y6160000D03*
X2186850D03*
X1946850Y6225000D03*
X2121850Y6245000D03*
X2166850D03*
X1946850Y6475000D03*
X2296850Y7700000D03*
X2596850D03*
X2616850Y6280000D03*
X2621850Y6040000D03*
X2486850Y6010000D03*
X2481850Y5865000D03*
Y5825000D03*
X2546850Y5785000D03*
X2646850Y5750000D03*
X2536850Y5735000D03*
X2491850Y5705000D03*
X2646850Y5700000D03*
X2526850Y5685000D03*
X2646850Y5650000D03*
X2481850Y5590000D03*
X2561850Y5575000D03*
X2481850Y5550000D03*
X2661850Y5480000D03*
X2616850Y5120000D03*
X2756850Y5015000D03*
X2816850D03*
X2901850D03*
X2776850Y5120000D03*
X2696850Y5180000D03*
Y5220000D03*
X2866850Y5355000D03*
X2716850Y5360000D03*
X2806850Y5480000D03*
X2851850D03*
X2766850D03*
X2916850Y5485000D03*
X2901850Y5530000D03*
X2801850Y5570000D03*
X2876850Y5580000D03*
X2881850Y5635000D03*
X2746850Y5650000D03*
X2696850D03*
X2746850Y5700000D03*
X2696850D03*
X2876850Y5715000D03*
Y5750000D03*
X2746850D03*
X2696850D03*
X2876850Y5790000D03*
Y5830000D03*
Y5885000D03*
X2776850Y5910000D03*
X2886850Y5950000D03*
X2681850Y5980000D03*
X2856850Y6040000D03*
X2696850Y6185000D03*
X2691850Y6225000D03*
X2776850Y6280000D03*
X2886850Y6385000D03*
X2791850D03*
X2741850D03*
X2946850D03*
X2996850D03*
X3096850D03*
X3046850D03*
X3146850D03*
X3021850Y6320000D03*
X3141850D03*
X3081850Y6275000D03*
X3141850D03*
X3021850Y6270000D03*
Y6190000D03*
Y6115000D03*
X3016850Y6065000D03*
X3031850Y5990000D03*
X2936850Y5950000D03*
X3121850D03*
X3151850D03*
Y5840000D03*
X3026850Y5825000D03*
Y5755000D03*
X2936850Y5720000D03*
X3081850Y5710000D03*
X3026850Y5695000D03*
X3151850Y5465000D03*
X3121850D03*
X3031850Y5410000D03*
X3026850Y5340000D03*
X2936850Y5335000D03*
X3021850Y5275000D03*
Y5205000D03*
X3096850Y5130000D03*
X3021850D03*
X3166850Y5125000D03*
X3021850Y5085000D03*
X3166850Y5080000D03*
X3041850Y5015000D03*
X2991850D03*
X3146850D03*
X3096850D03*
X2941850D03*
X3296850D03*
X3246850D03*
X3196850D03*
X3336850Y5035000D03*
X3276850Y5075000D03*
X3221850Y5080000D03*
Y5125000D03*
X3276850D03*
Y5175000D03*
Y5225000D03*
X3336850Y5265000D03*
X3276850Y5280000D03*
X3416850Y5320000D03*
X3276850Y5335000D03*
X3256850Y5415000D03*
X3181850Y5465000D03*
X3416850Y5470000D03*
X3411850Y5505000D03*
Y5550000D03*
X3281850D03*
X3196850Y5600000D03*
X3411850D03*
X3296850D03*
X3181850Y5750000D03*
X3396850Y5805000D03*
Y5850000D03*
Y5890000D03*
X3416850Y5925000D03*
X3181850Y5950000D03*
X3261850Y5990000D03*
X3266850Y6065000D03*
X3416850Y6075000D03*
X3266850Y6120000D03*
X3336850Y6140000D03*
X3266850Y6170000D03*
X3271850Y6225000D03*
Y6275000D03*
X3206850D03*
Y6320000D03*
X3271850D03*
X3336850Y6360000D03*
X3296850Y6385000D03*
X3246850D03*
X3196850D03*
X3311850Y6880000D03*
X3396850Y7700000D03*
X3361850Y7805000D03*
X3646850Y7700000D03*
X3521850Y6650000D03*
Y6550000D03*
Y6450000D03*
X3621850Y6325000D03*
Y6275000D03*
Y6225000D03*
Y6175000D03*
X3476850Y6100000D03*
X3566850D03*
X3521850D03*
X3626850D03*
X3521850Y5850000D03*
X3621850D03*
X3471850D03*
X3571850D03*
X3521850Y5550000D03*
X3571850D03*
X3621850D03*
X3471850D03*
X3561850Y5300000D03*
X3516850D03*
X3626850D03*
X3471850D03*
X3621850Y5225000D03*
Y5175000D03*
Y5125000D03*
Y5075000D03*
X3521850Y4875000D03*
Y4775000D03*
X3721850D03*
X3921850D03*
X4121850D03*
X3721850Y4875000D03*
X3921850D03*
X4121850D03*
X3721850Y4975000D03*
X3921850D03*
X4121850D03*
X4071850Y5200000D03*
X3921850D03*
X4071850Y5250000D03*
X3921850D03*
X4071850Y5300000D03*
X3716850D03*
X3921850D03*
X3671850D03*
X4071850Y5500000D03*
X3921850D03*
X3671850Y5550000D03*
X3921850D03*
X4071850D03*
X3721850D03*
X3921850Y5600000D03*
X4071850D03*
X3921850Y5800000D03*
X4071850D03*
Y5850000D03*
X3671850D03*
X3721850D03*
X3921850D03*
Y5900000D03*
X4071850D03*
X3716850Y6100000D03*
X3921850D03*
X3671850D03*
X4071850D03*
Y6150000D03*
X3921850D03*
Y6200000D03*
X4071850D03*
X4121850Y6450000D03*
X3921850D03*
X3721850D03*
X4121850Y6550000D03*
X3721850D03*
X3921850D03*
X3721850Y6650000D03*
X3921850D03*
X4121850D03*
X4321850D03*
Y6550000D03*
Y6450000D03*
X4371850Y6200000D03*
Y6150000D03*
Y6100000D03*
Y5900000D03*
Y5850000D03*
Y5800000D03*
Y5600000D03*
Y5550000D03*
Y5500000D03*
Y5300000D03*
Y5250000D03*
Y5200000D03*
X4321850Y4975000D03*
Y4875000D03*
Y4775000D03*
X4521850D03*
Y4875000D03*
Y4975000D03*
Y5200000D03*
Y5250000D03*
Y5300000D03*
Y5500000D03*
Y5550000D03*
Y5625000D03*
Y5800000D03*
Y5850000D03*
Y5900000D03*
Y6100000D03*
Y6150000D03*
Y6200000D03*
X4446850Y6650000D03*
X4671850Y6825000D03*
X4721850D03*
X4771850D03*
X4681850Y6575000D03*
X4776850D03*
X4721850D03*
X5126850Y5725000D03*
X5161850Y5690000D03*
X4726850Y5660000D03*
X4721850Y4975000D03*
X4921850D03*
Y4875000D03*
X4721850D03*
X4921850Y4775000D03*
X4721850D03*
X5596850Y4470000D03*
X5476850Y4475000D03*
X5316850Y4515000D03*
X5346850Y4560000D03*
X5666850D03*
X5326850Y5200000D03*
Y5720000D03*
X5526850Y5875000D03*
X5476850Y5925000D03*
X5361850Y5955000D03*
X5401850Y5985000D03*
X5326850Y6095000D03*
X5946850Y6880000D03*
X5746850Y6285000D03*
X5726850Y6205000D03*
X5876850Y6185000D03*
X5846850Y6145000D03*
X5841850Y5230000D03*
X5731850Y5200000D03*
X5741850Y5120000D03*
X5696850Y5025000D03*
X5726850Y4980000D03*
X5696850D03*
Y4945000D03*
X5751850Y4610000D03*
X5776850Y4565000D03*
G54D11*
X591850Y7177000D03*
Y7256000D03*
Y7335000D03*
X2096850Y7800000D03*
Y7721260D03*
Y7642520D03*
Y7563780D03*
X2846850Y7642520D03*
X2925590D03*
Y7721260D03*
X2846850D03*
Y7800000D03*
X2925590D03*
X3821850D03*
Y7721260D03*
Y7642520D03*
Y7563780D03*
X5746850Y5481300D03*
X5825590D03*
X5746850Y5560040D03*
X5825590D03*
X5746850Y5638780D03*
X5825590D03*
Y5717520D03*
X5746850D03*
X5825590Y5796260D03*
X5746850D03*
X5825590Y5875000D03*
X5746850D03*
G54D12*
X5396850Y4100000D03*
Y4178740D03*
Y7750000D03*
Y7828740D03*
X5475590D03*
X5554330D03*
X5633070D03*
X5475590Y7750000D03*
X5554330D03*
X5633070D03*
X5554330Y4178740D03*
X5475590D03*
X5633070D03*
X5554330Y4100000D03*
X5475590D03*
X5633070D03*
G54D13*
X421850Y7500000D03*
X5971850Y4475000D03*
G54D14*
X596850Y4650000D03*
Y6750000D03*
X796850Y7700000D03*
X1496850D03*
X3171850Y7725000D03*
X1846850Y4250000D03*
X3896850D03*
X4246850D03*
X4596850D03*
X4546850Y6500000D03*
Y7150000D03*
X4121850Y7700000D03*
X4746850D03*
X5096850D03*
X4946850Y4250000D03*
X5946850Y5050000D03*
G54D15*
X421850Y4225000D03*
Y7775000D03*
X5971850D03*
Y4225000D03*
G54D16*
X596850Y5100000D03*
Y6300000D03*
X4996850Y7150000D03*
Y6300000D03*
G54D17*
X98425Y393701D03*
X6295276Y196850D03*
Y7803150D03*
X98425D03*
M02*
