 999
VISION3D DXF
0
SECTION
2
HEADER
0
ENDSEC
0
SECTION
2
TABLES
0
ENDSEC
0
SECTION
2
BLOCKS
 0
BLOCK
 70
0
 2
TOP_PLACE_BOUND_Polygon_41
 10
0
 20
0
 30
0
0
3DFACE
8
8
 62
8
 10
-0.132000006269664
 20
-0.0615000029210933
 30
0
 11
-0.132000006269664
 21
0.0615000029210933
 31
0
 12
-0.0795000037760474
 22
0.0615000029210933
 32
0
 13
-0.0795000037760474
 23
0.0615000029210933
 33
0
0
3DFACE
8
8
 62
8
 10
-0.132000006269664
 20
-0.0615000029210933
 30
0
 11
-0.0795000037760474
 21
0.0615000029210933
 31
0
 12
0.0795000037760474
 22
0.0850000040372834
 32
0
 13
0.0795000037760474
 23
0.0850000040372834
 33
0
0
3DFACE
8
8
 62
8
 10
-0.0795000037760474
 20
0.0615000029210933
 30
0
 11
-0.0795000037760474
 21
0.0850000040372834
 31
0
 12
0.0795000037760474
 22
0.0850000040372834
 32
0
 13
0.0795000037760474
 23
0.0850000040372834
 33
0
0
3DFACE
8
8
 62
8
 10
-0.132000006269664
 20
-0.0615000029210933
 30
0
 11
0.0795000037760474
 21
0.0850000040372834
 31
0
 12
0.0795000037760474
 22
0.0615000029210933
 32
0
 13
0.0795000037760474
 23
0.0615000029210933
 33
0
0
3DFACE
8
8
 62
8
 10
-0.132000006269664
 20
-0.0615000029210933
 30
0
 11
0.0795000037760474
 21
0.0615000029210933
 31
0
 12
0.132000006269664
 22
0.0615000029210933
 32
0
 13
0.132000006269664
 23
0.0615000029210933
 33
0
0
3DFACE
8
8
 62
8
 10
-0.132000006269664
 20
-0.0615000029210933
 30
0
 11
0.132000006269664
 21
0.0615000029210933
 31
0
 12
-0.0795000037760474
 22
-0.0615000029210933
 32
0
 13
-0.0795000037760474
 23
-0.0615000029210933
 33
0
0
3DFACE
8
8
 62
8
 10
0.132000006269664
 20
0.0615000029210933
 30
0
 11
0.132000006269664
 21
-0.0615000029210933
 31
0
 12
0.0795000037760474
 22
-0.0615000029210933
 32
0
 13
0.0795000037760474
 23
-0.0615000029210933
 33
0
0
3DFACE
8
8
 62
8
 10
0.132000006269664
 20
0.0615000029210933
 30
0
 11
0.0795000037760474
 21
-0.0615000029210933
 31
0
 12
-0.0795000037760474
 22
-0.0850000040372834
 32
0
 13
-0.0795000037760474
 23
-0.0850000040372834
 33
0
0
3DFACE
8
8
 62
8
 10
0.0795000037760474
 20
-0.0615000029210933
 30
0
 11
0.0795000037760474
 21
-0.0850000040372834
 31
0
 12
-0.0795000037760474
 22
-0.0850000040372834
 32
0
 13
-0.0795000037760474
 23
-0.0850000040372834
 33
0
0
3DFACE
8
8
 62
8
 10
0.132000006269664
 20
0.0615000029210933
 30
0
 11
-0.0795000037760474
 21
-0.0850000040372834
 31
0
 12
-0.0795000037760474
 22
-0.0615000029210933
 32
0
 13
-0.0795000037760474
 23
-0.0615000029210933
 33
0
0
3DFACE
8
8
 62
8
 10
-0.132000006269664
 20
-0.0615000029210933
 30
0.0850000040372834
 11
-0.132000006269664
 21
0.0615000029210933
 31
0.0850000040372834
 12
-0.0795000037760474
 22
0.0615000029210933
 32
0.0850000040372834
 13
-0.0795000037760474
 23
0.0615000029210933
 33
0.0850000040372834
0
3DFACE
8
8
 62
8
 10
-0.132000006269664
 20
-0.0615000029210933
 30
0.0850000040372834
 11
-0.0795000037760474
 21
0.0615000029210933
 31
0.0850000040372834
 12
0.0795000037760474
 22
0.0850000040372834
 32
0.0850000040372834
 13
0.0795000037760474
 23
0.0850000040372834
 33
0.0850000040372834
0
3DFACE
8
8
 62
8
 10
-0.0795000037760474
 20
0.0615000029210933
 30
0.0850000040372834
 11
-0.0795000037760474
 21
0.0850000040372834
 31
0.0850000040372834
 12
0.0795000037760474
 22
0.0850000040372834
 32
0.0850000040372834
 13
0.0795000037760474
 23
0.0850000040372834
 33
0.0850000040372834
0
3DFACE
8
8
 62
8
 10
-0.132000006269664
 20
-0.0615000029210933
 30
0.0850000040372834
 11
0.0795000037760474
 21
0.0850000040372834
 31
0.0850000040372834
 12
0.0795000037760474
 22
0.0615000029210933
 32
0.0850000040372834
 13
0.0795000037760474
 23
0.0615000029210933
 33
0.0850000040372834
0
3DFACE
8
8
 62
8
 10
-0.132000006269664
 20
-0.0615000029210933
 30
0.0850000040372834
 11
0.0795000037760474
 21
0.0615000029210933
 31
0.0850000040372834
 12
0.132000006269664
 22
0.0615000029210933
 32
0.0850000040372834
 13
0.132000006269664
 23
0.0615000029210933
 33
0.0850000040372834
0
3DFACE
8
8
 62
8
 10
-0.132000006269664
 20
-0.0615000029210933
 30
0.0850000040372834
 11
0.132000006269664
 21
0.0615000029210933
 31
0.0850000040372834
 12
-0.0795000037760474
 22
-0.0615000029210933
 32
0.0850000040372834
 13
-0.0795000037760474
 23
-0.0615000029210933
 33
0.0850000040372834
0
3DFACE
8
8
 62
8
 10
0.132000006269664
 20
0.0615000029210933
 30
0.0850000040372834
 11
0.132000006269664
 21
-0.0615000029210933
 31
0.0850000040372834
 12
0.0795000037760474
 22
-0.0615000029210933
 32
0.0850000040372834
 13
0.0795000037760474
 23
-0.0615000029210933
 33
0.0850000040372834
0
3DFACE
8
8
 62
8
 10
0.132000006269664
 20
0.0615000029210933
 30
0.0850000040372834
 11
0.0795000037760474
 21
-0.0615000029210933
 31
0.0850000040372834
 12
-0.0795000037760474
 22
-0.0850000040372834
 32
0.0850000040372834
 13
-0.0795000037760474
 23
-0.0850000040372834
 33
0.0850000040372834
0
3DFACE
8
8
 62
8
 10
0.0795000037760474
 20
-0.0615000029210933
 30
0.0850000040372834
 11
0.0795000037760474
 21
-0.0850000040372834
 31
0.0850000040372834
 12
-0.0795000037760474
 22
-0.0850000040372834
 32
0.0850000040372834
 13
-0.0795000037760474
 23
-0.0850000040372834
 33
0.0850000040372834
0
3DFACE
8
8
 62
8
 10
0.132000006269664
 20
0.0615000029210933
 30
0.0850000040372834
 11
-0.0795000037760474
 21
-0.0850000040372834
 31
0.0850000040372834
 12
-0.0795000037760474
 22
-0.0615000029210933
 32
0.0850000040372834
 13
-0.0795000037760474
 23
-0.0615000029210933
 33
0.0850000040372834
0
3DFACE
8
8
 62
8
 10
-0.0795000037760474
 20
-0.0615000029210933
 30
0
 11
-0.132000006269664
 21
-0.0615000029210933
 31
0
 12
-0.132000006269664
 22
-0.0615000029210933
 32
0.0850000040372834
 13
-0.0795000037760474
 23
-0.0615000029210933
 33
0.0850000040372834
0
3DFACE
8
8
 62
8
 10
-0.132000006269664
 20
-0.0615000029210933
 30
0
 11
-0.132000006269664
 21
0.0615000029210933
 31
0
 12
-0.132000006269664
 22
0.0615000029210933
 32
0.0850000040372834
 13
-0.132000006269664
 23
-0.0615000029210933
 33
0.0850000040372834
0
3DFACE
8
8
 62
8
 10
-0.132000006269664
 20
0.0615000029210933
 30
0
 11
-0.0795000037760474
 21
0.0615000029210933
 31
0
 12
-0.0795000037760474
 22
0.0615000029210933
 32
0.0850000040372834
 13
-0.132000006269664
 23
0.0615000029210933
 33
0.0850000040372834
0
3DFACE
8
8
 62
8
 10
-0.0795000037760474
 20
0.0615000029210933
 30
0
 11
-0.0795000037760474
 21
0.0850000040372834
 31
0
 12
-0.0795000037760474
 22
0.0850000040372834
 32
0.0850000040372834
 13
-0.0795000037760474
 23
0.0615000029210933
 33
0.0850000040372834
0
3DFACE
8
8
 62
8
 10
-0.0795000037760474
 20
0.0850000040372834
 30
0
 11
0.0795000037760474
 21
0.0850000040372834
 31
0
 12
0.0795000037760474
 22
0.0850000040372834
 32
0.0850000040372834
 13
-0.0795000037760474
 23
0.0850000040372834
 33
0.0850000040372834
0
3DFACE
8
8
 62
8
 10
0.0795000037760474
 20
0.0850000040372834
 30
0
 11
0.0795000037760474
 21
0.0615000029210933
 31
0
 12
0.0795000037760474
 22
0.0615000029210933
 32
0.0850000040372834
 13
0.0795000037760474
 23
0.0850000040372834
 33
0.0850000040372834
0
3DFACE
8
8
 62
8
 10
0.0795000037760474
 20
0.0615000029210933
 30
0
 11
0.132000006269664
 21
0.0615000029210933
 31
0
 12
0.132000006269664
 22
0.0615000029210933
 32
0.0850000040372834
 13
0.0795000037760474
 23
0.0615000029210933
 33
0.0850000040372834
0
3DFACE
8
8
 62
8
 10
0.132000006269664
 20
0.0615000029210933
 30
0
 11
0.132000006269664
 21
-0.0615000029210933
 31
0
 12
0.132000006269664
 22
-0.0615000029210933
 32
0.0850000040372834
 13
0.132000006269664
 23
0.0615000029210933
 33
0.0850000040372834
0
3DFACE
8
8
 62
8
 10
0.132000006269664
 20
-0.0615000029210933
 30
0
 11
0.0795000037760474
 21
-0.0615000029210933
 31
0
 12
0.0795000037760474
 22
-0.0615000029210933
 32
0.0850000040372834
 13
0.132000006269664
 23
-0.0615000029210933
 33
0.0850000040372834
0
3DFACE
8
8
 62
8
 10
0.0795000037760474
 20
-0.0615000029210933
 30
0
 11
0.0795000037760474
 21
-0.0850000040372834
 31
0
 12
0.0795000037760474
 22
-0.0850000040372834
 32
0.0850000040372834
 13
0.0795000037760474
 23
-0.0615000029210933
 33
0.0850000040372834
0
3DFACE
8
8
 62
8
 10
0.0795000037760474
 20
-0.0850000040372834
 30
0
 11
-0.0795000037760474
 21
-0.0850000040372834
 31
0
 12
-0.0795000037760474
 22
-0.0850000040372834
 32
0.0850000040372834
 13
0.0795000037760474
 23
-0.0850000040372834
 33
0.0850000040372834
0
3DFACE
8
8
 62
8
 10
-0.0795000037760474
 20
-0.0850000040372834
 30
0
 11
-0.0795000037760474
 21
-0.0615000029210933
 31
0
 12
-0.0795000037760474
 22
-0.0615000029210933
 32
0.0850000040372834
 13
-0.0795000037760474
 23
-0.0850000040372834
 33
0.0850000040372834
 0
ENDBLK
 0
BLOCK
 70
0
 2
TOP_VALOR_Polygon_59
 10
0
 20
0
 30
0
0
3DFACE
8
23
 62
23
 10
-0.15300000726711
 20
-0.0910000043222681
 30
0
 11
-0.15300000726711
 21
0.0910000043222681
 31
0
 12
0.15300000726711
 22
0.0910000043222681
 32
0
 13
0.15300000726711
 23
-0.0910000043222681
 33
0
0
3DFACE
8
23
 62
23
 10
-0.15300000726711
 20
-0.0910000043222681
 30
0.0850000040372834
 11
-0.15300000726711
 21
0.0910000043222681
 31
0.0850000040372834
 12
0.15300000726711
 22
0.0910000043222681
 32
0.0850000040372834
 13
0.15300000726711
 23
-0.0910000043222681
 33
0.0850000040372834
0
3DFACE
8
23
 62
23
 10
0.15300000726711
 20
-0.0910000043222681
 30
0
 11
-0.15300000726711
 21
-0.0910000043222681
 31
0
 12
-0.15300000726711
 22
-0.0910000043222681
 32
0.0850000040372834
 13
0.15300000726711
 23
-0.0910000043222681
 33
0.0850000040372834
0
3DFACE
8
23
 62
23
 10
-0.15300000726711
 20
-0.0910000043222681
 30
0
 11
-0.15300000726711
 21
0.0910000043222681
 31
0
 12
-0.15300000726711
 22
0.0910000043222681
 32
0.0850000040372834
 13
-0.15300000726711
 23
-0.0910000043222681
 33
0.0850000040372834
0
3DFACE
8
23
 62
23
 10
-0.15300000726711
 20
0.0910000043222681
 30
0
 11
0.15300000726711
 21
0.0910000043222681
 31
0
 12
0.15300000726711
 22
0.0910000043222681
 32
0.0850000040372834
 13
-0.15300000726711
 23
0.0910000043222681
 33
0.0850000040372834
0
3DFACE
8
23
 62
23
 10
0.15300000726711
 20
0.0910000043222681
 30
0
 11
0.15300000726711
 21
-0.0910000043222681
 31
0
 12
0.15300000726711
 22
-0.0910000043222681
 32
0.0850000040372834
 13
0.15300000726711
 23
0.0910000043222681
 33
0.0850000040372834
 0
ENDBLK
0
ENDSEC
0
SECTION
2
ENTITIES
 0
INSERT
 8
8
 2
TOP_PLACE_BOUND_Polygon_41
 10
0
 20
0
 30
0
 41
1
 42
1
 43
1
 0
INSERT
 8
23
 2
TOP_VALOR_Polygon_59
 10
0
 20
0
 30
0
 41
1
 42
1
 43
1
0
ENDSEC
 0
EOF

