 999
VISION3D DXF
0
SECTION
2
HEADER
0
ENDSEC
0
SECTION
2
TABLES
0
ENDSEC
0
SECTION
2
BLOCKS
 0
BLOCK
 70
0
 2
TOP_PLACE_BOUND_Polygon_41
 10
0
 20
0
 30
0
0
3DFACE
8
8
 62
8
 10
-0.164000007789582
 20
-0.0785000037285499
 30
0
 11
-0.164000007789582
 21
0.0785000037285499
 31
0
 12
-0.0955000045360066
 22
0.0785000037285499
 32
0
 13
-0.0955000045360066
 23
0.0785000037285499
 33
0
0
3DFACE
8
8
 62
8
 10
-0.164000007789582
 20
-0.0785000037285499
 30
0
 11
-0.0955000045360066
 21
0.0785000037285499
 31
0
 12
0.0955000045360066
 22
0.101000004797243
 32
0
 13
0.0955000045360066
 23
0.101000004797243
 33
0
0
3DFACE
8
8
 62
8
 10
-0.0955000045360066
 20
0.0785000037285499
 30
0
 11
-0.0955000045360066
 21
0.101000004797243
 31
0
 12
0.0955000045360066
 22
0.101000004797243
 32
0
 13
0.0955000045360066
 23
0.101000004797243
 33
0
0
3DFACE
8
8
 62
8
 10
-0.164000007789582
 20
-0.0785000037285499
 30
0
 11
0.0955000045360066
 21
0.101000004797243
 31
0
 12
0.0955000045360066
 22
0.0785000037285499
 32
0
 13
0.0955000045360066
 23
0.0785000037285499
 33
0
0
3DFACE
8
8
 62
8
 10
-0.164000007789582
 20
-0.0785000037285499
 30
0
 11
0.0955000045360066
 21
0.0785000037285499
 31
0
 12
0.164000007789582
 22
0.0785000037285499
 32
0
 13
0.164000007789582
 23
0.0785000037285499
 33
0
0
3DFACE
8
8
 62
8
 10
-0.164000007789582
 20
-0.0785000037285499
 30
0
 11
0.164000007789582
 21
0.0785000037285499
 31
0
 12
-0.0955000045360066
 22
-0.0785000037285499
 32
0
 13
-0.0955000045360066
 23
-0.0785000037285499
 33
0
0
3DFACE
8
8
 62
8
 10
0.164000007789582
 20
0.0785000037285499
 30
0
 11
0.164000007789582
 21
-0.0785000037285499
 31
0
 12
0.0955000045360066
 22
-0.0785000037285499
 32
0
 13
0.0955000045360066
 23
-0.0785000037285499
 33
0
0
3DFACE
8
8
 62
8
 10
0.164000007789582
 20
0.0785000037285499
 30
0
 11
0.0955000045360066
 21
-0.0785000037285499
 31
0
 12
-0.0955000045360066
 22
-0.101000004797243
 32
0
 13
-0.0955000045360066
 23
-0.101000004797243
 33
0
0
3DFACE
8
8
 62
8
 10
0.0955000045360066
 20
-0.0785000037285499
 30
0
 11
0.0955000045360066
 21
-0.101000004797243
 31
0
 12
-0.0955000045360066
 22
-0.101000004797243
 32
0
 13
-0.0955000045360066
 23
-0.101000004797243
 33
0
0
3DFACE
8
8
 62
8
 10
0.164000007789582
 20
0.0785000037285499
 30
0
 11
-0.0955000045360066
 21
-0.101000004797243
 31
0
 12
-0.0955000045360066
 22
-0.0785000037285499
 32
0
 13
-0.0955000045360066
 23
-0.0785000037285499
 33
0
0
3DFACE
8
8
 62
8
 10
-0.164000007789582
 20
-0.0785000037285499
 30
0.0850000040372834
 11
-0.164000007789582
 21
0.0785000037285499
 31
0.0850000040372834
 12
-0.0955000045360066
 22
0.0785000037285499
 32
0.0850000040372834
 13
-0.0955000045360066
 23
0.0785000037285499
 33
0.0850000040372834
0
3DFACE
8
8
 62
8
 10
-0.164000007789582
 20
-0.0785000037285499
 30
0.0850000040372834
 11
-0.0955000045360066
 21
0.0785000037285499
 31
0.0850000040372834
 12
0.0955000045360066
 22
0.101000004797243
 32
0.0850000040372834
 13
0.0955000045360066
 23
0.101000004797243
 33
0.0850000040372834
0
3DFACE
8
8
 62
8
 10
-0.0955000045360066
 20
0.0785000037285499
 30
0.0850000040372834
 11
-0.0955000045360066
 21
0.101000004797243
 31
0.0850000040372834
 12
0.0955000045360066
 22
0.101000004797243
 32
0.0850000040372834
 13
0.0955000045360066
 23
0.101000004797243
 33
0.0850000040372834
0
3DFACE
8
8
 62
8
 10
-0.164000007789582
 20
-0.0785000037285499
 30
0.0850000040372834
 11
0.0955000045360066
 21
0.101000004797243
 31
0.0850000040372834
 12
0.0955000045360066
 22
0.0785000037285499
 32
0.0850000040372834
 13
0.0955000045360066
 23
0.0785000037285499
 33
0.0850000040372834
0
3DFACE
8
8
 62
8
 10
-0.164000007789582
 20
-0.0785000037285499
 30
0.0850000040372834
 11
0.0955000045360066
 21
0.0785000037285499
 31
0.0850000040372834
 12
0.164000007789582
 22
0.0785000037285499
 32
0.0850000040372834
 13
0.164000007789582
 23
0.0785000037285499
 33
0.0850000040372834
0
3DFACE
8
8
 62
8
 10
-0.164000007789582
 20
-0.0785000037285499
 30
0.0850000040372834
 11
0.164000007789582
 21
0.0785000037285499
 31
0.0850000040372834
 12
-0.0955000045360066
 22
-0.0785000037285499
 32
0.0850000040372834
 13
-0.0955000045360066
 23
-0.0785000037285499
 33
0.0850000040372834
0
3DFACE
8
8
 62
8
 10
0.164000007789582
 20
0.0785000037285499
 30
0.0850000040372834
 11
0.164000007789582
 21
-0.0785000037285499
 31
0.0850000040372834
 12
0.0955000045360066
 22
-0.0785000037285499
 32
0.0850000040372834
 13
0.0955000045360066
 23
-0.0785000037285499
 33
0.0850000040372834
0
3DFACE
8
8
 62
8
 10
0.164000007789582
 20
0.0785000037285499
 30
0.0850000040372834
 11
0.0955000045360066
 21
-0.0785000037285499
 31
0.0850000040372834
 12
-0.0955000045360066
 22
-0.101000004797243
 32
0.0850000040372834
 13
-0.0955000045360066
 23
-0.101000004797243
 33
0.0850000040372834
0
3DFACE
8
8
 62
8
 10
0.0955000045360066
 20
-0.0785000037285499
 30
0.0850000040372834
 11
0.0955000045360066
 21
-0.101000004797243
 31
0.0850000040372834
 12
-0.0955000045360066
 22
-0.101000004797243
 32
0.0850000040372834
 13
-0.0955000045360066
 23
-0.101000004797243
 33
0.0850000040372834
0
3DFACE
8
8
 62
8
 10
0.164000007789582
 20
0.0785000037285499
 30
0.0850000040372834
 11
-0.0955000045360066
 21
-0.101000004797243
 31
0.0850000040372834
 12
-0.0955000045360066
 22
-0.0785000037285499
 32
0.0850000040372834
 13
-0.0955000045360066
 23
-0.0785000037285499
 33
0.0850000040372834
0
3DFACE
8
8
 62
8
 10
-0.0955000045360066
 20
-0.0785000037285499
 30
0
 11
-0.164000007789582
 21
-0.0785000037285499
 31
0
 12
-0.164000007789582
 22
-0.0785000037285499
 32
0.0850000040372834
 13
-0.0955000045360066
 23
-0.0785000037285499
 33
0.0850000040372834
0
3DFACE
8
8
 62
8
 10
-0.164000007789582
 20
-0.0785000037285499
 30
0
 11
-0.164000007789582
 21
0.0785000037285499
 31
0
 12
-0.164000007789582
 22
0.0785000037285499
 32
0.0850000040372834
 13
-0.164000007789582
 23
-0.0785000037285499
 33
0.0850000040372834
0
3DFACE
8
8
 62
8
 10
-0.164000007789582
 20
0.0785000037285499
 30
0
 11
-0.0955000045360066
 21
0.0785000037285499
 31
0
 12
-0.0955000045360066
 22
0.0785000037285499
 32
0.0850000040372834
 13
-0.164000007789582
 23
0.0785000037285499
 33
0.0850000040372834
0
3DFACE
8
8
 62
8
 10
-0.0955000045360066
 20
0.0785000037285499
 30
0
 11
-0.0955000045360066
 21
0.101000004797243
 31
0
 12
-0.0955000045360066
 22
0.101000004797243
 32
0.0850000040372834
 13
-0.0955000045360066
 23
0.0785000037285499
 33
0.0850000040372834
0
3DFACE
8
8
 62
8
 10
-0.0955000045360066
 20
0.101000004797243
 30
0
 11
0.0955000045360066
 21
0.101000004797243
 31
0
 12
0.0955000045360066
 22
0.101000004797243
 32
0.0850000040372834
 13
-0.0955000045360066
 23
0.101000004797243
 33
0.0850000040372834
0
3DFACE
8
8
 62
8
 10
0.0955000045360066
 20
0.101000004797243
 30
0
 11
0.0955000045360066
 21
0.0785000037285499
 31
0
 12
0.0955000045360066
 22
0.0785000037285499
 32
0.0850000040372834
 13
0.0955000045360066
 23
0.101000004797243
 33
0.0850000040372834
0
3DFACE
8
8
 62
8
 10
0.0955000045360066
 20
0.0785000037285499
 30
0
 11
0.164000007789582
 21
0.0785000037285499
 31
0
 12
0.164000007789582
 22
0.0785000037285499
 32
0.0850000040372834
 13
0.0955000045360066
 23
0.0785000037285499
 33
0.0850000040372834
0
3DFACE
8
8
 62
8
 10
0.164000007789582
 20
0.0785000037285499
 30
0
 11
0.164000007789582
 21
-0.0785000037285499
 31
0
 12
0.164000007789582
 22
-0.0785000037285499
 32
0.0850000040372834
 13
0.164000007789582
 23
0.0785000037285499
 33
0.0850000040372834
0
3DFACE
8
8
 62
8
 10
0.164000007789582
 20
-0.0785000037285499
 30
0
 11
0.0955000045360066
 21
-0.0785000037285499
 31
0
 12
0.0955000045360066
 22
-0.0785000037285499
 32
0.0850000040372834
 13
0.164000007789582
 23
-0.0785000037285499
 33
0.0850000040372834
0
3DFACE
8
8
 62
8
 10
0.0955000045360066
 20
-0.0785000037285499
 30
0
 11
0.0955000045360066
 21
-0.101000004797243
 31
0
 12
0.0955000045360066
 22
-0.101000004797243
 32
0.0850000040372834
 13
0.0955000045360066
 23
-0.0785000037285499
 33
0.0850000040372834
0
3DFACE
8
8
 62
8
 10
0.0955000045360066
 20
-0.101000004797243
 30
0
 11
-0.0955000045360066
 21
-0.101000004797243
 31
0
 12
-0.0955000045360066
 22
-0.101000004797243
 32
0.0850000040372834
 13
0.0955000045360066
 23
-0.101000004797243
 33
0.0850000040372834
0
3DFACE
8
8
 62
8
 10
-0.0955000045360066
 20
-0.101000004797243
 30
0
 11
-0.0955000045360066
 21
-0.0785000037285499
 31
0
 12
-0.0955000045360066
 22
-0.0785000037285499
 32
0.0850000040372834
 13
-0.0955000045360066
 23
-0.101000004797243
 33
0.0850000040372834
 0
ENDBLK
 0
BLOCK
 70
0
 2
TOP_VALOR_Polygon_59
 10
0
 20
0
 30
0
0
3DFACE
8
23
 62
23
 10
-0.169000008027069
 20
-0.0910000043222681
 30
0
 11
-0.169000008027069
 21
0.0910000043222681
 31
0
 12
0.169000008027069
 22
0.0910000043222681
 32
0
 13
0.169000008027069
 23
-0.0910000043222681
 33
0
0
3DFACE
8
23
 62
23
 10
-0.169000008027069
 20
-0.0910000043222681
 30
0.0850000040372834
 11
-0.169000008027069
 21
0.0910000043222681
 31
0.0850000040372834
 12
0.169000008027069
 22
0.0910000043222681
 32
0.0850000040372834
 13
0.169000008027069
 23
-0.0910000043222681
 33
0.0850000040372834
0
3DFACE
8
23
 62
23
 10
0.169000008027069
 20
-0.0910000043222681
 30
0
 11
-0.169000008027069
 21
-0.0910000043222681
 31
0
 12
-0.169000008027069
 22
-0.0910000043222681
 32
0.0850000040372834
 13
0.169000008027069
 23
-0.0910000043222681
 33
0.0850000040372834
0
3DFACE
8
23
 62
23
 10
-0.169000008027069
 20
-0.0910000043222681
 30
0
 11
-0.169000008027069
 21
0.0910000043222681
 31
0
 12
-0.169000008027069
 22
0.0910000043222681
 32
0.0850000040372834
 13
-0.169000008027069
 23
-0.0910000043222681
 33
0.0850000040372834
0
3DFACE
8
23
 62
23
 10
-0.169000008027069
 20
0.0910000043222681
 30
0
 11
0.169000008027069
 21
0.0910000043222681
 31
0
 12
0.169000008027069
 22
0.0910000043222681
 32
0.0850000040372834
 13
-0.169000008027069
 23
0.0910000043222681
 33
0.0850000040372834
0
3DFACE
8
23
 62
23
 10
0.169000008027069
 20
0.0910000043222681
 30
0
 11
0.169000008027069
 21
-0.0910000043222681
 31
0
 12
0.169000008027069
 22
-0.0910000043222681
 32
0.0850000040372834
 13
0.169000008027069
 23
0.0910000043222681
 33
0.0850000040372834
 0
ENDBLK
0
ENDSEC
0
SECTION
2
ENTITIES
 0
INSERT
 8
8
 2
TOP_PLACE_BOUND_Polygon_41
 10
0
 20
0
 30
0
 41
1
 42
1
 43
1
 0
INSERT
 8
23
 2
TOP_VALOR_Polygon_59
 10
0
 20
0
 30
0
 41
1
 42
1
 43
1
0
ENDSEC
 0
EOF

