 0
SECTION
 2
HEADER
 0
ENDSEC
 0
SECTION
 2
TABLES
 0
ENDSEC
 0
SECTION
 2
BLOCKS
0
BLOCK
70
0
2
TSSOP14_MC_MCH
10
0
20
0
30
0
999
##### Poly 43 ####
0
POLYLINE
5
36
70
1
8
2
6
CONTINUOUS
66
1
10
0
20
0
30
0
39
.04724
0
VERTEX
8
2
6
CONTINUOUS
 10
.15998
 20
-.01809
 30
0
0
VERTEX
8
2
6
CONTINUOUS
 10
.15998
 20
-.03309
 30
0
0
VERTEX
8
2
6
CONTINUOUS
 10
.14998
 20
-.03309
 30
0
0
VERTEX
8
2
6
CONTINUOUS
 10
.14998
 20
-.01809
 30
0
0
SEQEND
0
3DFACE
5
49
8
0
6
CONTINUOUS
 10
.15998
 20
-.01809
 30
.04724
 11
.15998
 21
-.03309
 31
.04724
 12
.14998
 22
-.03309
 32
.04724
 13
.14998
 23
-.01809
 33
.04724
0
3DFACE
5
49
8
0
6
CONTINUOUS
 10
.15998
 20
-.01809
 30
0
 11
.15998
 21
-.03309
 31
0
 12
.14998
 22
-.03309
 32
0
 13
.14998
 23
-.01809
 33
0
999
##### Poly 112 ####
0
POLYLINE
5
36
70
1
8
8
6
CONTINUOUS
66
1
10
0
20
0
30
0
39
.04724
0
VERTEX
8
8
6
CONTINUOUS
 10
-.14998
 20
-.09377
 30
0
0
VERTEX
8
8
6
CONTINUOUS
 10
-.14998
 20
.09377
 30
0
0
VERTEX
8
8
6
CONTINUOUS
 10
-.09858
 20
.09377
 30
0
0
VERTEX
8
8
6
CONTINUOUS
 10
-.09858
 20
.11039
 30
0
0
VERTEX
8
8
6
CONTINUOUS
 10
.09858
 20
.11039
 30
0
0
VERTEX
8
8
6
CONTINUOUS
 10
.09858
 20
.09377
 30
0
0
VERTEX
8
8
6
CONTINUOUS
 10
.14998
 20
.09377
 30
0
0
VERTEX
8
8
6
CONTINUOUS
 10
.14998
 20
-.09377
 30
0
0
VERTEX
8
8
6
CONTINUOUS
 10
.09858
 20
-.09377
 30
0
0
VERTEX
8
8
6
CONTINUOUS
 10
.09858
 20
-.11039
 30
0
0
VERTEX
8
8
6
CONTINUOUS
 10
-.09858
 20
-.11039
 30
0
0
VERTEX
8
8
6
CONTINUOUS
 10
-.09858
 20
-.09377
 30
0
0
SEQEND
999
##### Poly 130 ####
0
POLYLINE
5
36
70
1
8
23
6
CONTINUOUS
66
1
10
0
20
0
30
0
39
.04724
0
VERTEX
8
23
6
CONTINUOUS
 10
-.16498
 20
-.11039
 30
0
0
VERTEX
8
23
6
CONTINUOUS
 10
-.16498
 20
.11039
 30
0
0
VERTEX
8
23
6
CONTINUOUS
 10
.16498
 20
.11039
 30
0
0
VERTEX
8
23
6
CONTINUOUS
 10
.16498
 20
-.11039
 30
0
0
SEQEND
0
3DFACE
5
49
8
0
6
CONTINUOUS
 10
-.16498
 20
-.11039
 30
.04724
 11
-.16498
 21
.11039
 31
.04724
 12
.16498
 22
.11039
 32
.04724
 13
.16498
 23
-.11039
 33
.04724
0
3DFACE
5
49
8
0
6
CONTINUOUS
 10
-.16498
 20
-.11039
 30
0
 11
-.16498
 21
.11039
 31
0
 12
.16498
 22
.11039
 32
0
 13
.16498
 23
-.11039
 33
0
0
ENDBLK
0
BLOCK
70
0
2
TSSOP14_MC_MCH-L
10
0
20
0
30
0
999
##### Poly 43 ####
0
POLYLINE
5
36
70
1
8
2
6
CONTINUOUS
66
1
10
0
20
0
30
0
39
.04724
0
VERTEX
8
2
6
CONTINUOUS
 10
.15198
 20
-.01809
 30
0
0
VERTEX
8
2
6
CONTINUOUS
 10
.15198
 20
-.03309
 30
0
0
VERTEX
8
2
6
CONTINUOUS
 10
.14198
 20
-.03309
 30
0
0
VERTEX
8
2
6
CONTINUOUS
 10
.14198
 20
-.01809
 30
0
0
SEQEND
0
3DFACE
5
49
8
0
6
CONTINUOUS
 10
.15198
 20
-.01809
 30
.04724
 11
.15198
 21
-.03309
 31
.04724
 12
.14198
 22
-.03309
 32
.04724
 13
.14198
 23
-.01809
 33
.04724
0
3DFACE
5
49
8
0
6
CONTINUOUS
 10
.15198
 20
-.01809
 30
0
 11
.15198
 21
-.03309
 31
0
 12
.14198
 22
-.03309
 32
0
 13
.14198
 23
-.01809
 33
0
999
##### Poly 112 ####
0
POLYLINE
5
36
70
1
8
8
6
CONTINUOUS
66
1
10
0
20
0
30
0
39
.04724
0
VERTEX
8
8
6
CONTINUOUS
 10
-.13598
 20
-.08677
 30
0
0
VERTEX
8
8
6
CONTINUOUS
 10
-.13598
 20
.08677
 30
0
0
VERTEX
8
8
6
CONTINUOUS
 10
-.09258
 20
.08677
 30
0
0
VERTEX
8
8
6
CONTINUOUS
 10
-.09258
 20
.10439
 30
0
0
VERTEX
8
8
6
CONTINUOUS
 10
.09258
 20
.10439
 30
0
0
VERTEX
8
8
6
CONTINUOUS
 10
.09258
 20
.08677
 30
0
0
VERTEX
8
8
6
CONTINUOUS
 10
.13598
 20
.08677
 30
0
0
VERTEX
8
8
6
CONTINUOUS
 10
.13598
 20
-.08677
 30
0
0
VERTEX
8
8
6
CONTINUOUS
 10
.09258
 20
-.08677
 30
0
0
VERTEX
8
8
6
CONTINUOUS
 10
.09258
 20
-.10439
 30
0
0
VERTEX
8
8
6
CONTINUOUS
 10
-.09258
 20
-.10439
 30
0
0
VERTEX
8
8
6
CONTINUOUS
 10
-.09258
 20
-.08677
 30
0
0
SEQEND
999
##### Poly 130 ####
0
POLYLINE
5
36
70
1
8
23
6
CONTINUOUS
66
1
10
0
20
0
30
0
39
.04724
0
VERTEX
8
23
6
CONTINUOUS
 10
-.15698
 20
-.11039
 30
0
0
VERTEX
8
23
6
CONTINUOUS
 10
-.15698
 20
.11039
 30
0
0
VERTEX
8
23
6
CONTINUOUS
 10
.15698
 20
.11039
 30
0
0
VERTEX
8
23
6
CONTINUOUS
 10
.15698
 20
-.11039
 30
0
0
SEQEND
0
3DFACE
5
49
8
0
6
CONTINUOUS
 10
-.15698
 20
-.11039
 30
.04724
 11
-.15698
 21
.11039
 31
.04724
 12
.15698
 22
.11039
 32
.04724
 13
.15698
 23
-.11039
 33
.04724
0
3DFACE
5
49
8
0
6
CONTINUOUS
 10
-.15698
 20
-.11039
 30
0
 11
-.15698
 21
.11039
 31
0
 12
.15698
 22
.11039
 32
0
 13
.15698
 23
-.11039
 33
0
0
ENDBLK
0
BLOCK
70
0
2
TSSOP14_MC_MCH-M
10
0
20
0
30
0
999
##### Poly 43 ####
0
POLYLINE
5
36
70
1
8
2
6
CONTINUOUS
66
1
10
0
20
0
30
0
39
.04724
0
VERTEX
8
2
6
CONTINUOUS
 10
.16798
 20
-.01809
 30
0
0
VERTEX
8
2
6
CONTINUOUS
 10
.16798
 20
-.03309
 30
0
0
VERTEX
8
2
6
CONTINUOUS
 10
.15798
 20
-.03309
 30
0
0
VERTEX
8
2
6
CONTINUOUS
 10
.15798
 20
-.01809
 30
0
0
SEQEND
0
3DFACE
5
49
8
0
6
CONTINUOUS
 10
.16798
 20
-.01809
 30
.04724
 11
.16798
 21
-.03309
 31
.04724
 12
.15798
 22
-.03309
 32
.04724
 13
.15798
 23
-.01809
 33
.04724
0
3DFACE
5
49
8
0
6
CONTINUOUS
 10
.16798
 20
-.01809
 30
0
 11
.16798
 21
-.03309
 31
0
 12
.15798
 22
-.03309
 32
0
 13
.15798
 23
-.01809
 33
0
999
##### Poly 112 ####
0
POLYLINE
5
36
70
1
8
8
6
CONTINUOUS
66
1
10
0
20
0
30
0
39
.04724
0
VERTEX
8
8
6
CONTINUOUS
 10
-.16798
 20
-.10377
 30
0
0
VERTEX
8
8
6
CONTINUOUS
 10
-.16798
 20
.10377
 30
0
0
VERTEX
8
8
6
CONTINUOUS
 10
-.10858
 20
.10377
 30
0
0
VERTEX
8
8
6
CONTINUOUS
 10
-.10858
 20
.12039
 30
0
0
VERTEX
8
8
6
CONTINUOUS
 10
.10858
 20
.12039
 30
0
0
VERTEX
8
8
6
CONTINUOUS
 10
.10858
 20
.10377
 30
0
0
VERTEX
8
8
6
CONTINUOUS
 10
.16798
 20
.10377
 30
0
0
VERTEX
8
8
6
CONTINUOUS
 10
.16798
 20
-.10377
 30
0
0
VERTEX
8
8
6
CONTINUOUS
 10
.10858
 20
-.10377
 30
0
0
VERTEX
8
8
6
CONTINUOUS
 10
.10858
 20
-.12039
 30
0
0
VERTEX
8
8
6
CONTINUOUS
 10
-.10858
 20
-.12039
 30
0
0
VERTEX
8
8
6
CONTINUOUS
 10
-.10858
 20
-.10377
 30
0
0
SEQEND
999
##### Poly 130 ####
0
POLYLINE
5
36
70
1
8
23
6
CONTINUOUS
66
1
10
0
20
0
30
0
39
.04724
0
VERTEX
8
23
6
CONTINUOUS
 10
-.17298
 20
-.11039
 30
0
0
VERTEX
8
23
6
CONTINUOUS
 10
-.17298
 20
.11039
 30
0
0
VERTEX
8
23
6
CONTINUOUS
 10
.17298
 20
.11039
 30
0
0
VERTEX
8
23
6
CONTINUOUS
 10
.17298
 20
-.11039
 30
0
0
SEQEND
0
3DFACE
5
49
8
0
6
CONTINUOUS
 10
-.17298
 20
-.11039
 30
.04724
 11
-.17298
 21
.11039
 31
.04724
 12
.17298
 22
.11039
 32
.04724
 13
.17298
 23
-.11039
 33
.04724
0
3DFACE
5
49
8
0
6
CONTINUOUS
 10
-.17298
 20
-.11039
 30
0
 11
-.17298
 21
.11039
 31
0
 12
.17298
 22
.11039
 32
0
 13
.17298
 23
-.11039
 33
0
0
ENDBLK
0
ENDSEC
0
SECTION
2
ENTITIES
 0
INSERT
 8
0
 2
TSSOP14_MC_MCH
 10
0
 20
0
 30
0
 41
1
 42
1
 43
1
 0
INSERT
 8
0
 2
TSSOP14_MC_MCH-L
 10
2
 20
0
 30
0
 41
1
 42
1
 43
1
 0
INSERT
 8
0
 2
TSSOP14_MC_MCH-M
 10
0
 20
2
 30
0
 41
1
 42
1
 43
1
0
ENDSEC
 0
EOF

