 0
SECTION
 2
HEADER
 0
ENDSEC
 0
SECTION
 2
TABLES
 0
ENDSEC
 0
SECTION
 2
BLOCKS
0
BLOCK
70
0
2
TSSOP16_5P1X4P5_NEX
10
0
20
0
30
0
999
##### Poly 49 ####
0
POLYLINE
5
36
70
1
8
2
6
CONTINUOUS
66
1
10
0
20
0
30
0
39
.043
0
VERTEX
8
2
6
CONTINUOUS
 10
.164
 20
-.05648
 30
0
0
VERTEX
8
2
6
CONTINUOUS
 10
.164
 20
-.07148
 30
0
0
VERTEX
8
2
6
CONTINUOUS
 10
.154
 20
-.07148
 30
0
0
VERTEX
8
2
6
CONTINUOUS
 10
.154
 20
-.05648
 30
0
0
SEQEND
0
3DFACE
5
49
8
0
6
CONTINUOUS
 10
.164
 20
-.05648
 30
.043
 11
.164
 21
-.07148
 31
.043
 12
.154
 22
-.07148
 32
.043
 13
.154
 23
-.05648
 33
.043
0
3DFACE
5
49
8
0
6
CONTINUOUS
 10
.164
 20
-.05648
 30
0
 11
.164
 21
-.07148
 31
0
 12
.154
 22
-.07148
 32
0
 13
.154
 23
-.05648
 33
0
999
##### Poly 126 ####
0
POLYLINE
5
36
70
1
8
8
6
CONTINUOUS
66
1
10
0
20
0
30
0
39
.043
0
VERTEX
8
8
6
CONTINUOUS
 10
-.154
 20
-.10657
 30
0
0
VERTEX
8
8
6
CONTINUOUS
 10
-.154
 20
.10657
 30
0
0
VERTEX
8
8
6
CONTINUOUS
 10
-.0965
 20
.10657
 30
0
0
VERTEX
8
8
6
CONTINUOUS
 10
-.0965
 20
.1085
 30
0
0
VERTEX
8
8
6
CONTINUOUS
 10
.0965
 20
.1085
 30
0
0
VERTEX
8
8
6
CONTINUOUS
 10
.0965
 20
.10657
 30
0
0
VERTEX
8
8
6
CONTINUOUS
 10
.154
 20
.10657
 30
0
0
VERTEX
8
8
6
CONTINUOUS
 10
.154
 20
-.10657
 30
0
0
VERTEX
8
8
6
CONTINUOUS
 10
.0965
 20
-.10657
 30
0
0
VERTEX
8
8
6
CONTINUOUS
 10
.0965
 20
-.1085
 30
0
0
VERTEX
8
8
6
CONTINUOUS
 10
-.0965
 20
-.1085
 30
0
0
VERTEX
8
8
6
CONTINUOUS
 10
-.0965
 20
-.10657
 30
0
0
SEQEND
999
##### Poly 144 ####
0
POLYLINE
5
36
70
1
8
23
6
CONTINUOUS
66
1
10
0
20
0
30
0
39
.043
0
VERTEX
8
23
6
CONTINUOUS
 10
-.169
 20
-.1085
 30
0
0
VERTEX
8
23
6
CONTINUOUS
 10
-.169
 20
.1085
 30
0
0
VERTEX
8
23
6
CONTINUOUS
 10
.169
 20
.1085
 30
0
0
VERTEX
8
23
6
CONTINUOUS
 10
.169
 20
-.1085
 30
0
0
SEQEND
0
3DFACE
5
49
8
0
6
CONTINUOUS
 10
-.169
 20
-.1085
 30
.043
 11
-.169
 21
.1085
 31
.043
 12
.169
 22
.1085
 32
.043
 13
.169
 23
-.1085
 33
.043
0
3DFACE
5
49
8
0
6
CONTINUOUS
 10
-.169
 20
-.1085
 30
0
 11
-.169
 21
.1085
 31
0
 12
.169
 22
.1085
 32
0
 13
.169
 23
-.1085
 33
0
0
ENDBLK
0
BLOCK
70
0
2
TSSOP16_5P1X4P5_NEX-L
10
0
20
0
30
0
999
##### Poly 49 ####
0
POLYLINE
5
36
70
1
8
2
6
CONTINUOUS
66
1
10
0
20
0
30
0
39
.043
0
VERTEX
8
2
6
CONTINUOUS
 10
.156
 20
-.05648
 30
0
0
VERTEX
8
2
6
CONTINUOUS
 10
.156
 20
-.07148
 30
0
0
VERTEX
8
2
6
CONTINUOUS
 10
.146
 20
-.07148
 30
0
0
VERTEX
8
2
6
CONTINUOUS
 10
.146
 20
-.05648
 30
0
0
SEQEND
0
3DFACE
5
49
8
0
6
CONTINUOUS
 10
.156
 20
-.05648
 30
.043
 11
.156
 21
-.07148
 31
.043
 12
.146
 22
-.07148
 32
.043
 13
.146
 23
-.05648
 33
.043
0
3DFACE
5
49
8
0
6
CONTINUOUS
 10
.156
 20
-.05648
 30
0
 11
.156
 21
-.07148
 31
0
 12
.146
 22
-.07148
 32
0
 13
.146
 23
-.05648
 33
0
999
##### Poly 126 ####
0
POLYLINE
5
36
70
1
8
8
6
CONTINUOUS
66
1
10
0
20
0
30
0
39
.043
0
VERTEX
8
8
6
CONTINUOUS
 10
-.14
 20
-.09957
 30
0
0
VERTEX
8
8
6
CONTINUOUS
 10
-.14
 20
.09957
 30
0
0
VERTEX
8
8
6
CONTINUOUS
 10
-.0905
 20
.09957
 30
0
0
VERTEX
8
8
6
CONTINUOUS
 10
-.0905
 20
.1025
 30
0
0
VERTEX
8
8
6
CONTINUOUS
 10
.0905
 20
.1025
 30
0
0
VERTEX
8
8
6
CONTINUOUS
 10
.0905
 20
.09957
 30
0
0
VERTEX
8
8
6
CONTINUOUS
 10
.14
 20
.09957
 30
0
0
VERTEX
8
8
6
CONTINUOUS
 10
.14
 20
-.09957
 30
0
0
VERTEX
8
8
6
CONTINUOUS
 10
.0905
 20
-.09957
 30
0
0
VERTEX
8
8
6
CONTINUOUS
 10
.0905
 20
-.1025
 30
0
0
VERTEX
8
8
6
CONTINUOUS
 10
-.0905
 20
-.1025
 30
0
0
VERTEX
8
8
6
CONTINUOUS
 10
-.0905
 20
-.09957
 30
0
0
SEQEND
999
##### Poly 144 ####
0
POLYLINE
5
36
70
1
8
23
6
CONTINUOUS
66
1
10
0
20
0
30
0
39
.043
0
VERTEX
8
23
6
CONTINUOUS
 10
-.161
 20
-.1085
 30
0
0
VERTEX
8
23
6
CONTINUOUS
 10
-.161
 20
.1085
 30
0
0
VERTEX
8
23
6
CONTINUOUS
 10
.161
 20
.1085
 30
0
0
VERTEX
8
23
6
CONTINUOUS
 10
.161
 20
-.1085
 30
0
0
SEQEND
0
3DFACE
5
49
8
0
6
CONTINUOUS
 10
-.161
 20
-.1085
 30
.043
 11
-.161
 21
.1085
 31
.043
 12
.161
 22
.1085
 32
.043
 13
.161
 23
-.1085
 33
.043
0
3DFACE
5
49
8
0
6
CONTINUOUS
 10
-.161
 20
-.1085
 30
0
 11
-.161
 21
.1085
 31
0
 12
.161
 22
.1085
 32
0
 13
.161
 23
-.1085
 33
0
0
ENDBLK
0
BLOCK
70
0
2
TSSOP16_5P1X4P5_NEX-M
10
0
20
0
30
0
999
##### Poly 49 ####
0
POLYLINE
5
36
70
1
8
2
6
CONTINUOUS
66
1
10
0
20
0
30
0
39
.043
0
VERTEX
8
2
6
CONTINUOUS
 10
.172
 20
-.05648
 30
0
0
VERTEX
8
2
6
CONTINUOUS
 10
.172
 20
-.07148
 30
0
0
VERTEX
8
2
6
CONTINUOUS
 10
.162
 20
-.07148
 30
0
0
VERTEX
8
2
6
CONTINUOUS
 10
.162
 20
-.05648
 30
0
0
SEQEND
0
3DFACE
5
49
8
0
6
CONTINUOUS
 10
.172
 20
-.05648
 30
.043
 11
.172
 21
-.07148
 31
.043
 12
.162
 22
-.07148
 32
.043
 13
.162
 23
-.05648
 33
.043
0
3DFACE
5
49
8
0
6
CONTINUOUS
 10
.172
 20
-.05648
 30
0
 11
.172
 21
-.07148
 31
0
 12
.162
 22
-.07148
 32
0
 13
.162
 23
-.05648
 33
0
999
##### Poly 126 ####
0
POLYLINE
5
36
70
1
8
8
6
CONTINUOUS
66
1
10
0
20
0
30
0
39
.043
0
VERTEX
8
8
6
CONTINUOUS
 10
-.172
 20
-.11657
 30
0
0
VERTEX
8
8
6
CONTINUOUS
 10
-.172
 20
.11657
 30
0
0
VERTEX
8
8
6
CONTINUOUS
 10
-.1065
 20
.11657
 30
0
0
VERTEX
8
8
6
CONTINUOUS
 10
-.1065
 20
.1185
 30
0
0
VERTEX
8
8
6
CONTINUOUS
 10
.1065
 20
.1185
 30
0
0
VERTEX
8
8
6
CONTINUOUS
 10
.1065
 20
.11657
 30
0
0
VERTEX
8
8
6
CONTINUOUS
 10
.172
 20
.11657
 30
0
0
VERTEX
8
8
6
CONTINUOUS
 10
.172
 20
-.11657
 30
0
0
VERTEX
8
8
6
CONTINUOUS
 10
.1065
 20
-.11657
 30
0
0
VERTEX
8
8
6
CONTINUOUS
 10
.1065
 20
-.1185
 30
0
0
VERTEX
8
8
6
CONTINUOUS
 10
-.1065
 20
-.1185
 30
0
0
VERTEX
8
8
6
CONTINUOUS
 10
-.1065
 20
-.11657
 30
0
0
SEQEND
999
##### Poly 144 ####
0
POLYLINE
5
36
70
1
8
23
6
CONTINUOUS
66
1
10
0
20
0
30
0
39
.043
0
VERTEX
8
23
6
CONTINUOUS
 10
-.177
 20
-.1085
 30
0
0
VERTEX
8
23
6
CONTINUOUS
 10
-.177
 20
.1085
 30
0
0
VERTEX
8
23
6
CONTINUOUS
 10
.177
 20
.1085
 30
0
0
VERTEX
8
23
6
CONTINUOUS
 10
.177
 20
-.1085
 30
0
0
SEQEND
0
3DFACE
5
49
8
0
6
CONTINUOUS
 10
-.177
 20
-.1085
 30
.043
 11
-.177
 21
.1085
 31
.043
 12
.177
 22
.1085
 32
.043
 13
.177
 23
-.1085
 33
.043
0
3DFACE
5
49
8
0
6
CONTINUOUS
 10
-.177
 20
-.1085
 30
0
 11
-.177
 21
.1085
 31
0
 12
.177
 22
.1085
 32
0
 13
.177
 23
-.1085
 33
0
0
ENDBLK
0
ENDSEC
0
SECTION
2
ENTITIES
 0
INSERT
 8
0
 2
TSSOP16_5P1X4P5_NEX
 10
0
 20
0
 30
0
 41
1
 42
1
 43
1
 0
INSERT
 8
0
 2
TSSOP16_5P1X4P5_NEX-L
 10
2
 20
0
 30
0
 41
1
 42
1
 43
1
 0
INSERT
 8
0
 2
TSSOP16_5P1X4P5_NEX-M
 10
0
 20
2
 30
0
 41
1
 42
1
 43
1
0
ENDSEC
 0
EOF

