 0
SECTION
 2
HEADER
 0
ENDSEC
 0
SECTION
 2
TABLES
 0
ENDSEC
 0
SECTION
 2
BLOCKS
0
BLOCK
70
0
2
DBT38_TEX-M
10
0
20
0
30
0
999
##### Poly 1 ####
0
POLYLINE
5
36
70
1
8
2
6
CONTINUOUS
66
1
10
0
20
0
30
0
39
.047
0
VERTEX
8
2
6
CONTINUOUS
 10
-.172
 20
.0075
 30
0
0
VERTEX
8
2
6
CONTINUOUS
 10
-.172
 20
-.0075
 30
0
0
VERTEX
8
2
6
CONTINUOUS
 10
-.162
 20
-.0075
 30
0
0
VERTEX
8
2
6
CONTINUOUS
 10
-.162
 20
.0075
 30
0
0
SEQEND
0
3DFACE
5
49
8
0
6
CONTINUOUS
 10
-.172
 20
.0075
 30
.047
 11
-.172
 21
-.0075
 31
.047
 12
-.162
 22
-.0075
 32
.047
 13
-.162
 23
.0075
 33
.047
0
3DFACE
5
49
8
0
6
CONTINUOUS
 10
-.172
 20
.0075
 30
0
 11
-.172
 21
-.0075
 31
0
 12
-.162
 22
-.0075
 32
0
 13
-.162
 23
.0075
 33
0
999
##### Poly 116 ####
0
POLYLINE
5
36
70
1
8
2
6
CONTINUOUS
66
1
10
0
20
0
30
0
39
.047
0
VERTEX
8
2
6
CONTINUOUS
 10
.172
 20
-.16967
 30
0
0
VERTEX
8
2
6
CONTINUOUS
 10
.172
 20
-.18467
 30
0
0
VERTEX
8
2
6
CONTINUOUS
 10
.162
 20
-.18467
 30
0
0
VERTEX
8
2
6
CONTINUOUS
 10
.162
 20
-.16967
 30
0
0
SEQEND
0
3DFACE
5
49
8
0
6
CONTINUOUS
 10
.172
 20
-.16967
 30
.047
 11
.172
 21
-.18467
 31
.047
 12
.162
 22
-.18467
 32
.047
 13
.162
 23
-.16967
 33
.047
0
3DFACE
5
49
8
0
6
CONTINUOUS
 10
.172
 20
-.16967
 30
0
 11
.172
 21
-.18467
 31
0
 12
.162
 22
-.18467
 32
0
 13
.162
 23
-.16967
 33
0
999
##### Poly 117 ####
0
POLYLINE
5
36
70
1
8
2
6
CONTINUOUS
66
1
10
0
20
0
30
0
39
.047
0
VERTEX
8
2
6
CONTINUOUS
 10
.172
 20
.02719
 30
0
0
VERTEX
8
2
6
CONTINUOUS
 10
.172
 20
.01219
 30
0
0
VERTEX
8
2
6
CONTINUOUS
 10
.162
 20
.01219
 30
0
0
VERTEX
8
2
6
CONTINUOUS
 10
.162
 20
.02719
 30
0
0
SEQEND
0
3DFACE
5
49
8
0
6
CONTINUOUS
 10
.172
 20
.02719
 30
.047
 11
.172
 21
.01219
 31
.047
 12
.162
 22
.01219
 32
.047
 13
.162
 23
.02719
 33
.047
0
3DFACE
5
49
8
0
6
CONTINUOUS
 10
.172
 20
.02719
 30
0
 11
.172
 21
.01219
 31
0
 12
.162
 22
.01219
 32
0
 13
.162
 23
.02719
 33
0
999
##### Poly 282 ####
0
POLYLINE
5
36
70
1
8
8
6
CONTINUOUS
66
1
10
0
20
0
30
0
39
.047
0
VERTEX
8
8
6
CONTINUOUS
 10
-.172
 20
-.20267
 30
0
0
VERTEX
8
8
6
CONTINUOUS
 10
-.172
 20
.20267
 30
0
0
VERTEX
8
8
6
CONTINUOUS
 10
-.1085
 20
.20267
 30
0
0
VERTEX
8
8
6
CONTINUOUS
 10
-.1085
 20
.213
 30
0
0
VERTEX
8
8
6
CONTINUOUS
 10
.1085
 20
.213
 30
0
0
VERTEX
8
8
6
CONTINUOUS
 10
.1085
 20
.20267
 30
0
0
VERTEX
8
8
6
CONTINUOUS
 10
.172
 20
.20267
 30
0
0
VERTEX
8
8
6
CONTINUOUS
 10
.172
 20
-.20267
 30
0
0
VERTEX
8
8
6
CONTINUOUS
 10
.1085
 20
-.20267
 30
0
0
VERTEX
8
8
6
CONTINUOUS
 10
.1085
 20
-.213
 30
0
0
VERTEX
8
8
6
CONTINUOUS
 10
-.1085
 20
-.213
 30
0
0
VERTEX
8
8
6
CONTINUOUS
 10
-.1085
 20
-.20267
 30
0
0
SEQEND
999
##### Poly 300 ####
0
POLYLINE
5
36
70
1
8
23
6
CONTINUOUS
66
1
10
0
20
0
30
0
39
.047
0
VERTEX
8
23
6
CONTINUOUS
 10
-.177
 20
-.203
 30
0
0
VERTEX
8
23
6
CONTINUOUS
 10
-.177
 20
.203
 30
0
0
VERTEX
8
23
6
CONTINUOUS
 10
.177
 20
.203
 30
0
0
VERTEX
8
23
6
CONTINUOUS
 10
.177
 20
-.203
 30
0
0
SEQEND
0
3DFACE
5
49
8
0
6
CONTINUOUS
 10
-.177
 20
-.203
 30
.047
 11
-.177
 21
.203
 31
.047
 12
.177
 22
.203
 32
.047
 13
.177
 23
-.203
 33
.047
0
3DFACE
5
49
8
0
6
CONTINUOUS
 10
-.177
 20
-.203
 30
0
 11
-.177
 21
.203
 31
0
 12
.177
 22
.203
 32
0
 13
.177
 23
-.203
 33
0
0
ENDBLK
0
ENDSEC
0
SECTION
2
ENTITIES
 0
INSERT
 8
0
 2
DBT38_TEX-M
 10
0
 20
0
 30
0
 41
1
 42
1
 43
1
0
ENDSEC
 0
EOF

