 0
SECTION
 2
HEADER
 0
ENDSEC
 0
SECTION
 2
TABLES
 0
ENDSEC
 0
SECTION
 2
BLOCKS
0
BLOCK
70
0
2
PW24-M
10
0
20
0
30
0
999
##### Poly 1 ####
0
POLYLINE
5
36
70
1
8
2
6
CONTINUOUS
66
1
10
0
20
0
30
0
39
.047
0
VERTEX
8
2
6
CONTINUOUS
 10
-.172
 20
-.08207
 30
0
0
VERTEX
8
2
6
CONTINUOUS
 10
-.172
 20
-.09707
 30
0
0
VERTEX
8
2
6
CONTINUOUS
 10
-.162
 20
-.09707
 30
0
0
VERTEX
8
2
6
CONTINUOUS
 10
-.162
 20
-.08207
 30
0
0
SEQEND
0
3DFACE
5
49
8
0
6
CONTINUOUS
 10
-.172
 20
-.08207
 30
.047
 11
-.172
 21
-.09707
 31
.047
 12
-.162
 22
-.09707
 32
.047
 13
-.162
 23
-.08207
 33
.047
0
3DFACE
5
49
8
0
6
CONTINUOUS
 10
-.172
 20
-.08207
 30
0
 11
-.172
 21
-.09707
 31
0
 12
-.162
 22
-.09707
 32
0
 13
-.162
 23
-.08207
 33
0
999
##### Poly 74 ####
0
POLYLINE
5
36
70
1
8
2
6
CONTINUOUS
66
1
10
0
20
0
30
0
39
.047
0
VERTEX
8
2
6
CONTINUOUS
 10
.172
 20
.04589
 30
0
0
VERTEX
8
2
6
CONTINUOUS
 10
.172
 20
.03089
 30
0
0
VERTEX
8
2
6
CONTINUOUS
 10
.162
 20
.03089
 30
0
0
VERTEX
8
2
6
CONTINUOUS
 10
.162
 20
.04589
 30
0
0
SEQEND
0
3DFACE
5
49
8
0
6
CONTINUOUS
 10
.172
 20
.04589
 30
.047
 11
.172
 21
.03089
 31
.047
 12
.162
 22
.03089
 32
.047
 13
.162
 23
.04589
 33
.047
0
3DFACE
5
49
8
0
6
CONTINUOUS
 10
.172
 20
.04589
 30
0
 11
.172
 21
.03089
 31
0
 12
.162
 22
.03089
 32
0
 13
.162
 23
.04589
 33
0
999
##### Poly 183 ####
0
POLYLINE
5
36
70
1
8
8
6
CONTINUOUS
66
1
10
0
20
0
30
0
39
.047
0
VERTEX
8
8
6
CONTINUOUS
 10
-.172
 20
-.16775
 30
0
0
VERTEX
8
8
6
CONTINUOUS
 10
-.172
 20
.16775
 30
0
0
VERTEX
8
8
6
CONTINUOUS
 10
-.1085
 20
.16775
 30
0
0
VERTEX
8
8
6
CONTINUOUS
 10
-.1085
 20
.1755
 30
0
0
VERTEX
8
8
6
CONTINUOUS
 10
.1085
 20
.1755
 30
0
0
VERTEX
8
8
6
CONTINUOUS
 10
.1085
 20
.16775
 30
0
0
VERTEX
8
8
6
CONTINUOUS
 10
.172
 20
.16775
 30
0
0
VERTEX
8
8
6
CONTINUOUS
 10
.172
 20
-.16775
 30
0
0
VERTEX
8
8
6
CONTINUOUS
 10
.1085
 20
-.16775
 30
0
0
VERTEX
8
8
6
CONTINUOUS
 10
.1085
 20
-.1755
 30
0
0
VERTEX
8
8
6
CONTINUOUS
 10
-.1085
 20
-.1755
 30
0
0
VERTEX
8
8
6
CONTINUOUS
 10
-.1085
 20
-.16775
 30
0
0
SEQEND
999
##### Poly 201 ####
0
POLYLINE
5
36
70
1
8
23
6
CONTINUOUS
66
1
10
0
20
0
30
0
39
.047
0
VERTEX
8
23
6
CONTINUOUS
 10
-.177
 20
-.1655
 30
0
0
VERTEX
8
23
6
CONTINUOUS
 10
-.177
 20
.1655
 30
0
0
VERTEX
8
23
6
CONTINUOUS
 10
.177
 20
.1655
 30
0
0
VERTEX
8
23
6
CONTINUOUS
 10
.177
 20
-.1655
 30
0
0
SEQEND
0
3DFACE
5
49
8
0
6
CONTINUOUS
 10
-.177
 20
-.1655
 30
.047
 11
-.177
 21
.1655
 31
.047
 12
.177
 22
.1655
 32
.047
 13
.177
 23
-.1655
 33
.047
0
3DFACE
5
49
8
0
6
CONTINUOUS
 10
-.177
 20
-.1655
 30
0
 11
-.177
 21
.1655
 31
0
 12
.177
 22
.1655
 32
0
 13
.177
 23
-.1655
 33
0
0
ENDBLK
0
ENDSEC
0
SECTION
2
ENTITIES
 0
INSERT
 8
0
 2
PW24-M
 10
0
 20
0
 30
0
 41
1
 42
1
 43
1
0
ENDSEC
 0
EOF

