 999
VISION3D DXF
0
SECTION
2
HEADER
0
ENDSEC
0
SECTION
2
TABLES
0
ENDSEC
0
SECTION
2
BLOCKS
 0
BLOCK
 70
0
 2
TOP_PLACE_BOUND_Polygon_69
 10
0
 20
0
 30
0
0
3DFACE
8
8
 62
8
 10
-0.132000006269664
 20
-0.162500007718336
 30
0
 11
-0.132000006269664
 21
0.162500007718336
 31
0
 12
-0.0800000037997961
 22
0.162500007718336
 32
0
 13
-0.0800000037997961
 23
0.162500007718336
 33
0
0
3DFACE
8
8
 62
8
 10
-0.132000006269664
 20
-0.162500007718336
 30
0
 11
-0.0800000037997961
 21
0.162500007718336
 31
0
 12
0.0800000037997961
 22
0.192000009119511
 32
0
 13
0.0800000037997961
 23
0.192000009119511
 33
0
0
3DFACE
8
8
 62
8
 10
-0.0800000037997961
 20
0.162500007718336
 30
0
 11
-0.0800000037997961
 21
0.192000009119511
 31
0
 12
0.0800000037997961
 22
0.192000009119511
 32
0
 13
0.0800000037997961
 23
0.192000009119511
 33
0
0
3DFACE
8
8
 62
8
 10
-0.132000006269664
 20
-0.162500007718336
 30
0
 11
0.0800000037997961
 21
0.192000009119511
 31
0
 12
0.0800000037997961
 22
0.162500007718336
 32
0
 13
0.0800000037997961
 23
0.162500007718336
 33
0
0
3DFACE
8
8
 62
8
 10
-0.132000006269664
 20
-0.162500007718336
 30
0
 11
0.0800000037997961
 21
0.162500007718336
 31
0
 12
0.132000006269664
 22
0.162500007718336
 32
0
 13
0.132000006269664
 23
0.162500007718336
 33
0
0
3DFACE
8
8
 62
8
 10
-0.132000006269664
 20
-0.162500007718336
 30
0
 11
0.132000006269664
 21
0.162500007718336
 31
0
 12
-0.0800000037997961
 22
-0.162500007718336
 32
0
 13
-0.0800000037997961
 23
-0.162500007718336
 33
0
0
3DFACE
8
8
 62
8
 10
0.132000006269664
 20
0.162500007718336
 30
0
 11
0.132000006269664
 21
-0.162500007718336
 31
0
 12
0.0800000037997961
 22
-0.162500007718336
 32
0
 13
0.0800000037997961
 23
-0.162500007718336
 33
0
0
3DFACE
8
8
 62
8
 10
0.132000006269664
 20
0.162500007718336
 30
0
 11
0.0800000037997961
 21
-0.162500007718336
 31
0
 12
-0.0800000037997961
 22
-0.192000009119511
 32
0
 13
-0.0800000037997961
 23
-0.192000009119511
 33
0
0
3DFACE
8
8
 62
8
 10
0.0800000037997961
 20
-0.162500007718336
 30
0
 11
0.0800000037997961
 21
-0.192000009119511
 31
0
 12
-0.0800000037997961
 22
-0.192000009119511
 32
0
 13
-0.0800000037997961
 23
-0.192000009119511
 33
0
0
3DFACE
8
8
 62
8
 10
0.132000006269664
 20
0.162500007718336
 30
0
 11
-0.0800000037997961
 21
-0.192000009119511
 31
0
 12
-0.0800000037997961
 22
-0.162500007718336
 32
0
 13
-0.0800000037997961
 23
-0.162500007718336
 33
0
0
3DFACE
8
8
 62
8
 10
-0.132000006269664
 20
-0.162500007718336
 30
0.0860000040847808
 11
-0.132000006269664
 21
0.162500007718336
 31
0.0860000040847808
 12
-0.0800000037997961
 22
0.162500007718336
 32
0.0860000040847808
 13
-0.0800000037997961
 23
0.162500007718336
 33
0.0860000040847808
0
3DFACE
8
8
 62
8
 10
-0.132000006269664
 20
-0.162500007718336
 30
0.0860000040847808
 11
-0.0800000037997961
 21
0.162500007718336
 31
0.0860000040847808
 12
0.0800000037997961
 22
0.192000009119511
 32
0.0860000040847808
 13
0.0800000037997961
 23
0.192000009119511
 33
0.0860000040847808
0
3DFACE
8
8
 62
8
 10
-0.0800000037997961
 20
0.162500007718336
 30
0.0860000040847808
 11
-0.0800000037997961
 21
0.192000009119511
 31
0.0860000040847808
 12
0.0800000037997961
 22
0.192000009119511
 32
0.0860000040847808
 13
0.0800000037997961
 23
0.192000009119511
 33
0.0860000040847808
0
3DFACE
8
8
 62
8
 10
-0.132000006269664
 20
-0.162500007718336
 30
0.0860000040847808
 11
0.0800000037997961
 21
0.192000009119511
 31
0.0860000040847808
 12
0.0800000037997961
 22
0.162500007718336
 32
0.0860000040847808
 13
0.0800000037997961
 23
0.162500007718336
 33
0.0860000040847808
0
3DFACE
8
8
 62
8
 10
-0.132000006269664
 20
-0.162500007718336
 30
0.0860000040847808
 11
0.0800000037997961
 21
0.162500007718336
 31
0.0860000040847808
 12
0.132000006269664
 22
0.162500007718336
 32
0.0860000040847808
 13
0.132000006269664
 23
0.162500007718336
 33
0.0860000040847808
0
3DFACE
8
8
 62
8
 10
-0.132000006269664
 20
-0.162500007718336
 30
0.0860000040847808
 11
0.132000006269664
 21
0.162500007718336
 31
0.0860000040847808
 12
-0.0800000037997961
 22
-0.162500007718336
 32
0.0860000040847808
 13
-0.0800000037997961
 23
-0.162500007718336
 33
0.0860000040847808
0
3DFACE
8
8
 62
8
 10
0.132000006269664
 20
0.162500007718336
 30
0.0860000040847808
 11
0.132000006269664
 21
-0.162500007718336
 31
0.0860000040847808
 12
0.0800000037997961
 22
-0.162500007718336
 32
0.0860000040847808
 13
0.0800000037997961
 23
-0.162500007718336
 33
0.0860000040847808
0
3DFACE
8
8
 62
8
 10
0.132000006269664
 20
0.162500007718336
 30
0.0860000040847808
 11
0.0800000037997961
 21
-0.162500007718336
 31
0.0860000040847808
 12
-0.0800000037997961
 22
-0.192000009119511
 32
0.0860000040847808
 13
-0.0800000037997961
 23
-0.192000009119511
 33
0.0860000040847808
0
3DFACE
8
8
 62
8
 10
0.0800000037997961
 20
-0.162500007718336
 30
0.0860000040847808
 11
0.0800000037997961
 21
-0.192000009119511
 31
0.0860000040847808
 12
-0.0800000037997961
 22
-0.192000009119511
 32
0.0860000040847808
 13
-0.0800000037997961
 23
-0.192000009119511
 33
0.0860000040847808
0
3DFACE
8
8
 62
8
 10
0.132000006269664
 20
0.162500007718336
 30
0.0860000040847808
 11
-0.0800000037997961
 21
-0.192000009119511
 31
0.0860000040847808
 12
-0.0800000037997961
 22
-0.162500007718336
 32
0.0860000040847808
 13
-0.0800000037997961
 23
-0.162500007718336
 33
0.0860000040847808
0
3DFACE
8
8
 62
8
 10
-0.0800000037997961
 20
-0.162500007718336
 30
0
 11
-0.132000006269664
 21
-0.162500007718336
 31
0
 12
-0.132000006269664
 22
-0.162500007718336
 32
0.0860000040847808
 13
-0.0800000037997961
 23
-0.162500007718336
 33
0.0860000040847808
0
3DFACE
8
8
 62
8
 10
-0.132000006269664
 20
-0.162500007718336
 30
0
 11
-0.132000006269664
 21
0.162500007718336
 31
0
 12
-0.132000006269664
 22
0.162500007718336
 32
0.0860000040847808
 13
-0.132000006269664
 23
-0.162500007718336
 33
0.0860000040847808
0
3DFACE
8
8
 62
8
 10
-0.132000006269664
 20
0.162500007718336
 30
0
 11
-0.0800000037997961
 21
0.162500007718336
 31
0
 12
-0.0800000037997961
 22
0.162500007718336
 32
0.0860000040847808
 13
-0.132000006269664
 23
0.162500007718336
 33
0.0860000040847808
0
3DFACE
8
8
 62
8
 10
-0.0800000037997961
 20
0.162500007718336
 30
0
 11
-0.0800000037997961
 21
0.192000009119511
 31
0
 12
-0.0800000037997961
 22
0.192000009119511
 32
0.0860000040847808
 13
-0.0800000037997961
 23
0.162500007718336
 33
0.0860000040847808
0
3DFACE
8
8
 62
8
 10
-0.0800000037997961
 20
0.192000009119511
 30
0
 11
0.0800000037997961
 21
0.192000009119511
 31
0
 12
0.0800000037997961
 22
0.192000009119511
 32
0.0860000040847808
 13
-0.0800000037997961
 23
0.192000009119511
 33
0.0860000040847808
0
3DFACE
8
8
 62
8
 10
0.0800000037997961
 20
0.192000009119511
 30
0
 11
0.0800000037997961
 21
0.162500007718336
 31
0
 12
0.0800000037997961
 22
0.162500007718336
 32
0.0860000040847808
 13
0.0800000037997961
 23
0.192000009119511
 33
0.0860000040847808
0
3DFACE
8
8
 62
8
 10
0.0800000037997961
 20
0.162500007718336
 30
0
 11
0.132000006269664
 21
0.162500007718336
 31
0
 12
0.132000006269664
 22
0.162500007718336
 32
0.0860000040847808
 13
0.0800000037997961
 23
0.162500007718336
 33
0.0860000040847808
0
3DFACE
8
8
 62
8
 10
0.132000006269664
 20
0.162500007718336
 30
0
 11
0.132000006269664
 21
-0.162500007718336
 31
0
 12
0.132000006269664
 22
-0.162500007718336
 32
0.0860000040847808
 13
0.132000006269664
 23
0.162500007718336
 33
0.0860000040847808
0
3DFACE
8
8
 62
8
 10
0.132000006269664
 20
-0.162500007718336
 30
0
 11
0.0800000037997961
 21
-0.162500007718336
 31
0
 12
0.0800000037997961
 22
-0.162500007718336
 32
0.0860000040847808
 13
0.132000006269664
 23
-0.162500007718336
 33
0.0860000040847808
0
3DFACE
8
8
 62
8
 10
0.0800000037997961
 20
-0.162500007718336
 30
0
 11
0.0800000037997961
 21
-0.192000009119511
 31
0
 12
0.0800000037997961
 22
-0.192000009119511
 32
0.0860000040847808
 13
0.0800000037997961
 23
-0.162500007718336
 33
0.0860000040847808
0
3DFACE
8
8
 62
8
 10
0.0800000037997961
 20
-0.192000009119511
 30
0
 11
-0.0800000037997961
 21
-0.192000009119511
 31
0
 12
-0.0800000037997961
 22
-0.192000009119511
 32
0.0860000040847808
 13
0.0800000037997961
 23
-0.192000009119511
 33
0.0860000040847808
0
3DFACE
8
8
 62
8
 10
-0.0800000037997961
 20
-0.192000009119511
 30
0
 11
-0.0800000037997961
 21
-0.162500007718336
 31
0
 12
-0.0800000037997961
 22
-0.162500007718336
 32
0.0860000040847808
 13
-0.0800000037997961
 23
-0.192000009119511
 33
0.0860000040847808
 0
ENDBLK
 0
BLOCK
 70
0
 2
TOP_VALOR_Polygon_87
 10
0
 20
0
 30
0
0
3DFACE
8
23
 62
23
 10
-0.15300000726711
 20
-0.198000009404495
 30
0
 11
-0.15300000726711
 21
0.198000009404495
 31
0
 12
0.15300000726711
 22
0.198000009404495
 32
0
 13
0.15300000726711
 23
-0.198000009404495
 33
0
0
3DFACE
8
23
 62
23
 10
-0.15300000726711
 20
-0.198000009404495
 30
0.0860000040847808
 11
-0.15300000726711
 21
0.198000009404495
 31
0.0860000040847808
 12
0.15300000726711
 22
0.198000009404495
 32
0.0860000040847808
 13
0.15300000726711
 23
-0.198000009404495
 33
0.0860000040847808
0
3DFACE
8
23
 62
23
 10
0.15300000726711
 20
-0.198000009404495
 30
0
 11
-0.15300000726711
 21
-0.198000009404495
 31
0
 12
-0.15300000726711
 22
-0.198000009404495
 32
0.0860000040847808
 13
0.15300000726711
 23
-0.198000009404495
 33
0.0860000040847808
0
3DFACE
8
23
 62
23
 10
-0.15300000726711
 20
-0.198000009404495
 30
0
 11
-0.15300000726711
 21
0.198000009404495
 31
0
 12
-0.15300000726711
 22
0.198000009404495
 32
0.0860000040847808
 13
-0.15300000726711
 23
-0.198000009404495
 33
0.0860000040847808
0
3DFACE
8
23
 62
23
 10
-0.15300000726711
 20
0.198000009404495
 30
0
 11
0.15300000726711
 21
0.198000009404495
 31
0
 12
0.15300000726711
 22
0.198000009404495
 32
0.0860000040847808
 13
-0.15300000726711
 23
0.198000009404495
 33
0.0860000040847808
0
3DFACE
8
23
 62
23
 10
0.15300000726711
 20
0.198000009404495
 30
0
 11
0.15300000726711
 21
-0.198000009404495
 31
0
 12
0.15300000726711
 22
-0.198000009404495
 32
0.0860000040847808
 13
0.15300000726711
 23
0.198000009404495
 33
0.0860000040847808
 0
ENDBLK
0
ENDSEC
0
SECTION
2
ENTITIES
 0
INSERT
 8
8
 2
TOP_PLACE_BOUND_Polygon_69
 10
0
 20
0
 30
0
 41
1
 42
1
 43
1
 0
INSERT
 8
23
 2
TOP_VALOR_Polygon_87
 10
0
 20
0
 30
0
 41
1
 42
1
 43
1
0
ENDSEC
 0
EOF

