 999
VISION3D DXF
0
SECTION
2
HEADER
0
ENDSEC
0
SECTION
2
TABLES
0
ENDSEC
0
SECTION
2
BLOCKS
 0
BLOCK
 70
0
 2
TOP_PLACE_BOUND_Polygon_69
 10
0
 20
0
 30
0
0
3DFACE
8
8
 62
8
 10
-0.164000007789582
 20
-0.179500008525793
 30
0
 11
-0.164000007789582
 21
0.179500008525793
 31
0
 12
-0.0960000045597553
 22
0.179500008525793
 32
0
 13
-0.0960000045597553
 23
0.179500008525793
 33
0
0
3DFACE
8
8
 62
8
 10
-0.164000007789582
 20
-0.179500008525793
 30
0
 11
-0.0960000045597553
 21
0.179500008525793
 31
0
 12
0.0960000045597553
 22
0.20800000987947
 32
0
 13
0.0960000045597553
 23
0.20800000987947
 33
0
0
3DFACE
8
8
 62
8
 10
-0.0960000045597553
 20
0.179500008525793
 30
0
 11
-0.0960000045597553
 21
0.20800000987947
 31
0
 12
0.0960000045597553
 22
0.20800000987947
 32
0
 13
0.0960000045597553
 23
0.20800000987947
 33
0
0
3DFACE
8
8
 62
8
 10
-0.164000007789582
 20
-0.179500008525793
 30
0
 11
0.0960000045597553
 21
0.20800000987947
 31
0
 12
0.0960000045597553
 22
0.179500008525793
 32
0
 13
0.0960000045597553
 23
0.179500008525793
 33
0
0
3DFACE
8
8
 62
8
 10
-0.164000007789582
 20
-0.179500008525793
 30
0
 11
0.0960000045597553
 21
0.179500008525793
 31
0
 12
0.164000007789582
 22
0.179500008525793
 32
0
 13
0.164000007789582
 23
0.179500008525793
 33
0
0
3DFACE
8
8
 62
8
 10
-0.164000007789582
 20
-0.179500008525793
 30
0
 11
0.164000007789582
 21
0.179500008525793
 31
0
 12
-0.0960000045597553
 22
-0.179500008525793
 32
0
 13
-0.0960000045597553
 23
-0.179500008525793
 33
0
0
3DFACE
8
8
 62
8
 10
0.164000007789582
 20
0.179500008525793
 30
0
 11
0.164000007789582
 21
-0.179500008525793
 31
0
 12
0.0960000045597553
 22
-0.179500008525793
 32
0
 13
0.0960000045597553
 23
-0.179500008525793
 33
0
0
3DFACE
8
8
 62
8
 10
0.164000007789582
 20
0.179500008525793
 30
0
 11
0.0960000045597553
 21
-0.179500008525793
 31
0
 12
-0.0960000045597553
 22
-0.20800000987947
 32
0
 13
-0.0960000045597553
 23
-0.20800000987947
 33
0
0
3DFACE
8
8
 62
8
 10
0.0960000045597553
 20
-0.179500008525793
 30
0
 11
0.0960000045597553
 21
-0.20800000987947
 31
0
 12
-0.0960000045597553
 22
-0.20800000987947
 32
0
 13
-0.0960000045597553
 23
-0.20800000987947
 33
0
0
3DFACE
8
8
 62
8
 10
0.164000007789582
 20
0.179500008525793
 30
0
 11
-0.0960000045597553
 21
-0.20800000987947
 31
0
 12
-0.0960000045597553
 22
-0.179500008525793
 32
0
 13
-0.0960000045597553
 23
-0.179500008525793
 33
0
0
3DFACE
8
8
 62
8
 10
-0.164000007789582
 20
-0.179500008525793
 30
0.0860000040847808
 11
-0.164000007789582
 21
0.179500008525793
 31
0.0860000040847808
 12
-0.0960000045597553
 22
0.179500008525793
 32
0.0860000040847808
 13
-0.0960000045597553
 23
0.179500008525793
 33
0.0860000040847808
0
3DFACE
8
8
 62
8
 10
-0.164000007789582
 20
-0.179500008525793
 30
0.0860000040847808
 11
-0.0960000045597553
 21
0.179500008525793
 31
0.0860000040847808
 12
0.0960000045597553
 22
0.20800000987947
 32
0.0860000040847808
 13
0.0960000045597553
 23
0.20800000987947
 33
0.0860000040847808
0
3DFACE
8
8
 62
8
 10
-0.0960000045597553
 20
0.179500008525793
 30
0.0860000040847808
 11
-0.0960000045597553
 21
0.20800000987947
 31
0.0860000040847808
 12
0.0960000045597553
 22
0.20800000987947
 32
0.0860000040847808
 13
0.0960000045597553
 23
0.20800000987947
 33
0.0860000040847808
0
3DFACE
8
8
 62
8
 10
-0.164000007789582
 20
-0.179500008525793
 30
0.0860000040847808
 11
0.0960000045597553
 21
0.20800000987947
 31
0.0860000040847808
 12
0.0960000045597553
 22
0.179500008525793
 32
0.0860000040847808
 13
0.0960000045597553
 23
0.179500008525793
 33
0.0860000040847808
0
3DFACE
8
8
 62
8
 10
-0.164000007789582
 20
-0.179500008525793
 30
0.0860000040847808
 11
0.0960000045597553
 21
0.179500008525793
 31
0.0860000040847808
 12
0.164000007789582
 22
0.179500008525793
 32
0.0860000040847808
 13
0.164000007789582
 23
0.179500008525793
 33
0.0860000040847808
0
3DFACE
8
8
 62
8
 10
-0.164000007789582
 20
-0.179500008525793
 30
0.0860000040847808
 11
0.164000007789582
 21
0.179500008525793
 31
0.0860000040847808
 12
-0.0960000045597553
 22
-0.179500008525793
 32
0.0860000040847808
 13
-0.0960000045597553
 23
-0.179500008525793
 33
0.0860000040847808
0
3DFACE
8
8
 62
8
 10
0.164000007789582
 20
0.179500008525793
 30
0.0860000040847808
 11
0.164000007789582
 21
-0.179500008525793
 31
0.0860000040847808
 12
0.0960000045597553
 22
-0.179500008525793
 32
0.0860000040847808
 13
0.0960000045597553
 23
-0.179500008525793
 33
0.0860000040847808
0
3DFACE
8
8
 62
8
 10
0.164000007789582
 20
0.179500008525793
 30
0.0860000040847808
 11
0.0960000045597553
 21
-0.179500008525793
 31
0.0860000040847808
 12
-0.0960000045597553
 22
-0.20800000987947
 32
0.0860000040847808
 13
-0.0960000045597553
 23
-0.20800000987947
 33
0.0860000040847808
0
3DFACE
8
8
 62
8
 10
0.0960000045597553
 20
-0.179500008525793
 30
0.0860000040847808
 11
0.0960000045597553
 21
-0.20800000987947
 31
0.0860000040847808
 12
-0.0960000045597553
 22
-0.20800000987947
 32
0.0860000040847808
 13
-0.0960000045597553
 23
-0.20800000987947
 33
0.0860000040847808
0
3DFACE
8
8
 62
8
 10
0.164000007789582
 20
0.179500008525793
 30
0.0860000040847808
 11
-0.0960000045597553
 21
-0.20800000987947
 31
0.0860000040847808
 12
-0.0960000045597553
 22
-0.179500008525793
 32
0.0860000040847808
 13
-0.0960000045597553
 23
-0.179500008525793
 33
0.0860000040847808
0
3DFACE
8
8
 62
8
 10
-0.0960000045597553
 20
-0.179500008525793
 30
0
 11
-0.164000007789582
 21
-0.179500008525793
 31
0
 12
-0.164000007789582
 22
-0.179500008525793
 32
0.0860000040847808
 13
-0.0960000045597553
 23
-0.179500008525793
 33
0.0860000040847808
0
3DFACE
8
8
 62
8
 10
-0.164000007789582
 20
-0.179500008525793
 30
0
 11
-0.164000007789582
 21
0.179500008525793
 31
0
 12
-0.164000007789582
 22
0.179500008525793
 32
0.0860000040847808
 13
-0.164000007789582
 23
-0.179500008525793
 33
0.0860000040847808
0
3DFACE
8
8
 62
8
 10
-0.164000007789582
 20
0.179500008525793
 30
0
 11
-0.0960000045597553
 21
0.179500008525793
 31
0
 12
-0.0960000045597553
 22
0.179500008525793
 32
0.0860000040847808
 13
-0.164000007789582
 23
0.179500008525793
 33
0.0860000040847808
0
3DFACE
8
8
 62
8
 10
-0.0960000045597553
 20
0.179500008525793
 30
0
 11
-0.0960000045597553
 21
0.20800000987947
 31
0
 12
-0.0960000045597553
 22
0.20800000987947
 32
0.0860000040847808
 13
-0.0960000045597553
 23
0.179500008525793
 33
0.0860000040847808
0
3DFACE
8
8
 62
8
 10
-0.0960000045597553
 20
0.20800000987947
 30
0
 11
0.0960000045597553
 21
0.20800000987947
 31
0
 12
0.0960000045597553
 22
0.20800000987947
 32
0.0860000040847808
 13
-0.0960000045597553
 23
0.20800000987947
 33
0.0860000040847808
0
3DFACE
8
8
 62
8
 10
0.0960000045597553
 20
0.20800000987947
 30
0
 11
0.0960000045597553
 21
0.179500008525793
 31
0
 12
0.0960000045597553
 22
0.179500008525793
 32
0.0860000040847808
 13
0.0960000045597553
 23
0.20800000987947
 33
0.0860000040847808
0
3DFACE
8
8
 62
8
 10
0.0960000045597553
 20
0.179500008525793
 30
0
 11
0.164000007789582
 21
0.179500008525793
 31
0
 12
0.164000007789582
 22
0.179500008525793
 32
0.0860000040847808
 13
0.0960000045597553
 23
0.179500008525793
 33
0.0860000040847808
0
3DFACE
8
8
 62
8
 10
0.164000007789582
 20
0.179500008525793
 30
0
 11
0.164000007789582
 21
-0.179500008525793
 31
0
 12
0.164000007789582
 22
-0.179500008525793
 32
0.0860000040847808
 13
0.164000007789582
 23
0.179500008525793
 33
0.0860000040847808
0
3DFACE
8
8
 62
8
 10
0.164000007789582
 20
-0.179500008525793
 30
0
 11
0.0960000045597553
 21
-0.179500008525793
 31
0
 12
0.0960000045597553
 22
-0.179500008525793
 32
0.0860000040847808
 13
0.164000007789582
 23
-0.179500008525793
 33
0.0860000040847808
0
3DFACE
8
8
 62
8
 10
0.0960000045597553
 20
-0.179500008525793
 30
0
 11
0.0960000045597553
 21
-0.20800000987947
 31
0
 12
0.0960000045597553
 22
-0.20800000987947
 32
0.0860000040847808
 13
0.0960000045597553
 23
-0.179500008525793
 33
0.0860000040847808
0
3DFACE
8
8
 62
8
 10
0.0960000045597553
 20
-0.20800000987947
 30
0
 11
-0.0960000045597553
 21
-0.20800000987947
 31
0
 12
-0.0960000045597553
 22
-0.20800000987947
 32
0.0860000040847808
 13
0.0960000045597553
 23
-0.20800000987947
 33
0.0860000040847808
0
3DFACE
8
8
 62
8
 10
-0.0960000045597553
 20
-0.20800000987947
 30
0
 11
-0.0960000045597553
 21
-0.179500008525793
 31
0
 12
-0.0960000045597553
 22
-0.179500008525793
 32
0.0860000040847808
 13
-0.0960000045597553
 23
-0.20800000987947
 33
0.0860000040847808
 0
ENDBLK
 0
BLOCK
 70
0
 2
TOP_VALOR_Polygon_87
 10
0
 20
0
 30
0
0
3DFACE
8
23
 62
23
 10
-0.169000008027069
 20
-0.198000009404495
 30
0
 11
-0.169000008027069
 21
0.198000009404495
 31
0
 12
0.169000008027069
 22
0.198000009404495
 32
0
 13
0.169000008027069
 23
-0.198000009404495
 33
0
0
3DFACE
8
23
 62
23
 10
-0.169000008027069
 20
-0.198000009404495
 30
0.0860000040847808
 11
-0.169000008027069
 21
0.198000009404495
 31
0.0860000040847808
 12
0.169000008027069
 22
0.198000009404495
 32
0.0860000040847808
 13
0.169000008027069
 23
-0.198000009404495
 33
0.0860000040847808
0
3DFACE
8
23
 62
23
 10
0.169000008027069
 20
-0.198000009404495
 30
0
 11
-0.169000008027069
 21
-0.198000009404495
 31
0
 12
-0.169000008027069
 22
-0.198000009404495
 32
0.0860000040847808
 13
0.169000008027069
 23
-0.198000009404495
 33
0.0860000040847808
0
3DFACE
8
23
 62
23
 10
-0.169000008027069
 20
-0.198000009404495
 30
0
 11
-0.169000008027069
 21
0.198000009404495
 31
0
 12
-0.169000008027069
 22
0.198000009404495
 32
0.0860000040847808
 13
-0.169000008027069
 23
-0.198000009404495
 33
0.0860000040847808
0
3DFACE
8
23
 62
23
 10
-0.169000008027069
 20
0.198000009404495
 30
0
 11
0.169000008027069
 21
0.198000009404495
 31
0
 12
0.169000008027069
 22
0.198000009404495
 32
0.0860000040847808
 13
-0.169000008027069
 23
0.198000009404495
 33
0.0860000040847808
0
3DFACE
8
23
 62
23
 10
0.169000008027069
 20
0.198000009404495
 30
0
 11
0.169000008027069
 21
-0.198000009404495
 31
0
 12
0.169000008027069
 22
-0.198000009404495
 32
0.0860000040847808
 13
0.169000008027069
 23
0.198000009404495
 33
0.0860000040847808
 0
ENDBLK
0
ENDSEC
0
SECTION
2
ENTITIES
 0
INSERT
 8
8
 2
TOP_PLACE_BOUND_Polygon_69
 10
0
 20
0
 30
0
 41
1
 42
1
 43
1
 0
INSERT
 8
23
 2
TOP_VALOR_Polygon_87
 10
0
 20
0
 30
0
 41
1
 42
1
 43
1
0
ENDSEC
 0
EOF

