 0
SECTION
 2
HEADER
 0
ENDSEC
 0
SECTION
 2
TABLES
 0
ENDSEC
 0
SECTION
 2
BLOCKS
0
BLOCK
70
0
2
LQFP48-7x7mm
10
0
20
0
30
0
999
##### Poly 1 ####
0
POLYLINE
5
36
70
1
8
2
6
CONTINUOUS
66
1
10
0
20
0
30
0
39
.063
0
VERTEX
8
2
6
CONTINUOUS
 10
-.21082
 20
-.0614
 30
0
0
VERTEX
8
2
6
CONTINUOUS
 10
-.21082
 20
-.0764
 30
0
0
VERTEX
8
2
6
CONTINUOUS
 10
-.20082
 20
-.0764
 30
0
0
VERTEX
8
2
6
CONTINUOUS
 10
-.20082
 20
-.0614
 30
0
0
SEQEND
0
3DFACE
5
49
8
0
6
CONTINUOUS
 10
-.21082
 20
-.0614
 30
.063
 11
-.21082
 21
-.0764
 31
.063
 12
-.20082
 22
-.0764
 32
.063
 13
-.20082
 23
-.0614
 33
.063
0
3DFACE
5
49
8
0
6
CONTINUOUS
 10
-.21082
 20
-.0614
 30
0
 11
-.21082
 21
-.0764
 31
0
 12
-.20082
 22
-.0764
 32
0
 13
-.20082
 23
-.0614
 33
0
999
##### Poly 14 ####
0
POLYLINE
5
36
70
1
8
2
6
CONTINUOUS
66
1
10
0
20
0
30
0
39
.063
0
VERTEX
8
2
6
CONTINUOUS
 10
.02203
 20
-.20082
 30
0
0
VERTEX
8
2
6
CONTINUOUS
 10
.02203
 20
-.21082
 30
0
0
VERTEX
8
2
6
CONTINUOUS
 10
.03703
 20
-.21082
 30
0
0
VERTEX
8
2
6
CONTINUOUS
 10
.03703
 20
-.20082
 30
0
0
SEQEND
0
3DFACE
5
49
8
0
6
CONTINUOUS
 10
.02203
 20
-.20082
 30
.063
 11
.02203
 21
-.21082
 31
.063
 12
.03703
 22
-.21082
 32
.063
 13
.03703
 23
-.20082
 33
.063
0
3DFACE
5
49
8
0
6
CONTINUOUS
 10
.02203
 20
-.20082
 30
0
 11
.02203
 21
-.21082
 31
0
 12
.03703
 22
-.21082
 32
0
 13
.03703
 23
-.20082
 33
0
999
##### Poly 27 ####
0
POLYLINE
5
36
70
1
8
2
6
CONTINUOUS
66
1
10
0
20
0
30
0
39
.063
0
VERTEX
8
2
6
CONTINUOUS
 10
.21082
 20
-.00234
 30
0
0
VERTEX
8
2
6
CONTINUOUS
 10
.21082
 20
-.01734
 30
0
0
VERTEX
8
2
6
CONTINUOUS
 10
.20082
 20
-.01734
 30
0
0
VERTEX
8
2
6
CONTINUOUS
 10
.20082
 20
-.00234
 30
0
0
SEQEND
0
3DFACE
5
49
8
0
6
CONTINUOUS
 10
.21082
 20
-.00234
 30
.063
 11
.21082
 21
-.01734
 31
.063
 12
.20082
 22
-.01734
 32
.063
 13
.20082
 23
-.00234
 33
.063
0
3DFACE
5
49
8
0
6
CONTINUOUS
 10
.21082
 20
-.00234
 30
0
 11
.21082
 21
-.01734
 31
0
 12
.20082
 22
-.01734
 32
0
 13
.20082
 23
-.00234
 33
0
999
##### Poly 40 ####
0
POLYLINE
5
36
70
1
8
2
6
CONTINUOUS
66
1
10
0
20
0
30
0
39
.063
0
VERTEX
8
2
6
CONTINUOUS
 10
.04171
 20
.20082
 30
0
0
VERTEX
8
2
6
CONTINUOUS
 10
.04171
 20
.21082
 30
0
0
VERTEX
8
2
6
CONTINUOUS
 10
.05671
 20
.21082
 30
0
0
VERTEX
8
2
6
CONTINUOUS
 10
.05671
 20
.20082
 30
0
0
SEQEND
0
3DFACE
5
49
8
0
6
CONTINUOUS
 10
.04171
 20
.20082
 30
.063
 11
.04171
 21
.21082
 31
.063
 12
.05671
 22
.21082
 32
.063
 13
.05671
 23
.20082
 33
.063
0
3DFACE
5
49
8
0
6
CONTINUOUS
 10
.04171
 20
.20082
 30
0
 11
.04171
 21
.21082
 31
0
 12
.05671
 22
.21082
 32
0
 13
.05671
 23
.20082
 33
0
999
##### Poly 73 ####
0
POLYLINE
5
36
70
1
8
8
6
CONTINUOUS
66
1
10
0
20
0
30
0
39
.063
0
VERTEX
8
8
6
CONTINUOUS
 10
-.1515
 20
-.1515
 30
0
0
VERTEX
8
8
6
CONTINUOUS
 10
-.1515
 20
-.12827
 30
0
0
VERTEX
8
8
6
CONTINUOUS
 10
-.21082
 20
-.12827
 30
0
0
VERTEX
8
8
6
CONTINUOUS
 10
-.21082
 20
.12827
 30
0
0
VERTEX
8
8
6
CONTINUOUS
 10
-.1515
 20
.12827
 30
0
0
VERTEX
8
8
6
CONTINUOUS
 10
-.1515
 20
.1515
 30
0
0
VERTEX
8
8
6
CONTINUOUS
 10
-.12827
 20
.1515
 30
0
0
VERTEX
8
8
6
CONTINUOUS
 10
-.12827
 20
.21082
 30
0
0
VERTEX
8
8
6
CONTINUOUS
 10
.12827
 20
.21082
 30
0
0
VERTEX
8
8
6
CONTINUOUS
 10
.12827
 20
.1515
 30
0
0
VERTEX
8
8
6
CONTINUOUS
 10
.1515
 20
.1515
 30
0
0
VERTEX
8
8
6
CONTINUOUS
 10
.1515
 20
.12827
 30
0
0
VERTEX
8
8
6
CONTINUOUS
 10
.21082
 20
.12827
 30
0
0
VERTEX
8
8
6
CONTINUOUS
 10
.21082
 20
-.12827
 30
0
0
VERTEX
8
8
6
CONTINUOUS
 10
.1515
 20
-.12827
 30
0
0
VERTEX
8
8
6
CONTINUOUS
 10
.1515
 20
-.1515
 30
0
0
VERTEX
8
8
6
CONTINUOUS
 10
.12827
 20
-.1515
 30
0
0
VERTEX
8
8
6
CONTINUOUS
 10
.12827
 20
-.21082
 30
0
0
VERTEX
8
8
6
CONTINUOUS
 10
-.12827
 20
-.21082
 30
0
0
VERTEX
8
8
6
CONTINUOUS
 10
-.12827
 20
-.1515
 30
0
0
SEQEND
999
##### Poly 100 ####
0
POLYLINE
5
36
70
1
8
23
6
CONTINUOUS
66
1
10
0
20
0
30
0
39
.063
0
VERTEX
8
23
6
CONTINUOUS
 10
-.21582
 20
-.21582
 30
0
0
VERTEX
8
23
6
CONTINUOUS
 10
-.21582
 20
.21582
 30
0
0
VERTEX
8
23
6
CONTINUOUS
 10
.21582
 20
.21582
 30
0
0
VERTEX
8
23
6
CONTINUOUS
 10
.21582
 20
-.21582
 30
0
0
SEQEND
0
3DFACE
5
49
8
0
6
CONTINUOUS
 10
-.21582
 20
-.21582
 30
.063
 11
-.21582
 21
.21582
 31
.063
 12
.21582
 22
.21582
 32
.063
 13
.21582
 23
-.21582
 33
.063
0
3DFACE
5
49
8
0
6
CONTINUOUS
 10
-.21582
 20
-.21582
 30
0
 11
-.21582
 21
.21582
 31
0
 12
.21582
 22
.21582
 32
0
 13
.21582
 23
-.21582
 33
0
0
ENDBLK
0
ENDSEC
0
SECTION
2
ENTITIES
 0
INSERT
 8
0
 2
LQFP48-7x7mm
 10
0
 20
0
 30
0
 41
1
 42
1
 43
1
0
ENDSEC
 0
EOF

